<svg width="14" height="8" viewBox="0 0 14 8" fill="none" xmlns="http://www.w3.org/2000/svg">
<path d="M6.60172 7.27328L0.976718 1.64828C0.924456 1.59602 0.882999 1.53397 0.854715 1.46569C0.826432 1.39741 0.811873 1.32422 0.811873 1.25031C0.811873 1.1764 0.826432 1.10322 0.854715 1.03493C0.882999 0.966649 0.924456 0.904605 0.976718 0.852343C1.02898 0.800081 1.09102 0.758625 1.15931 0.730341C1.22759 0.702057 1.30078 0.687499 1.37469 0.687499C1.4486 0.687499 1.52178 0.702057 1.59007 0.730341C1.65835 0.758625 1.72039 0.800081 1.77266 0.852343L6.99969 6.08008L12.2267 0.852344C12.3323 0.746796 12.4754 0.6875 12.6247 0.6875C12.774 0.6875 12.9171 0.746796 13.0227 0.852344C13.1282 0.957892 13.1875 1.10105 13.1875 1.25031C13.1875 1.39958 13.1282 1.54273 13.0227 1.64828L7.39766 7.27328C7.34541 7.32558 7.28338 7.36707 7.21509 7.39538C7.1468 7.42368 7.07361 7.43825 6.99969 7.43825C6.92577 7.43825 6.85257 7.42368 6.78428 7.39538C6.716 7.36707 6.65396 7.32558 6.60172 7.27328Z" fill="#3B704D"/>
</svg>
