<svg width="16" height="16" viewBox="0 0 16 16" fill="none" xmlns="http://www.w3.org/2000/svg">
<path d="M14.834 2H10.334C9.94587 2 9.56309 2.09036 9.21595 2.26393C8.86881 2.4375 8.56685 2.68951 8.33398 3C8.10112 2.68951 7.79916 2.4375 7.45202 2.26393C7.10488 2.09036 6.7221 2 6.33398 2H1.83398C1.70138 2 1.5742 2.05268 1.48043 2.14645C1.38666 2.24021 1.33398 2.36739 1.33398 2.5V11.5C1.33398 11.6326 1.38666 11.7598 1.48043 11.8536C1.5742 11.9473 1.70138 12 1.83398 12H6.33398C6.73181 12 7.11334 12.158 7.39464 12.4393C7.67595 12.7206 7.83398 13.1022 7.83398 13.5C7.83398 13.6326 7.88666 13.7598 7.98043 13.8536C8.0742 13.9473 8.20138 14 8.33398 14C8.46659 14 8.59377 13.9473 8.68754 13.8536C8.78131 13.7598 8.83398 13.6326 8.83398 13.5C8.83398 13.1022 8.99202 12.7206 9.27332 12.4393C9.55463 12.158 9.93616 12 10.334 12H14.834C14.9666 12 15.0938 11.9473 15.1875 11.8536C15.2813 11.7598 15.334 11.6326 15.334 11.5V2.5C15.334 2.36739 15.2813 2.24021 15.1875 2.14645C15.0938 2.05268 14.9666 2 14.834 2ZM6.33398 11H2.33398V3H6.33398C6.73181 3 7.11334 3.15804 7.39464 3.43934C7.67595 3.72064 7.83398 4.10218 7.83398 4.5V11.5C7.40165 11.1747 6.87505 10.9991 6.33398 11ZM14.334 11H10.334C9.79292 10.9991 9.26632 11.1747 8.83398 11.5V4.5C8.83398 4.10218 8.99202 3.72064 9.27332 3.43934C9.55463 3.15804 9.93616 3 10.334 3H14.334V11ZM10.334 4.5H12.834C12.9666 4.5 13.0938 4.55268 13.1875 4.64645C13.2813 4.74021 13.334 4.86739 13.334 5C13.334 5.13261 13.2813 5.25979 13.1875 5.35355C13.0938 5.44732 12.9666 5.5 12.834 5.5H10.334C10.2014 5.5 10.0742 5.44732 9.98043 5.35355C9.88666 5.25979 9.83398 5.13261 9.83398 5C9.83398 4.86739 9.88666 4.74021 9.98043 4.64645C10.0742 4.55268 10.2014 4.5 10.334 4.5ZM13.334 7C13.334 7.13261 13.2813 7.25979 13.1875 7.35355C13.0938 7.44732 12.9666 7.5 12.834 7.5H10.334C10.2014 7.5 10.0742 7.44732 9.98043 7.35355C9.88666 7.25979 9.83398 7.13261 9.83398 7C9.83398 6.86739 9.88666 6.74021 9.98043 6.64645C10.0742 6.55268 10.2014 6.5 10.334 6.5H12.834C12.9666 6.5 13.0938 6.55268 13.1875 6.64645C13.2813 6.74021 13.334 6.86739 13.334 7ZM13.334 9C13.334 9.13261 13.2813 9.25979 13.1875 9.35355C13.0938 9.44732 12.9666 9.5 12.834 9.5H10.334C10.2014 9.5 10.0742 9.44732 9.98043 9.35355C9.88666 9.25979 9.83398 9.13261 9.83398 9C9.83398 8.86739 9.88666 8.74021 9.98043 8.64645C10.0742 8.55268 10.2014 8.5 10.334 8.5H12.834C12.9666 8.5 13.0938 8.55268 13.1875 8.64645C13.2813 8.74021 13.334 8.86739 13.334 9Z" fill="#4B5563"/>
</svg>
