<svg width="16" height="16" viewBox="0 0 16 16" fill="none" xmlns="http://www.w3.org/2000/svg">
<g clip-path="url(#clip0_2754_687)">
<path d="M14.5 13.75H13.25V2.25H13.5C13.6989 2.25 13.8897 2.17098 14.0303 2.03033C14.171 1.88968 14.25 1.69891 14.25 1.5C14.25 1.30109 14.171 1.11032 14.0303 0.96967C13.8897 0.829018 13.6989 0.75 13.5 0.75H2.5C2.30109 0.75 2.11032 0.829018 1.96967 0.96967C1.82902 1.11032 1.75 1.30109 1.75 1.5C1.75 1.69891 1.82902 1.88968 1.96967 2.03033C2.11032 2.17098 2.30109 2.25 2.5 2.25H2.75V13.75H1.5C1.30109 13.75 1.11032 13.829 0.96967 13.9697C0.829018 14.1103 0.75 14.3011 0.75 14.5C0.75 14.6989 0.829018 14.8897 0.96967 15.0303C1.11032 15.171 1.30109 15.25 1.5 15.25H14.5C14.6989 15.25 14.8897 15.171 15.0303 15.0303C15.171 14.8897 15.25 14.6989 15.25 14.5C15.25 14.3011 15.171 14.1103 15.0303 13.9697C14.8897 13.829 14.6989 13.75 14.5 13.75ZM4.25 2.25H11.75V13.75H10.25V11.5C10.25 11.3011 10.171 11.1103 10.0303 10.9697C9.88968 10.829 9.69891 10.75 9.5 10.75H6.5C6.30109 10.75 6.11032 10.829 5.96967 10.9697C5.82902 11.1103 5.75 11.3011 5.75 11.5V13.75H4.25V2.25ZM8.75 13.75H7.25V12.25H8.75V13.75ZM5.25 4C5.25 3.80109 5.32902 3.61032 5.46967 3.46967C5.61032 3.32902 5.80109 3.25 6 3.25H6.75C6.94891 3.25 7.13968 3.32902 7.28033 3.46967C7.42098 3.61032 7.5 3.80109 7.5 4C7.5 4.19891 7.42098 4.38968 7.28033 4.53033C7.13968 4.67098 6.94891 4.75 6.75 4.75H6C5.80109 4.75 5.61032 4.67098 5.46967 4.53033C5.32902 4.38968 5.25 4.19891 5.25 4ZM8.5 4C8.5 3.80109 8.57902 3.61032 8.71967 3.46967C8.86032 3.32902 9.05109 3.25 9.25 3.25H10C10.1989 3.25 10.3897 3.32902 10.5303 3.46967C10.671 3.61032 10.75 3.80109 10.75 4C10.75 4.19891 10.671 4.38968 10.5303 4.53033C10.3897 4.67098 10.1989 4.75 10 4.75H9.25C9.05109 4.75 8.86032 4.67098 8.71967 4.53033C8.57902 4.38968 8.5 4.19891 8.5 4ZM5.25 6.5C5.25 6.30109 5.32902 6.11032 5.46967 5.96967C5.61032 5.82902 5.80109 5.75 6 5.75H6.75C6.94891 5.75 7.13968 5.82902 7.28033 5.96967C7.42098 6.11032 7.5 6.30109 7.5 6.5C7.5 6.69891 7.42098 6.88968 7.28033 7.03033C7.13968 7.17098 6.94891 7.25 6.75 7.25H6C5.80109 7.25 5.61032 7.17098 5.46967 7.03033C5.32902 6.88968 5.25 6.69891 5.25 6.5ZM8.5 6.5C8.5 6.30109 8.57902 6.11032 8.71967 5.96967C8.86032 5.82902 9.05109 5.75 9.25 5.75H10C10.1989 5.75 10.3897 5.82902 10.5303 5.96967C10.671 6.11032 10.75 6.30109 10.75 6.5C10.75 6.69891 10.671 6.88968 10.5303 7.03033C10.3897 7.17098 10.1989 7.25 10 7.25H9.25C9.05109 7.25 8.86032 7.17098 8.71967 7.03033C8.57902 6.88968 8.5 6.69891 8.5 6.5ZM5.25 9C5.25 8.80109 5.32902 8.61032 5.46967 8.46967C5.61032 8.32902 5.80109 8.25 6 8.25H6.75C6.94891 8.25 7.13968 8.32902 7.28033 8.46967C7.42098 8.61032 7.5 8.80109 7.5 9C7.5 9.19891 7.42098 9.38968 7.28033 9.53033C7.13968 9.67098 6.94891 9.75 6.75 9.75H6C5.80109 9.75 5.61032 9.67098 5.46967 9.53033C5.32902 9.38968 5.25 9.19891 5.25 9ZM8.5 9C8.5 8.80109 8.57902 8.61032 8.71967 8.46967C8.86032 8.32902 9.05109 8.25 9.25 8.25H10C10.1989 8.25 10.3897 8.32902 10.5303 8.46967C10.671 8.61032 10.75 8.80109 10.75 9C10.75 9.19891 10.671 9.38968 10.5303 9.53033C10.3897 9.67098 10.1989 9.75 10 9.75H9.25C9.05109 9.75 8.86032 9.67098 8.71967 9.53033C8.57902 9.38968 8.5 9.19891 8.5 9Z" fill="#2563EB"/>
</g>
<defs>
<clipPath id="clip0_2754_687">
<rect width="16" height="16" fill="white"/>
</clipPath>
</defs>
</svg>
