<svg width="14" height="14" viewBox="0 0 14 14" fill="none" xmlns="http://www.w3.org/2000/svg">
<path d="M13.3838 3.40942L10.5913 0.616296C10.4752 0.500169 10.3374 0.408049 10.1857 0.345199C10.034 0.282349 9.87139 0.25 9.70719 0.25C9.543 0.25 9.38041 0.282349 9.22872 0.345199C9.07703 0.408049 8.93921 0.500169 8.82313 0.616296L1.11626 8.3238C0.999757 8.43953 0.907394 8.57725 0.844523 8.72895C0.781653 8.88065 0.749526 9.04333 0.750005 9.20755V12.0007C0.750005 12.3322 0.881701 12.6501 1.11612 12.8846C1.35054 13.119 1.66848 13.2507 2.00001 13.2507H4.79313C4.95734 13.2511 5.12001 13.219 5.27171 13.1561C5.42341 13.0932 5.56112 13.0009 5.67688 12.8844L13.3838 5.17692C13.6181 4.94251 13.7497 4.62463 13.7497 4.29317C13.7497 3.96172 13.6181 3.64383 13.3838 3.40942ZM4.68751 11.7507H2.25001V9.31317L7.50001 4.06317L9.93751 6.50067L4.68751 11.7507ZM11 5.43817L8.56251 3.00067L9.70876 1.85442L12.1463 4.29192L11 5.43817Z" fill="#374151"/>
</svg>
