<svg width="14" height="12" viewBox="0 0 14 12" fill="none" xmlns="http://www.w3.org/2000/svg">
<path d="M13 0.75H1C0.801088 0.75 0.610322 0.829018 0.46967 0.96967C0.329018 1.11032 0.25 1.30109 0.25 1.5V10C0.25 10.3315 0.381696 10.6495 0.616117 10.8839C0.850537 11.1183 1.16848 11.25 1.5 11.25H12.5C12.8315 11.25 13.1495 11.1183 13.3839 10.8839C13.6183 10.6495 13.75 10.3315 13.75 10V1.5C13.75 1.30109 13.671 1.11032 13.5303 0.96967C13.3897 0.829018 13.1989 0.75 13 0.75ZM11.0719 2.25L7 5.9825L2.92812 2.25H11.0719ZM1.75 9.75V3.205L6.49312 7.55313C6.63146 7.67997 6.81232 7.75033 7 7.75033C7.18768 7.75033 7.36854 7.67997 7.50688 7.55313L12.25 3.205V9.75H1.75Z" fill="#9CA3AF"/>
</svg>
