<svg width="16" height="8" viewBox="0 0 16 8" fill="none" xmlns="http://www.w3.org/2000/svg">
<path d="M12.5576 3.77344C12.5576 3.97235 12.4786 4.16311 12.3379 4.30377C12.1973 4.44442 12.0065 4.52344 11.8076 4.52344H3.80762C3.6087 4.52344 3.41794 4.44442 3.27729 4.30377C3.13663 4.16311 3.05762 3.97235 3.05762 3.77344C3.05762 3.57452 3.13663 3.38376 3.27729 3.24311C3.41794 3.10245 3.6087 3.02344 3.80762 3.02344H11.8076C12.0065 3.02344 12.1973 3.10245 12.3379 3.24311C12.4786 3.38376 12.5576 3.57452 12.5576 3.77344ZM14.3076 0.0234375H1.30762C1.1087 0.0234375 0.917939 0.102455 0.777287 0.243107C0.636635 0.38376 0.557617 0.574525 0.557617 0.773437C0.557617 0.97235 0.636635 1.16312 0.777287 1.30377C0.917939 1.44442 1.1087 1.52344 1.30762 1.52344H14.3076C14.5065 1.52344 14.6973 1.44442 14.8379 1.30377C14.9786 1.16312 15.0576 0.97235 15.0576 0.773437C15.0576 0.574525 14.9786 0.38376 14.8379 0.243107C14.6973 0.102455 14.5065 0.0234375 14.3076 0.0234375ZM9.30762 6.02344H6.30762C6.10871 6.02344 5.91794 6.10246 5.77729 6.24311C5.63663 6.38376 5.55762 6.57452 5.55762 6.77344C5.55762 6.97235 5.63663 7.16311 5.77729 7.30377C5.91794 7.44442 6.10871 7.52344 6.30762 7.52344H9.30762C9.50653 7.52344 9.69729 7.44442 9.83795 7.30377C9.9786 7.16311 10.0576 6.97235 10.0576 6.77344C10.0576 6.57452 9.9786 6.38376 9.83795 6.24311C9.69729 6.10246 9.50653 6.02344 9.30762 6.02344Z" fill="#374151"/>
</svg>
