<svg xmlns="http://www.w3.org/2000/svg" xmlns:xlink="http://www.w3.org/1999/xlink" width="407" height="60" viewBox="0 0 407 60">
    <defs>
        <path id="blmmd74gha" d="M0 0.108L59.807 0.108 59.807 60 0 60z"/>
    </defs>
    <g fill="none" fill-rule="evenodd">
        <g>
            <g>
                <g>
                    <path fill="#004F87" d="M0 0L407 0 407 60 0 60z" transform="translate(-67 -162) translate(67 162)"/>
                    <g transform="translate(-67 -162) translate(67 162)">
                        <mask id="nk9879hwjb" fill="#fff">
                            <use xlink:href="#blmmd74gha"/>
                        </mask>
                        <path fill="#FFF" d="M52.529 49.679l-3.209-7.446 2.289-2.144 4.292 9.59h-3.372zM42.332 39.97l4.613-10.27 4.612 10.27h-3.214l-1.398-3.414-1.4 3.414h-3.213zm2.236 2.263l-1.69 3.862 4.06-2.128 2.34 1.8-7.998 3.912h-3.293l4.293-9.59 2.288 2.144zm-14.05-4.438c2.79 1.392 5.648 2.535 5.648 6.385 0 4.203-3.3 5.958-7.108 5.835-1.352-.042-2.668-.385-4.102-.853l.325-3.025c1.213.499 2.786 1.04 4.104 1.02 1.72-.027 3.44-.825 3.44-2.816 0-1.534-1.229-2.288-2.417-2.89-2.626-1.331-5.647-2.257-5.647-5.978 0-3.518 2.799-5.351 6.269-5.351 1.26 0 2.766.218 4.278.753l-.454 2.979c-1.646-.645-2.365-.874-3.717-.874-1.496 0-3.034.525-3.034 2.252 0 1.348 1.384 2.049 2.414 2.563zm-16.013 9.362c1.12 0 2.073-.082 2.758-.263v-4.979h-3.616V39.11H20.5v10.004c-1.211.414-3.065.902-6.024.902-6.07 0-10.134-3.922-10.134-10.027 0-5.925 4.313-9.866 10.162-9.866 2.777 0 4.014.411 5.769 1.017l-.264 3.317c-1.615-1.054-2.99-1.476-5.371-1.476-4.182 0-6.974 3.024-6.954 7.088.02 4.371 3.059 7.089 6.82 7.089zM0 59.892h59.807V0H0v59.892z" mask="url(#nk9879hwjb)"/>
                        <path fill="#FFF" d="M63.74 4.258h-.416v-.634h.389c.394 0 .538.08.538.314 0 .224-.16.32-.512.32m.272.245c.357-.027.601-.272.601-.613 0-.197-.143-.404-.33-.484-.149-.058-.25-.07-.574-.07h-.725v2.11h.34V4.55h.203c.261 0 .357.09.629.564l.186.33h.415l-.255-.41c-.213-.34-.33-.469-.49-.532"/>
                        <path fill="#FFF" d="M63.846 6c-.905 0-1.64-.736-1.64-1.641 0-.9.735-1.635 1.64-1.635.9 0 1.634.735 1.634 1.635 0 .905-.734 1.64-1.634 1.64m0-3.6c-1.086 0-1.965.88-1.965 1.96 0 1.086.879 1.965 1.965 1.965 1.081 0 1.96-.879 1.96-1.965 0-1.08-.879-1.96-1.96-1.96"/>
                    </g>
                    <text fill="#FFF" font-family="Montserrat-Bold, Montserrat" font-size="16" font-weight="bold" transform="translate(-67 -162) translate(67 162)">
                        <tspan x="80" y="36">U.S. General Services Administration</tspan>
                    </text>
                </g>
            </g>
        </g>
    </g>
</svg>
