<svg width="16" height="16" viewBox="0 0 16 16" fill="none" xmlns="http://www.w3.org/2000/svg">
<path d="M15.166 12.4998H14.666V6.66669C14.666 6.50212 14.6254 6.34009 14.5478 6.19498C14.4702 6.04987 14.3579 5.92615 14.221 5.83482L8.72102 2.16794C8.55675 2.05844 8.36375 2 8.16633 2C7.96891 2 7.77591 2.05844 7.61164 2.16794L2.11164 5.83482C1.97463 5.92608 1.86226 6.04976 1.78453 6.19488C1.70679 6.34 1.66608 6.50206 1.66602 6.66669V12.4998H1.16602C1.03341 12.4998 0.90623 12.5525 0.812462 12.6463C0.718694 12.74 0.666016 12.8672 0.666016 12.9998C0.666016 13.1324 0.718694 13.2596 0.812462 13.3534C0.90623 13.4471 1.03341 13.4998 1.16602 13.4998H15.166C15.2986 13.4998 15.4258 13.4471 15.5196 13.3534C15.6133 13.2596 15.666 13.1324 15.666 12.9998C15.666 12.8672 15.6133 12.74 15.5196 12.6463C15.4258 12.5525 15.2986 12.4998 15.166 12.4998ZM2.66602 6.66669L8.16602 2.99982L13.666 6.66607V12.4998H12.166V8.99982C12.166 8.86721 12.1133 8.74003 12.0196 8.64626C11.9258 8.55249 11.7986 8.49982 11.666 8.49982H4.66602C4.53341 8.49982 4.40623 8.55249 4.31246 8.64626C4.21869 8.74003 4.16602 8.86721 4.16602 8.99982V12.4998H2.66602V6.66669ZM11.166 9.49982V10.4998H8.66602V9.49982H11.166ZM7.66602 10.4998H5.16602V9.49982H7.66602V10.4998ZM5.16602 11.4998H7.66602V12.4998H5.16602V11.4998ZM8.66602 11.4998H11.166V12.4998H8.66602V11.4998Z" fill="#4B5563"/>
</svg>
