<svg xmlns="http://www.w3.org/2000/svg" width="63" height="70" viewBox="0 0 63 70">
    <g fill="none" fill-rule="evenodd">
        <path fill="#B8DCC5" d="M40.5 1.166v6.339l.548 3.706 3.24 2.05 8.714.785.484 40.409-7.504-6.954c-2.792-2.925-4.813-4.913-6.061-5.964l-.17.19c.991-1.097 1.927-2.207 2.798-3.32 1.68 1.176 4.014 1.02 5.519-.474 1.693-1.682 1.703-4.413.02-6.107l-9.049-9.111c-1.677-1.69-4.417-1.7-6.107-.021-1.325 1.316-1.616 3.285-.87 4.888-4.145 3.17-8.372 7.33-11.698 11.617-1.567-.745-3.546-.501-4.895.84-1.694 1.681-1.703 4.413-.021 6.107l9.049 9.11c1.68 1.693 4.414 1.704 6.107.022 1.505-1.495 1.676-3.83.51-5.516 1.124-.865 2.242-1.796 3.35-2.782L54.45 68.848H4.965l-3.26-.898L.162 62l.86-56.984 1.37-2.814 4.964-1.036h33.146z"/>
        <path fill="#3CA160" d="M20.16 6.48H8.38c-.566 0-1.025.458-1.025 1.025 0 .566.46 1.025 1.026 1.025H20.16c.566 0 1.025-.459 1.025-1.025 0-.567-.46-1.026-1.025-1.026zm0 4.73H8.38c-.566 0-1.025.46-1.025 1.026 0 .567.46 1.026 1.026 1.026H20.16c.566 0 1.025-.46 1.025-1.026 0-.566-.46-1.025-1.025-1.025zM39.75 41.729c.991-1.098 1.927-2.208 2.798-3.322 1.68 1.177 4.014 1.022 5.519-.473 1.693-1.682 1.703-4.413.02-6.107l-9.049-9.111c-1.677-1.69-4.417-1.7-6.107-.021-1.325 1.316-1.616 3.285-.87 4.888-4.145 3.17-8.372 7.33-11.698 11.617-1.567-.745-3.546-.501-4.895.84-1.694 1.681-1.703 4.413-.021 6.107l9.049 9.11c1.68 1.693 4.414 1.704 6.107.022 1.505-1.495 1.676-3.83.51-5.516 1.124-.865 2.242-1.796 3.35-2.782L54.45 68.848c1.358 1.485 3.679 1.543 5.108.123l2.011-1.998c1.428-1.417 1.393-3.737-.088-5.109l-21.73-20.136zM37.585 24.16l9.049 9.111c.883.89.878 2.324-.011 3.207-.888.881-2.326.876-3.207-.01l-9.05-9.112c-.88-.887-.876-2.326.011-3.207.89-.883 2.328-.874 3.208.01zm-4.271 5.046l7.734 7.787c-3.157 4.069-7.237 8.124-11.336 11.258l-7.734-7.787c3.076-3.965 7.14-8.049 11.336-11.258zm-7.362 24.606l-9.05-9.111c-.882-.89-.877-2.324.012-3.207.888-.883 2.324-.879 3.207.01l9.05 9.112c.88.887.875 2.325-.012 3.207-.888.882-2.324.878-3.207-.011zm32.162 13.704c-.618.614-1.593.557-2.15-.052l-19.99-21.872c.402-.38.803-.767 1.201-1.162.401-.398.792-.8 1.178-1.202l21.735 20.14c.62.575.641 1.55.037 2.15l-2.011 1.998zm-4.432.433H5.752c-1.952 0-3.54-1.588-3.54-3.54V5.59c0-1.952 1.588-3.54 3.54-3.54h33.416c.138 0 .274.014.407.036v7.02c0 3.083 2.508 5.59 5.591 5.59h7.02c.022.135.036.27.036.408v38.28l2.042 1.872.009-40.152c0-1.198-.467-2.324-1.313-3.17L42.339 1.313C41.492.466 40.366 0 39.168 0H5.752C2.669 0 .16 2.508.16 5.591v58.817C.16 67.491 2.669 70 5.75 70H52.96c.307 0 .937-.076 1.144-.385.207-.31.207-.405.347-.767-.3-.328-.556-.627-.77-.9zm-2.91-55.302h-5.606c-1.952 0-3.54-1.588-3.54-3.54V3.5l9.146 9.146z"/>
    </g>
</svg>
