<svg width="16" height="16" viewBox="0 0 16 16" fill="none" xmlns="http://www.w3.org/2000/svg">
<path d="M6.1665 6.5C6.1665 6.36739 6.21918 6.24021 6.31295 6.14645C6.40672 6.05268 6.5339 6 6.6665 6H10.6665C10.7991 6 10.9263 6.05268 11.0201 6.14645C11.1138 6.24021 11.1665 6.36739 11.1665 6.5C11.1665 6.63261 11.1138 6.75979 11.0201 6.85355C10.9263 6.94732 10.7991 7 10.6665 7H6.6665C6.5339 7 6.40672 6.94732 6.31295 6.85355C6.21918 6.75979 6.1665 6.63261 6.1665 6.5ZM6.6665 9H10.6665C10.7991 9 10.9263 8.94732 11.0201 8.85355C11.1138 8.75979 11.1665 8.63261 11.1665 8.5C11.1665 8.36739 11.1138 8.24021 11.0201 8.14645C10.9263 8.05268 10.7991 8 10.6665 8H6.6665C6.5339 8 6.40672 8.05268 6.31295 8.14645C6.21918 8.24021 6.1665 8.36739 6.1665 8.5C6.1665 8.63261 6.21918 8.75979 6.31295 8.85355C6.40672 8.94732 6.5339 9 6.6665 9ZM14.6665 12C14.6665 12.5304 14.4558 13.0391 14.0807 13.4142C13.7056 13.7893 13.1969 14 12.6665 14H5.6665C5.13607 14 4.62736 13.7893 4.25229 13.4142C3.87722 13.0391 3.6665 12.5304 3.6665 12V4C3.6665 3.73478 3.56115 3.48043 3.37361 3.29289C3.18607 3.10536 2.93172 3 2.6665 3C2.40129 3 2.14693 3.10536 1.9594 3.29289C1.77186 3.48043 1.6665 3.73478 1.6665 4C1.6665 4.35875 1.96838 4.60125 1.9715 4.60375C2.05425 4.66743 2.11499 4.75542 2.14519 4.85538C2.1754 4.95533 2.17355 5.06223 2.13991 5.16108C2.10627 5.25993 2.04253 5.34577 1.95763 5.40655C1.87272 5.46734 1.77092 5.50001 1.6665 5.5C1.55838 5.50019 1.45319 5.46483 1.36713 5.39937C1.29463 5.34625 0.666504 4.85063 0.666504 4C0.666504 3.46957 0.877218 2.96086 1.25229 2.58579C1.62736 2.21071 2.13607 2 2.6665 2H11.1665C11.6969 2 12.2056 2.21071 12.5807 2.58579C12.9558 2.96086 13.1665 3.46957 13.1665 4V10.5H13.6665C13.7747 10.5 13.88 10.5351 13.9665 10.6C14.0415 10.6538 14.6665 11.1494 14.6665 12ZM6.18275 10.8425C6.21692 10.7417 6.28211 10.6542 6.36901 10.5927C6.45591 10.5312 6.56004 10.4987 6.6665 10.5H12.1665V4C12.1665 3.73478 12.0611 3.48043 11.8736 3.29289C11.6861 3.10536 11.4317 3 11.1665 3H4.39713C4.57397 3.30357 4.66693 3.64868 4.6665 4V12C4.6665 12.2652 4.77186 12.5196 4.9594 12.7071C5.14693 12.8946 5.40129 13 5.6665 13C5.93172 13 6.18607 12.8946 6.37361 12.7071C6.56115 12.5196 6.6665 12.2652 6.6665 12C6.6665 11.6412 6.36463 11.3987 6.3615 11.3962C6.27629 11.3353 6.21293 11.2486 6.18074 11.1489C6.14856 11.0492 6.14926 10.9418 6.18275 10.8425ZM13.6665 12C13.6603 11.8147 13.5888 11.6377 13.4646 11.5H7.58963C7.63988 11.6619 7.66538 11.8305 7.66525 12C7.66573 12.3512 7.57322 12.6962 7.39713 13H12.6665C12.9317 13 13.1861 12.8946 13.3736 12.7071C13.5611 12.5196 13.6665 12.2652 13.6665 12Z" fill="#2563EB"/>
</svg>
