<svg xmlns="http://www.w3.org/2000/svg" width="24" height="22" viewBox="0 0 24 22">
    <g>
        <path d="M12.333 8C11.045 8 10 9.045 10 10.333c0 1.289 1.045 2.334 2.333 2.334 1.289 0 2.334-1.045 2.334-2.334C14.667 9.045 13.622 8 12.333 8zm0 3.556c-.675 0-1.222-.548-1.222-1.223s.547-1.222 1.222-1.222c.675 0 1.223.547 1.223 1.222 0 .675-.548 1.223-1.223 1.223z"/>
        <path d="M21.917 1.855L6.005.022c-.618-.089-1.244.094-1.72.503-.476.374-.781.929-.845 1.537l-.292 2.423h-.903C.963 4.485 0 5.638 0 6.94v12.089c-.033 1.24.933 2.272 2.156 2.305h16.088c1.282 0 2.448-1.005 2.448-2.305v-.473c.398-.078.775-.24 1.108-.473.472-.403.774-.974.845-1.596l1.34-12c.137-1.304-.785-2.477-2.069-2.631zm-2.39 17.173c0 .65-.64 1.123-1.282 1.123h-16c-.58.017-1.063-.445-1.08-1.033 0-.03 0-.06.002-.09V16.84l4.517-3.37c.543-.422 1.307-.384 1.807.09l3.177 2.837c.482.41 1.09.64 1.72.65.492.006.976-.127 1.398-.384l5.742-3.37v5.735zm0-7.124l-6.353 3.754c-.546.328-1.236.269-1.72-.148L8.25 12.643c-.92-.8-2.262-.85-3.235-.118l-3.847 2.837V6.94c0-.65.437-1.271 1.078-1.271h16c.685.028 1.238.577 1.282 1.27v4.966zm3.295-7.578l-.001.011-1.37 12c.002.312-.138.607-.379.799-.117.118-.379.177-.379.236V6.94c-.046-1.347-1.12-2.423-2.448-2.454H4.315l.261-2.305c.057-.299.211-.57.438-.769.255-.179.564-.263.874-.236l15.884 1.862c.64.062 1.11.639 1.05 1.289z"/>
    </g>
</svg>
