<svg width="14" height="14" viewBox="0 0 14 14" fill="none" xmlns="http://www.w3.org/2000/svg">
<path d="M7 0.25C5.66498 0.25 4.35994 0.645881 3.2499 1.38758C2.13987 2.12928 1.27471 3.18349 0.763816 4.41689C0.252925 5.65029 0.119252 7.00749 0.379702 8.31686C0.640153 9.62623 1.28303 10.829 2.22703 11.773C3.17104 12.717 4.37377 13.3598 5.68314 13.6203C6.99251 13.8808 8.34971 13.7471 9.58311 13.2362C10.8165 12.7253 11.8707 11.8601 12.6124 10.7501C13.3541 9.64007 13.75 8.33502 13.75 7C13.748 5.2104 13.0362 3.49466 11.7708 2.22922C10.5053 0.963781 8.7896 0.251985 7 0.25ZM12.25 7C12.2511 8.13331 11.8837 9.23626 11.2031 10.1425L3.8575 2.79688C4.63773 2.21388 5.56475 1.85942 6.5349 1.77313C7.50505 1.68685 8.48008 1.87214 9.35095 2.30829C10.2218 2.74443 10.9542 3.41424 11.4662 4.24281C11.9781 5.07137 12.2495 6.02602 12.25 7ZM1.75 7C1.74892 5.86669 2.11635 4.76374 2.79688 3.8575L10.1425 11.2031C9.36228 11.7861 8.43525 12.1406 7.4651 12.2269C6.49495 12.3132 5.51992 12.1279 4.64905 11.6917C3.77819 11.2556 3.04581 10.5858 2.53384 9.7572C2.02186 8.92863 1.75046 7.97398 1.75 7Z" fill="#CA8A04"/>
</svg>
