<svg xmlns="http://www.w3.org/2000/svg" width="22" height="24" viewBox="0 0 22 24">
    <g fill="none" fill-rule="evenodd">
        <path fill="#B8DCC5" d="M14.831 11.704c2.82 0 5.114 2.294 5.114 5.113v5.227c0 .163-.138.302-.302.302H7.82c-.164 0-.302-.139-.302-.302v-5.227c0-2.819 2.294-5.113 5.113-5.113h2.2zm-8.708 3.257c-.169.59-.26 1.213-.26 1.856v5.227c0 .102.009.203.024.302h-4.2c-.016 0-.033-.017-.033-.034v-3.65c0-2.04 1.661-3.7 3.702-3.7h.767zm.072-7.077c1.497 0 2.715 1.21 2.715 2.697 0 .216-.026.43-.076.637-.76.518-1.411 1.186-1.908 1.962-.236.066-.481.1-.731.1-1.497 0-2.715-1.211-2.715-2.699 0-1.487 1.218-2.697 2.715-2.697zm7.536-5.5c2.106 0 3.82 1.702 3.82 3.795 0 2.094-1.714 3.797-3.82 3.797s-3.82-1.703-3.82-3.797c0-2.093 1.714-3.796 3.82-3.796z"/>
        <path fill="#3CA160" d="M17.128 10.451c1.264-1 2.077-2.543 2.077-4.272 0-3.005-2.455-5.45-5.474-5.45-3.018 0-5.473 2.445-5.473 5.45 0 .197.01.392.03.584-.621-.34-1.335-.534-2.093-.534-2.41 0-4.37 1.953-4.37 4.352 0 1.252.534 2.38 1.385 3.175C1.322 14.585 0 16.472 0 18.663v3.65C0 23.242.757 24 1.688 24h17.955c1.079 0 1.956-.878 1.956-1.956v-5.227c0-2.926-1.867-5.424-4.471-6.366zM13.73 2.383c2.106 0 3.82 1.703 3.82 3.796 0 2.094-1.714 3.797-3.82 3.797s-3.82-1.703-3.82-3.797c0-2.093 1.714-3.796 3.82-3.796zm-7.536 5.5c1.497 0 2.715 1.21 2.715 2.698 0 .216-.026.43-.076.637-.76.518-1.411 1.186-1.908 1.962-.236.066-.481.1-.731.1-1.497 0-2.715-1.211-2.715-2.699 0-1.487 1.218-2.697 2.715-2.697zm-4.54 10.78c0-2.041 1.66-3.702 3.701-3.702h.767c-.169.59-.26 1.213-.26 1.856v5.227c0 .102.009.203.024.302h-4.2c-.016 0-.033-.017-.033-.034v-3.65zm18.29 3.38c0 .164-.138.303-.302.303H7.82c-.164 0-.302-.139-.302-.302v-5.227c0-2.819 2.294-5.113 5.113-5.113h2.2c2.82 0 5.114 2.294 5.114 5.113v5.227z"/>
    </g>
</svg>
