<svg xmlns="http://www.w3.org/2000/svg" width="12" height="12" viewBox="0 0 12 12">
    <g fill="none" fill-rule="evenodd">
        <g>
            <g>
                <g>
                    <g>
                        <g>
                            <g>
                                <g transform="translate(-1183 -248) translate(290 190) translate(174 19) translate(147 35) translate(432) translate(140 4)">
                                    <circle cx="6" cy="6" r="5.5" fill="#FFF" stroke="#1A1B29"/>
                                    <path fill="#1A1B29" fill-rule="nonzero" d="M5.72 2c.173 0 .315.048.425.145.11.097.165.23.165.4s-.072.323-.215.46c-.143.137-.305.205-.485.205s-.327-.053-.44-.16C5.057 2.943 5 2.803 5 2.63s.078-.322.235-.445C5.392 2.062 5.553 2 5.72 2zm.39 2.83v3.85c0 .193.083.323.25.39-.14.213-.313.32-.52.32-.373 0-.56-.233-.56-.7V4.85c0-.193-.083-.327-.25-.4.127-.213.3-.32.52-.32.373 0 .56.233.56.7z"/>
                                </g>
                            </g>
                        </g>
                    </g>
                </g>
            </g>
        </g>
    </g>
</svg>
