<svg xmlns="http://www.w3.org/2000/svg" width="16" height="16" viewBox="0 0 16 16">
    <g fill="none" fill-rule="evenodd">
        <g>
            <g>
                <g>
                    <path d="M0 0L24 0 24 24 0 24z" transform="translate(-1127 -452) translate(290 435) translate(833 13)"/>
                    <path fill="#71BA8B" d="M14.667 13.778l-.104.006c-.409.048-.73.37-.779.779l-.006.104V20h-8.89c-.49.001-.887-.394-.888-.883V4.883C4 4.396 4.396 4 4.883 4h14.234c.487 0 .883.397.883.888v8.89h-5.333zM20 15.556l-4.444 4.441v-4.441H20z" transform="translate(-1127 -452) translate(290 435) translate(833 13)"/>
                </g>
            </g>
        </g>
    </g>
</svg>
