<svg width="11" height="13" viewBox="0 0 11 13" fill="none" xmlns="http://www.w3.org/2000/svg">
<path d="M6.19318 9.81818V9.20455C6.19318 8.76515 6.28409 8.36364 6.46591 8C6.65152 7.63258 6.92045 7.33902 7.27273 7.11932C7.62879 6.89583 8.05871 6.78409 8.5625 6.78409C9.07765 6.78409 9.50947 6.89394 9.85795 7.11364C10.2064 7.33333 10.4697 7.62689 10.6477 7.99432C10.8295 8.36174 10.9205 8.76515 10.9205 9.20455V9.81818C10.9205 10.2576 10.8295 10.661 10.6477 11.0284C10.4659 11.392 10.1989 11.6856 9.84659 11.9091C9.49811 12.1288 9.07008 12.2386 8.5625 12.2386C8.05114 12.2386 7.61932 12.1288 7.26705 11.9091C6.91477 11.6856 6.64773 11.392 6.46591 11.0284C6.28409 10.661 6.19318 10.2576 6.19318 9.81818ZM7.51705 9.20455V9.81818C7.51705 10.1439 7.5947 10.4394 7.75 10.7045C7.9053 10.9697 8.17614 11.1023 8.5625 11.1023C8.94508 11.1023 9.21212 10.9697 9.36364 10.7045C9.51515 10.4394 9.59091 10.1439 9.59091 9.81818V9.20455C9.59091 8.87879 9.51705 8.58333 9.36932 8.31818C9.22538 8.05303 8.95644 7.92045 8.5625 7.92045C8.18371 7.92045 7.91477 8.05303 7.75568 8.31818C7.59659 8.58333 7.51705 8.87879 7.51705 9.20455ZM0.340909 3.15909V2.54545C0.340909 2.10606 0.431818 1.70265 0.613636 1.33523C0.799242 0.967803 1.06818 0.674242 1.42045 0.454545C1.77652 0.234848 2.20644 0.125 2.71023 0.125C3.22538 0.125 3.6572 0.234848 4.00568 0.454545C4.35417 0.674242 4.61742 0.967803 4.79545 1.33523C4.97348 1.70265 5.0625 2.10606 5.0625 2.54545V3.15909C5.0625 3.59848 4.97159 4.00189 4.78977 4.36932C4.61174 4.73295 4.34659 5.02652 3.99432 5.25C3.64583 5.4697 3.2178 5.57955 2.71023 5.57955C2.19508 5.57955 1.76136 5.4697 1.40909 5.25C1.06061 5.02652 0.795455 4.73295 0.613636 4.36932C0.431818 4.00189 0.340909 3.59848 0.340909 3.15909ZM1.67045 2.54545V3.15909C1.67045 3.48485 1.74621 3.7803 1.89773 4.04545C2.05303 4.31061 2.32386 4.44318 2.71023 4.44318C3.08902 4.44318 3.35417 4.31061 3.50568 4.04545C3.66098 3.7803 3.73864 3.48485 3.73864 3.15909V2.54545C3.73864 2.2197 3.66477 1.92424 3.51705 1.65909C3.36932 1.39394 3.10038 1.26136 2.71023 1.26136C2.33144 1.26136 2.0625 1.39394 1.90341 1.65909C1.74811 1.92424 1.67045 2.2197 1.67045 2.54545ZM0.880682 12L8.88068 0.363636H10.2386L2.23864 12H0.880682Z" fill="#9CA3AF"/>
</svg>
