<svg xmlns="http://www.w3.org/2000/svg" width="120" height="120">
    <g fill="none" fill-rule="evenodd">
        <path fill="#3CA160" d="M21 48.5v30H9v-3H1.5v-24H9v-3h12zM54.228 2.618c4.629-1.439 9.565 1.157 11.003 5.786.15.479.258.984.325 1.501.042.326.226.616.503.794.276.177.618.222.931.123.852-.268 1.74-.404 2.64-.404 4.848 0 8.792 3.944 8.792 8.791S74.478 28 69.63 28c-.9 0-1.789-.136-2.641-.404-.313-.099-.654-.053-.931.124s-.461.467-.503.793c-.067.518-.176 1.022-.325 1.501-.697 2.243-2.225 4.08-4.303 5.173s-4.458 1.31-6.7.614c-4.629-1.438-7.225-6.375-5.786-11.004.215-.691.515-1.355.89-1.973.21-.343.217-.771.02-1.121-.196-.35-.566-.567-.967-.567H31.138c-.614 0-1.11.497-1.11 1.11v6.33c0 1.063-.865 1.928-1.928 1.928s-1.928-.865-1.928-1.928v-6.33c0-.613-.497-1.11-1.11-1.11h-5.534c-.613 0-1.11.497-1.11 1.11v6.33c0 1.063-.864 1.928-1.927 1.928-1.063 0-1.928-.865-1.928-1.928v-6.33c0-.613-.497-1.11-1.11-1.11H9.148c-1.063 0-1.928-.864-1.928-1.927 0-1.063.865-1.928 1.928-1.928h39.236c.401 0 .771-.216.968-.566.197-.35.189-.779-.02-1.122-.376-.617-.675-1.28-.89-1.972-1.439-4.629 1.157-9.565 5.786-11.003zm4.083 20.042c-2.617-.813-5.407.655-6.22 3.271-.394 1.268-.271 2.613.347 3.788.618 1.175 1.656 2.039 2.924 2.432.489.153.984.225 1.471.225 2.12 0 4.088-1.368 4.749-3.495.394-1.268.27-2.613-.347-3.788-.618-1.175-1.657-2.039-2.924-2.433zm11.32-8.42c-2.74 0-4.97 2.229-4.97 4.97 0 2.74 2.23 4.969 4.97 4.969 2.74 0 4.969-2.23 4.969-4.97 0-2.74-2.23-4.97-4.97-4.97zM59.149 6.614c-1.175-.618-2.52-.74-3.787-.347-1.268.394-2.306 1.258-2.924 2.432-.618 1.175-.741 2.52-.347 3.788.394 1.268 1.258 2.306 2.432 2.924.724.38 1.512.573 2.307.573.496 0 .994-.075 1.481-.226 1.268-.394 2.306-1.258 2.924-2.433.617-1.175.74-2.52.347-3.787-.394-1.268-1.258-2.306-2.433-2.924zM86.52 49.85c.009 1.07-.558 2.063-1.483 2.6L50.023 72.617c-1.587.905-3.383 1.382-5.21 1.383H30.468c-2.785.007-5.458-1.1-7.423-3.075l-.546-.546v-15l8.485-4.713c2.38-1.329 5.186-1.674 7.817-.963l19.941 5.343c1.05.264 1.877 1.074 2.162 2.118.286 1.045-.014 2.163-.784 2.924-.77.762-1.89 1.05-2.932.752l-13.175-3.529c-.798-.21-1.616.265-1.83 1.063-.213.798.258 1.618 1.055 1.835l13.175 3.53c.51.136 1.035.206 1.563.207 1.637.018 3.208-.645 4.337-1.83 1.13-1.185 1.716-2.787 1.619-4.421l18.098-10.447c1.428-.82 3.25-.334 4.081 1.087.686 1.172.399.157.409 1.515z" transform="translate(15 25)"/>
        <path d="M88.72 46.85c.524.913.8 1.947.802 3 .01 2.056-1.037 3.966-2.762 5.063l-.219.133-35.025 20.172c-1.914 1.094-4.064 1.702-6.263 1.775l-.44.007H30.468c-2.738.003-5.408-.834-7.651-2.393l-.318-.228V78.5c0 .78-.595 1.42-1.356 1.493L21 80H9c-.78 0-1.42-.595-1.493-1.356L7.5 78.5V77h-6c-.78 0-1.42-.595-1.493-1.356L0 75.5v-24c0-.78.595-1.42 1.356-1.493L1.5 50h6v-1.5c0-.78.595-1.42 1.356-1.493L9 47h12c.78 0 1.42.595 1.493 1.356l.007.144v3.45l4.5-2.499c1.142-.634 6.335-2.601 7.5-2.938 1.166-.337 5.58.578 29.092 7.81C70.73 50.255 80.12 44.43 81 44.45c2.806-1.326 6.16-.283 7.72 2.4zM19.5 50h-9v27h9V50zm62.69-2.838l-.16.086-18.097 10.447c.097 1.634-.49 3.236-1.619 4.42-1.13 1.186-2.7 1.849-4.337 1.83-.423 0-.843-.045-1.256-.132l-.307-.075-13.175-3.529c-.797-.217-1.268-1.037-1.055-1.835.201-.75.938-1.216 1.69-1.093l.14.03 13.175 3.53c1.042.296 2.162.009 2.932-.753.77-.761 1.07-1.879.784-2.924-.267-.979-1.01-1.752-1.968-2.062l-.194-.056-19.941-5.343c-2.522-.682-5.203-.393-7.517.802l-.3.161-8.485 4.713v15l.546.546c1.886 1.896 4.425 2.992 7.09 3.071l.334.004h14.343c1.705 0 3.383-.416 4.89-1.208l.32-.175 35.014-20.168c.925-.536 1.492-1.529 1.484-2.599-.01-1.358.277-.343-.409-1.515-.8-1.368-2.52-1.87-3.921-1.173zM7.5 53H3v21h4.5V53zM15 69.5c.78 0 1.42.595 1.493 1.356L16.5 71v1.5c0 .828-.672 1.5-1.5 1.5-.78 0-1.42-.595-1.493-1.356L13.5 72.5V71c0-.828.672-1.5 1.5-1.5zM67.352 7.745c.066.214.127.432.18.654.69-.134 1.391-.201 2.099-.201 6.072 0 11.011 4.94 11.011 11.011 0 6.072-4.94 11.012-11.011 11.012-.708 0-1.41-.068-2.099-.2-.053.22-.114.438-.18.653-.873 2.808-2.787 5.109-5.39 6.478-1.604.843-3.35 1.27-5.112 1.27-1.099 0-2.203-.166-3.281-.5-5.798-1.802-9.05-7.985-7.248-13.784.082-.264.174-.524.276-.781h-14.35v5.22c0 2.286-1.86 4.147-4.147 4.147s-4.148-1.86-4.148-4.148v-5.22H20.64v5.22c0 2.287-1.861 4.148-4.148 4.148s-4.148-1.86-4.148-4.148v-5.22H9.148C6.86 23.357 5 21.497 5 19.21c0-2.288 1.86-4.148 4.148-4.148h37.448c-.1-.257-.193-.517-.275-.78C44.52 8.48 47.771 2.298 53.57.496c5.798-1.802 11.981 1.45 13.783 7.248zM54.228 2.618c-4.629 1.438-7.225 6.374-5.786 11.003.215.692.514 1.355.89 1.972.209.343.217.772.02 1.122-.197.35-.567.566-.968.566H9.148c-1.063 0-1.928.865-1.928 1.928s.865 1.927 1.928 1.927h4.305c.613 0 1.11.497 1.11 1.11v6.33c0 1.063.865 1.928 1.928 1.928s1.927-.865 1.927-1.928v-6.33c0-.613.497-1.11 1.11-1.11h5.534c.613 0 1.11.497 1.11 1.11v6.33c0 1.063.865 1.928 1.928 1.928s1.927-.865 1.927-1.928v-6.33c0-.613.497-1.11 1.11-1.11h17.248c.401 0 .771.217.968.567.196.35.189.778-.02 1.121-.376.618-.676 1.282-.891 1.973-1.439 4.63 1.157 9.566 5.786 11.004 2.242.697 4.622.479 6.7-.614 2.078-1.093 3.606-2.93 4.303-5.173.15-.479.258-.983.325-1.5.042-.327.226-.617.503-.794.277-.177.618-.223.931-.124.852.268 1.74.404 2.64.404 4.848 0 8.792-3.944 8.792-8.79 0-4.848-3.944-8.792-8.791-8.792-.9 0-1.789.136-2.641.404-.313.099-.655.054-.931-.123-.277-.178-.461-.468-.503-.794-.067-.517-.176-1.022-.325-1.501-1.438-4.63-6.374-7.225-11.003-5.786zm4.083 20.042c1.267.394 2.306 1.258 2.924 2.433.617 1.175.74 2.52.347 3.788-.661 2.127-2.63 3.495-4.749 3.495-.487 0-.982-.072-1.471-.225-1.268-.393-2.306-1.257-2.924-2.432-.618-1.175-.741-2.52-.347-3.788.813-2.616 3.603-4.084 6.22-3.27zm11.32-8.42c2.74 0 4.969 2.229 4.969 4.97 0 2.74-2.23 4.969-4.97 4.969-2.74 0-4.969-2.23-4.969-4.97 0-2.74 2.23-4.97 4.97-4.97zM59.149 6.614c1.175.618 2.039 1.656 2.433 2.924.394 1.267.27 2.612-.347 3.787-.618 1.175-1.656 2.039-2.924 2.433-.487.151-.985.226-1.48.226-.796 0-1.584-.193-2.308-.573-1.174-.618-2.038-1.656-2.432-2.924-.394-1.267-.27-2.613.347-3.788.618-1.174 1.656-2.038 2.924-2.432 1.267-.394 2.612-.27 3.787.347z" transform="translate(15 25)"/>
    </g>
</svg>
