<svg xmlns="http://www.w3.org/2000/svg" width="30" height="30" viewBox="0 0 30 30">
    <g fill="none" fill-rule="evenodd" opacity=".5">
        <circle cx="15" cy="15" r="14.5" stroke="#F4F5F7"/>
        <g>
            <path fill="#3CA160" d="M3.5 8.083v5h-2v-.5H.25v-4H1.5v-.5h2zM9.038.436c.771-.24 1.594.193 1.834.965.025.08.043.164.054.25.007.054.038.103.084.132.046.03.103.037.155.02.142-.044.29-.067.44-.067.808 0 1.465.658 1.465 1.466 0 .807-.657 1.465-1.465 1.465-.15 0-.298-.023-.44-.068-.052-.016-.11-.009-.155.021-.046.03-.077.078-.084.132-.011.086-.03.17-.054.25-.116.374-.371.68-.717.862-.347.183-.743.219-1.117.103-.771-.24-1.204-1.063-.964-1.834.035-.115.085-.226.148-.329.035-.057.036-.129.003-.187-.032-.058-.094-.094-.16-.094H5.19c-.103 0-.185.083-.185.185v1.055c0 .177-.145.32-.322.32-.177 0-.32-.143-.32-.32V3.708c0-.102-.084-.185-.186-.185h-.922c-.102 0-.185.083-.185.185v1.055c0 .177-.144.321-.322.321-.177 0-.32-.144-.32-.321V3.708c0-.102-.084-.185-.186-.185h-.717c-.177 0-.322-.144-.322-.322 0-.177.145-.32.322-.32h6.539c.067 0 .129-.037.161-.095.033-.059.032-.13-.003-.187-.063-.103-.113-.214-.148-.329-.24-.771.193-1.594.964-1.834zm.68 3.34c-.436-.135-.9.11-1.036.546-.066.211-.045.435.058.631.103.196.276.34.487.406.081.025.164.037.245.037.353 0 .681-.228.792-.583.065-.21.045-.435-.058-.63-.103-.197-.276-.34-.488-.406zm1.887-1.403c-.457 0-.828.372-.828.829 0 .456.371.828.828.828.457 0 .828-.372.828-.828 0-.457-.371-.829-.828-.829zm-1.747-1.27c-.196-.104-.42-.124-.631-.059-.211.066-.384.21-.487.406-.103.196-.124.42-.058.631.065.211.21.385.405.487.12.064.252.096.385.096.082 0 .165-.012.247-.038.21-.065.384-.21.487-.405.103-.196.123-.42.058-.631-.066-.212-.21-.385-.406-.488zM14.42 8.308c.001.179-.093.344-.247.434l-5.836 3.36c-.264.152-.564.231-.868.231h-2.39c-.465.002-.91-.183-1.238-.512l-.091-.091v-2.5l1.414-.786c.397-.221.864-.279 1.303-.16l3.324.89c.175.044.312.18.36.353.047.175-.002.36-.13.488-.13.127-.316.175-.49.125l-2.195-.588c-.133-.035-.27.044-.305.177-.036.133.043.27.176.306l2.195.588c.085.023.173.034.26.035.274.003.535-.108.724-.305.188-.198.286-.465.27-.737l3.016-1.741c.238-.137.541-.056.68.18.114.196.066.027.068.253z" transform="translate(7.5 9.167)"/>
            <path d="M14.787 7.808c.087.153.133.325.133.5.002.318-.148.614-.398.801l-.098.065-5.838 3.362c-.284.162-.598.26-.922.289l-.195.008h-2.39c-.42 0-.828-.116-1.181-.336l-.148-.1v.686c0 .119-.082.218-.193.244l-.057.006h-2c-.118 0-.217-.082-.243-.192l-.007-.058v-.25h-1c-.118 0-.217-.082-.243-.192L0 12.583v-4c0-.118.082-.217.193-.243l.057-.007h1v-.25c0-.118.082-.217.193-.243l.057-.007h2c.118 0 .217.083.243.193l.007.057v.575l.75-.416c.19-.106 1.056-.434 1.25-.49.194-.056.93.096 4.849 1.302 1.19-.678 2.754-1.649 2.901-1.646.468-.22 1.027-.047 1.287.4zM3.25 8.333h-1.5v4.5h1.5v-4.5zm-2 .5H.5v3.5h.75v-3.5zm12.503-.996l-.081.038-3.017 1.74c.017.273-.081.54-.27.738-.188.197-.45.308-.722.305-.059 0-.117-.006-.175-.016l-.086-.019-2.195-.588c-.133-.036-.212-.173-.176-.306.03-.114.135-.188.248-.185l.057.008 2.195.588c.174.05.36.002.49-.125.128-.127.177-.313.13-.488-.04-.145-.142-.263-.276-.323l-.085-.03-3.323-.89c-.384-.104-.79-.073-1.15.085l-.153.075-1.414.786v2.5l.091.09c.287.289.663.466 1.064.505l.173.008h2.39c.244 0 .485-.05.707-.148l.162-.082 5.836-3.361c.154-.09.248-.255.247-.434-.002-.226.046-.057-.068-.252-.123-.21-.377-.298-.599-.219zM2.5 11.583c.118 0 .217.083.243.193l.007.057v.25c0 .138-.112.25-.25.25-.118 0-.217-.082-.243-.192l-.007-.058v-.25c0-.138.112-.25.25-.25zm8.725-10.292c.011.036.021.072.03.109.115-.022.232-.034.35-.034 1.012 0 1.835.824 1.835 1.836s-.823 1.835-1.835 1.835c-.118 0-.235-.011-.35-.034-.009.037-.019.074-.03.11-.145.467-.464.85-.898 1.079-.267.14-.558.212-.852.212-.183 0-.367-.028-.547-.084-.966-.3-1.508-1.33-1.208-2.297.014-.044.03-.087.046-.13H5.375v.87c0 .38-.31.691-.692.691-.38 0-.691-.31-.691-.691v-.87H3.44v.87c0 .38-.31.691-.692.691-.38 0-.69-.31-.69-.691v-.87h-.533c-.382 0-.692-.31-.692-.692 0-.38.31-.69.692-.69h6.241c-.017-.044-.032-.087-.046-.131-.3-.966.242-1.997 1.208-2.297.967-.3 1.997.241 2.297 1.208zM9.038.436C8.267.676 7.834 1.5 8.074 2.27c.035.115.085.226.148.329.035.057.036.128.003.187-.032.058-.094.094-.161.094h-6.54c-.176 0-.32.144-.32.321 0 .178.144.322.32.322h.718c.102 0 .185.083.185.185v1.055c0 .177.144.321.321.321.178 0 .322-.144.322-.321V3.708c0-.102.083-.185.185-.185h.922c.102 0 .185.083.185.185v1.055c0 .177.144.32.321.32.177 0 .322-.143.322-.32V3.708c0-.102.082-.185.185-.185h2.874c.067 0 .129.036.161.094.033.058.032.13-.003.187-.063.103-.113.214-.148.329-.24.771.193 1.594.964 1.834.374.116.77.08 1.117-.103.346-.182.6-.488.717-.862.025-.08.043-.164.054-.25.007-.054.038-.103.084-.132.046-.03.103-.037.155-.02.142.044.29.067.44.067.808 0 1.465-.658 1.465-1.465 0-.808-.657-1.466-1.465-1.466-.15 0-.298.023-.44.068-.052.016-.11.009-.155-.02-.046-.03-.077-.079-.084-.133-.011-.086-.03-.17-.054-.25C10.632.629 9.809.197 9.038.436zm.68 3.34c.212.066.385.21.488.406.103.196.123.42.058.631-.11.355-.439.583-.792.583-.081 0-.164-.012-.245-.037-.211-.066-.384-.21-.487-.406-.103-.196-.124-.42-.058-.631.135-.436.6-.68 1.036-.545zm1.887-1.403c.457 0 .828.372.828.829 0 .456-.371.828-.828.828-.457 0-.828-.372-.828-.828 0-.457.371-.829.828-.829zm-1.747-1.27c.196.102.34.275.406.487.065.21.045.435-.058.63-.103.197-.276.34-.487.406-.082.026-.165.038-.247.038-.133 0-.264-.032-.385-.096-.196-.102-.34-.276-.405-.487-.066-.211-.045-.435.058-.631.103-.196.276-.34.487-.406.211-.065.435-.045.631.058z" transform="translate(7.5 9.167)"/>
        </g>
    </g>
</svg>
