<svg xmlns="http://www.w3.org/2000/svg" width="30" height="25" viewBox="0 0 30 25">
    <g fill="none" fill-rule="evenodd">
        <path fill="#B8DCC5" d="M27.113 14.4c0 1.032-.835 1.867-1.868 1.867h-9.941c-.183 0-.36.06-.507.17l-2.264 1.698V3.555c0-1.032.834-1.868 1.867-1.868h10.845c1.032 0 1.867.835 1.867 1.868V14.4z" transform="translate(1)"/>
        <path fill="#3CA160" fill-rule="nonzero" d="M19.947 13.777c0 .466-.378.844-.844.844-.466 0-.844-.378-.844-.844 0-.465.378-.843.844-.843.466 0 .844.378.844.843zM19.102 4.8C17.39 4.8 16 6.186 16 7.902v.001c0 .466.378.844.844.844.466 0 .843-.379.843-.845 0-.78.631-1.415 1.416-1.415.78 0 1.416.636 1.416 1.416 0 .78-.635 1.416-1.416 1.416-.466 0-.844.378-.844.843v.904c0 .466.378.844.844.844.466 0 .844-.378.844-.844v-.176c1.302-.369 2.26-1.568 2.26-2.987 0-1.711-1.393-3.103-3.105-3.103z" transform="translate(1)"/>
        <path fill="#3CA160" fill-rule="nonzero" d="M25.245 0H14.4c-1.963 0-3.555 1.589-3.555 3.555v16.267c0 .69.791 1.094 1.35.675l3.39-2.542h9.66c1.964 0 3.555-1.589 3.555-3.555V3.555C28.8 1.591 27.211 0 25.245 0zm1.867 14.4c0 1.032-.834 1.867-1.867 1.867h-9.941c-.183 0-.36.06-.507.17l-2.264 1.698V3.555c0-1.032.834-1.868 1.867-1.868h10.845c1.032 0 1.867.835 1.867 1.868V14.4z" transform="translate(1)"/>
        <path fill="#B8DCC5" stroke="#3CA160" stroke-width=".7" d="M5.65 17.123c2.178 0 3.95 1.851 3.95 4.127v2.506c0 .132-.107.244-.233.244H.233C.107 24 0 23.888 0 23.756V21.25c0-2.276 1.772-4.127 3.95-4.127h1.7zM4.8 9.6c1.627 0 2.95 1.374 2.95 3.064s-1.323 3.064-2.95 3.064c-1.627 0-2.95-1.375-2.95-3.064 0-1.69 1.323-3.064 2.95-3.064z" transform="translate(1)"/>
    </g>
</svg>
