<svg width="13" height="11" viewBox="0 0 13 11" fill="none" xmlns="http://www.w3.org/2000/svg">
<path d="M0.25 5.99926C0.25 5.80035 0.329018 5.60959 0.46967 5.46893C0.610322 5.32828 0.801088 5.24926 1 5.24926H5.25C5.44891 5.24926 5.63968 5.32828 5.78033 5.46893C5.92098 5.60959 6 5.80035 6 5.99926C6 6.19818 5.92098 6.38894 5.78033 6.52959C5.63968 6.67025 5.44891 6.74926 5.25 6.74926H1C0.801088 6.74926 0.610322 6.67025 0.46967 6.52959C0.329018 6.38894 0.25 6.19818 0.25 5.99926ZM1 2.74926H4.25C4.44891 2.74926 4.63968 2.67025 4.78033 2.52959C4.92098 2.38894 5 2.19818 5 1.99926C5 1.80035 4.92098 1.60959 4.78033 1.46893C4.63968 1.32828 4.44891 1.24926 4.25 1.24926H1C0.801088 1.24926 0.610322 1.32828 0.46967 1.46893C0.329018 1.60959 0.25 1.80035 0.25 1.99926C0.25 2.19818 0.329018 2.38894 0.46967 2.52959C0.610322 2.67025 0.801088 2.74926 1 2.74926ZM9.25 9.24926H1C0.801088 9.24926 0.610322 9.32828 0.46967 9.46893C0.329018 9.60959 0.25 9.80035 0.25 9.99926C0.25 10.1982 0.329018 10.3889 0.46967 10.5296C0.610322 10.6702 0.801088 10.7493 1 10.7493H9.25C9.44891 10.7493 9.63968 10.6702 9.78033 10.5296C9.92098 10.3889 10 10.1982 10 9.99926C10 9.80035 9.92098 9.60959 9.78033 9.46893C9.63968 9.32828 9.44891 9.24926 9.25 9.24926ZM12.5306 2.96864L10.0306 0.468638C9.96095 0.398718 9.87815 0.343241 9.78699 0.305387C9.69583 0.267533 9.59809 0.248047 9.49938 0.248047C9.40067 0.248047 9.30293 0.267533 9.21176 0.305387C9.1206 0.343241 9.0378 0.398718 8.96813 0.468638L6.46813 2.96864C6.32723 3.10953 6.24807 3.30063 6.24807 3.49989C6.24807 3.69915 6.32723 3.89024 6.46813 4.03114C6.60902 4.17203 6.80012 4.25119 6.99938 4.25119C7.19863 4.25119 7.38973 4.17203 7.53063 4.03114L8.75 2.81176V6.99926C8.75 7.19818 8.82902 7.38894 8.96967 7.52959C9.11032 7.67025 9.30109 7.74926 9.5 7.74926C9.69891 7.74926 9.88968 7.67025 10.0303 7.52959C10.171 7.38894 10.25 7.19818 10.25 6.99926V2.81176L11.4694 4.03176C11.5391 4.10153 11.622 4.15687 11.7131 4.19462C11.8043 4.23238 11.902 4.25181 12.0006 4.25181C12.0993 4.25181 12.197 4.23238 12.2881 4.19462C12.3793 4.15687 12.4621 4.10153 12.5319 4.03176C12.6016 3.962 12.657 3.87918 12.6947 3.78802C12.7325 3.69687 12.7519 3.59918 12.7519 3.50051C12.7519 3.40185 12.7325 3.30415 12.6947 3.213C12.657 3.12185 12.6016 3.03903 12.5319 2.96926L12.5306 2.96864Z" fill="#9CA3AF"/>
</svg>
