<svg width="16" height="16" viewBox="0 0 16 16" fill="none" xmlns="http://www.w3.org/2000/svg">
<path d="M10.834 7H13.834C14.0992 7 14.3536 6.89464 14.5411 6.70711C14.7286 6.51957 14.834 6.26522 14.834 6V3C14.834 2.73478 14.7286 2.48043 14.5411 2.29289C14.3536 2.10536 14.0992 2 13.834 2H10.834C10.5688 2 10.3144 2.10536 10.1269 2.29289C9.93934 2.48043 9.83398 2.73478 9.83398 3V4H8.83398C8.43616 4 8.05463 4.15804 7.77332 4.43934C7.49202 4.72064 7.33398 5.10218 7.33398 5.5V7.5H5.33398V7C5.33398 6.73478 5.22863 6.48043 5.04109 6.29289C4.85355 6.10536 4.5992 6 4.33398 6H2.33398C2.06877 6 1.81441 6.10536 1.62688 6.29289C1.43934 6.48043 1.33398 6.73478 1.33398 7V9C1.33398 9.26522 1.43934 9.51957 1.62688 9.70711C1.81441 9.89464 2.06877 10 2.33398 10H4.33398C4.5992 10 4.85355 9.89464 5.04109 9.70711C5.22863 9.51957 5.33398 9.26522 5.33398 9V8.5H7.33398V10.5C7.33398 10.8978 7.49202 11.2794 7.77332 11.5607C8.05463 11.842 8.43616 12 8.83398 12H9.83398V13C9.83398 13.2652 9.93934 13.5196 10.1269 13.7071C10.3144 13.8946 10.5688 14 10.834 14H13.834C14.0992 14 14.3536 13.8946 14.5411 13.7071C14.7286 13.5196 14.834 13.2652 14.834 13V10C14.834 9.73478 14.7286 9.48043 14.5411 9.29289C14.3536 9.10536 14.0992 9 13.834 9H10.834C10.5688 9 10.3144 9.10536 10.1269 9.29289C9.93934 9.48043 9.83398 9.73478 9.83398 10V11H8.83398C8.70138 11 8.5742 10.9473 8.48043 10.8536C8.38666 10.7598 8.33398 10.6326 8.33398 10.5V5.5C8.33398 5.36739 8.38666 5.24021 8.48043 5.14645C8.5742 5.05268 8.70138 5 8.83398 5H9.83398V6C9.83398 6.26522 9.93934 6.51957 10.1269 6.70711C10.3144 6.89464 10.5688 7 10.834 7ZM4.33398 9H2.33398V7H4.33398V9ZM10.834 10H13.834V13H10.834V10ZM10.834 3H13.834V6H10.834V3Z" fill="#4B5563"/>
</svg>
