<?xml version="1.0" encoding="UTF-8"?>
<svg width="16px" height="15px" viewBox="0 0 16 15" version="1.1" xmlns="http://www.w3.org/2000/svg" xmlns:xlink="http://www.w3.org/1999/xlink">
    <!-- Generator: Sketch 59.1 (86144) - https://sketch.com -->
    <title>unlike</title>
    <desc>Created with Sketch.</desc>
    <g id="Renter-Portal-" stroke="none" stroke-width="1" fill="none" fill-rule="evenodd">
        <g id="Dashboard-03" transform="translate(-1185.000000, -453.000000)">
            <g id="card-view-copy-5" transform="translate(290.000000, 435.000000)">
                <g id="unlike" transform="translate(891.000000, 13.000000)">
                    <polygon id="Path" points="0 0 24 0 24 24 0 24"></polygon>
                    <path d="M4.72727269,10.7017888 L6.90909077,10.7017888 L6.90909077,19.4290611 L4.72727269,19.4290611 C4.32561108,19.4290611 4,19.10345 4,18.7017888 L4,11.4290615 C4,11.0273998 4.32561108,10.7017888 4.72727269,10.7017888 Z M8.57672705,9.76142518 L13.2312723,5.10687995 C13.3591744,4.97861008 13.5619793,4.96403541 13.7069086,5.07269813 L14.3272722,5.53815265 C14.6795856,5.80263837 14.8382415,6.25307185 14.729454,6.67997078 L13.8909086,9.97451608 L18.5454538,9.97451608 C19.3487771,9.97451608 20,10.6257382 20,11.4290615 L20,12.9592432 C20.0001953,13.149324 19.9631331,13.3376003 19.8909083,13.513425 L17.6399993,18.9788793 C17.5276999,19.251397 17.2620212,19.4290611 16.9672721,19.4290611 L9.09090884,19.4290611 C8.68924723,19.4290611 8.36363615,19.10345 8.36363615,18.7017884 L8.36363615,10.275607 C8.36363615,10.082738 8.44032751,9.89778352 8.57672705,9.76142518 Z" id="Shape" fill="#A9A9A9" fill-rule="nonzero" transform="translate(12.000000, 12.214531) scale(-1, -1) translate(-12.000000, -12.214531) "></path>
                </g>
            </g>
        </g>
    </g>
</svg>