<svg xmlns="http://www.w3.org/2000/svg" width="43" height="54" viewBox="0 0 43 54">
    <g fill="#3CA160" fill-rule="evenodd">
        <path d="M29.248.417c-.249-.26-.59-.417-.944-.417H7.132C3.225 0 0 3.196 0 7.082v39.835C0 50.804 3.225 54 7.132 54h28.736C39.775 54 43 50.804 43 46.917v-31.63c0-.34-.157-.665-.38-.913L29.248.417zm.38 4.187l8.954 9.352h-5.82c-1.731 0-3.134-1.382-3.134-3.104V4.604zm6.24 46.787H7.132c-2.452 0-4.51-2.021-4.51-4.474V7.082c0-2.438 2.045-4.473 4.51-4.473h19.874v8.243c0 3.17 2.57 5.713 5.755 5.713h7.617v30.352c0 2.453-2.045 4.474-4.51 4.474z"/>
        <path d="M31.687 42H10.3C9.585 42 9 42.675 9 43.5s.585 1.5 1.3 1.5h21.4c.715 0 1.3-.675 1.3-1.5s-.585-1.5-1.313-1.5zM14.294 28.31l5.407-5.73v14.126c0 .712.59 1.294 1.312 1.294.722 0 1.312-.582 1.312-1.294V22.58l5.407 5.732c.262.27.604.413.958.413.315 0 .643-.116.892-.349.525-.491.565-1.307.066-1.824l-7.69-8.137c-.25-.259-.59-.414-.958-.414s-.709.155-.958.414l-7.69 8.137c-.499.517-.46 1.345.066 1.824.55.492 1.377.453 1.876-.064z"/>
    </g>
</svg>
