<svg width="16" height="16" viewBox="0 0 16 16" fill="none" xmlns="http://www.w3.org/2000/svg">
<path d="M7.83399 1.33398C6.54841 1.33398 5.2917 1.7152 4.22278 2.42943C3.15386 3.14366 2.32074 4.15882 1.82877 5.34654C1.3368 6.53426 1.20808 7.8412 1.45888 9.10207C1.70969 10.3629 2.32875 11.5211 3.23779 12.4302C4.14683 13.3392 5.30502 13.9583 6.5659 14.2091C7.82678 14.4599 9.13371 14.3312 10.3214 13.8392C11.5091 13.3472 12.5243 12.5141 13.2385 11.4452C13.9528 10.3763 14.334 9.11956 14.334 7.83398C14.3322 6.11064 13.6468 4.45839 12.4282 3.2398C11.2096 2.02121 9.55734 1.3358 7.83399 1.33398ZM4.46399 12.1777C4.8257 11.612 5.32399 11.1465 5.91294 10.824C6.50189 10.5015 7.16253 10.3325 7.83399 10.3325C8.50544 10.3325 9.16609 10.5015 9.75504 10.824C10.344 11.1465 10.8423 11.612 11.204 12.1777C10.2404 12.9271 9.05463 13.3339 7.83399 13.3339C6.61335 13.3339 5.42753 12.9271 4.46399 12.1777ZM5.83399 7.33398C5.83399 6.93842 5.95129 6.55174 6.17105 6.22284C6.39081 5.89395 6.70317 5.6376 7.06862 5.48623C7.43407 5.33485 7.83621 5.29524 8.22417 5.37241C8.61213 5.44958 8.9685 5.64007 9.2482 5.91977C9.52791 6.19948 9.71839 6.55584 9.79556 6.9438C9.87273 7.33177 9.83312 7.7339 9.68175 8.09935C9.53037 8.4648 9.27403 8.77716 8.94513 8.99692C8.61623 9.21669 8.22955 9.33398 7.83399 9.33398C7.30355 9.33398 6.79485 9.12327 6.41977 8.7482C6.0447 8.37312 5.83399 7.86442 5.83399 7.33398ZM11.944 11.4846C11.3863 10.6765 10.6022 10.0514 9.69024 9.68773C10.1801 9.30189 10.5376 8.77297 10.7129 8.17454C10.8883 7.57612 10.8728 6.93792 10.6686 6.3487C10.4644 5.75948 10.0817 5.24854 9.5737 4.88692C9.06567 4.52529 8.45758 4.33097 7.83399 4.33097C7.2104 4.33097 6.60231 4.52529 6.09428 4.88692C5.58625 5.24854 5.20353 5.75948 4.99935 6.3487C4.79518 6.93792 4.77968 7.57612 4.95503 8.17454C5.13038 8.77297 5.48785 9.30189 5.97774 9.68773C5.06575 10.0514 4.28163 10.6765 3.72399 11.4846C3.01934 10.6922 2.55878 9.71301 2.39777 8.66492C2.23675 7.61683 2.38214 6.54454 2.81644 5.57717C3.25073 4.6098 3.95541 3.7886 4.84561 3.21244C5.73582 2.63629 6.7736 2.32976 7.83399 2.32976C8.89437 2.32976 9.93215 2.63629 10.8224 3.21244C11.7126 3.7886 12.4172 4.6098 12.8515 5.57717C13.2858 6.54454 13.4312 7.61683 13.2702 8.66492C13.1092 9.71301 12.6486 10.6922 11.944 11.4846Z" fill="#4B5563"/>
</svg>
