<svg xmlns="http://www.w3.org/2000/svg" width="30" height="30" viewBox="0 0 30 30">
    <path fill="#3CA160" fill-rule="evenodd" d="M25.294 7.535c1.19 0 2.157.967 2.162 2.157v7.122c-.005 1.19-.966 2.157-2.157 2.157H4.657c-1.19 0-2.157-.967-2.157-2.152V9.692c0-1.19.967-2.157 2.157-2.157zM7.178 16.892H3.545c.041.582.525 1.04 1.112 1.04h2.521v-1.04zm4.159 0H8.218v1.04h3.119v-1.04zm5.718 0h-4.678v1.04h4.678v-1.04zm4.678 0h-3.638v1.04h3.638v-1.04zm4.673 0h-3.633v1.04h2.521c.587 0 1.07-.458 1.112-1.04zM25.3 8.575H4.657c-.618 0-1.117.499-1.117 1.117v6.16h22.877v-6.16c0-.618-.5-1.117-1.118-1.117zm-.967 2.079c.286 0 .52.234.52.52 0 .286-.234.52-.52.52h-2.599c-.286 0-.52-.234-.52-.52 0-.286.234-.52.52-.52z"/>
</svg>
