<svg xmlns="http://www.w3.org/2000/svg" width="24" height="24" viewBox="0 0 24 24">
    <path fill="#FFF" fill-rule="evenodd" d="M20.561 11.22H4.951V4.64c0-.444.414-.835.886-.835h1.631c.46 0 .832.375.835.832-.76.19-1.4.893-1.4 1.635v1.046c0 .214.175.39.39.39h2.731c.215 0 .39-.176.39-.39V6.272c0-.754-.596-1.444-1.33-1.632 0-.89-.722-1.615-1.616-1.615h-1.63c-.902 0-1.667.741-1.667 1.615v6.58c-.644-.004-1.167.519-1.171 1.163 0 .336.14.652.39.874v2.045c0 1.588.707 2.95 1.85 3.836L4.6 20.41c-.098.191-.02.426.176.523.19.098.425.02.523-.176l.6-1.198c.789.422 1.67.64 2.564.633h7.805c.894.007 1.776-.211 2.564-.633l.601 1.198c.098.192.332.27.523.176.191-.094.27-.332.176-.523l-.64-1.276c1.143-.882 1.85-2.248 1.85-3.836v-2.045c.245-.215.39-.53.39-.862 0-.648-.523-1.171-1.171-1.171zM8.694 5.366c.464 0 .94.457.94.906v.655H7.683v-.655c0-.433.527-.906 1.01-.906zm11.867 9.936c0 2.345-1.846 4.113-4.293 4.113H8.463c-2.446 0-4.292-1.768-4.292-4.113v-1.74h16.39v1.74zm0-2.521H4.182c-.195 0-.37-.14-.398-.332-.035-.242.153-.449.387-.449h16.378c.195 0 .371.14.398.332.035.242-.152.449-.386.449z"/>
</svg>
