<svg xmlns="http://www.w3.org/2000/svg" width="25" height="24" viewBox="0 0 25 24">
    <path fill="#FFF" fill-rule="evenodd" d="M20.273 11.052v-5.13c0-1.043-.848-1.892-1.892-1.892H7.911c-1.043 0-1.892.85-1.892 1.892v5.13c-1.202.29-2.098 1.373-2.098 2.662v3.827c0 .303.246.55.55.55h1.548v1.329c0 .303.246.55.55.55.303 0 .55-.247.55-.55v-1.33h12.055v1.33c0 .303.246.55.55.55.303 0 .55-.247.55-.55v-1.33h1.548c.303 0 .55-.246.55-.55v-3.826c0-1.289-.897-2.373-2.099-2.662zM7.118 5.922c0-.437.356-.792.793-.792h10.47c.437 0 .793.355.793.792v5.054h-1.816v-.867c0-1.437-1.17-2.606-2.606-2.606h-3.211c-1.437 0-2.606 1.17-2.606 2.606v.867H7.118V5.922zm9.14 4.187v.867h-6.224v-.867c0-.83.676-1.506 1.506-1.506h3.212c.83 0 1.506.675 1.506 1.506zM5.02 16.99v-3.277c0-.903.736-1.639 1.64-1.639h12.973c.904 0 1.64.736 1.64 1.64v3.276H5.02z"/>
</svg>
