<svg xmlns="http://www.w3.org/2000/svg" width="24" height="24" viewBox="0 0 24 24">
    <path d="M16.063 4c.345 0 .625.28.625.625v.625h.812c1.379 0 2.5 1.122 2.5 2.5v9.75c0 1.379-1.121 2.5-2.5 2.5h-11C5.121 20 4 18.879 4 17.5V7.75c0-1.378 1.121-2.5 2.5-2.5h.781v-.625c0-.345.28-.625.625-.625s.625.28.625.625v.625h2.813v-.625c0-.345.28-.625.625-.625s.625.28.625.625v.625h2.844v-.625c0-.345.28-.625.624-.625zM7.28 6.5H6.5c-.69 0-1.25.56-1.25 1.25v9.75c0 .69.56 1.25 1.25 1.25h11c.69 0 1.25-.56 1.25-1.25V7.75c0-.69-.56-1.25-1.25-1.25h-.813v.625c0 .345-.28.625-.625.625s-.625-.28-.625-.625V6.5h-2.843v.625c0 .345-.28.625-.625.625s-.625-.28-.625-.625V6.5H8.53v.625c0 .345-.28.625-.625.625s-.625-.28-.625-.625V6.5zm11.75 11H20c-.007-.003-.603 0-.97 0zm-3.593-4.844c.689 0 1.25.561 1.25 1.25v1.469c0 .69-.561 1.25-1.25 1.25h-1.47c-.688 0-1.25-.56-1.25-1.25v-1.469c0-.689.562-1.25 1.25-1.25zm-7.532 2.719c.345 0 .625.28.625.625s-.28.625-.625.625-.625-.28-.625-.625.28-.625.625-.625zm2.719 0c.345 0 .625.28.625.625s-.28.625-.625.625S10 16.345 10 16s.28-.625.625-.625zm4.813-1.469h-1.47v1.469h1.47v-1.469zm-7.532-1.25c.345 0 .625.28.625.625s-.28.625-.625.625-.625-.28-.625-.625.28-.625.625-.625zm2.719 0c.345 0 .625.28.625.625s-.28.625-.625.625-.625-.28-.625-.625.28-.625.625-.625zm5.438-2.719c.345 0 .625.28.625.626 0 .345-.28.624-.625.624-.346 0-.625-.28-.625-.624 0-.346.28-.626.624-.626zm-2.72 0c.346 0 .626.28.626.626 0 .345-.28.624-.625.624s-.625-.28-.625-.624c0-.346.28-.626.625-.626zm-5.437 0c.345 0 .625.28.625.626 0 .345-.28.624-.625.624s-.625-.28-.625-.624c0-.346.28-.626.625-.626zm2.719 0c.345 0 .625.28.625.626 0 .345-.28.624-.625.624s-.625-.28-.625-.624c0-.346.28-.626.625-.626z"/>
</svg>
