<svg xmlns="http://www.w3.org/2000/svg" width="30" height="30" viewBox="0 0 30 30">
    <path fill="#3CA160" fill-rule="evenodd" d="M24.315 1.25c1.111 0 2.016.904 2.016 2.016v9.728c.99 1.027 1.613 2.596 1.613 4.385 0 .271-.02.54-.049.806h.855v1.21c0 1.112-.904 2.016-2.016 2.016h-.403v2.823c0 1.112-.905 2.016-2.016 2.016H5.766c-1.112 0-2.016-.904-2.016-2.016V3.266c0-1.112.904-2.016 2.016-2.016zm-14.92.806H5.766c-.667 0-1.21.543-1.21 1.21v20.968c0 .667.543 1.21 1.21 1.21h3.63V2.056zm16.13 19.355H10.201v4.033h14.113c.666 0 1.21-.543 1.21-1.21V21.41zm-16.936 2.42v.806h-.807v-.806h.807zm16.129-1.613v.806h-.807v-.806h.807zm-3.226 0v.806h-.807v-.806h.807zm-12.903 0v.806h-.807v-.806h.807zm14.516 0v.806h-.807v-.806h.807zM8.589 20.605v.806h-.807v-.806h.807zm19.355-1.613h-8.871v.403c0 .667.542 1.21 1.21 1.21h6.45c.668 0 1.21-.543 1.21-1.21v-.403zm-9.678 0h-8.064v1.613h8.478c-.256-.338-.414-.754-.414-1.21v-.403zm5.242-6.452c-2.035 0-3.629 2.126-3.629 4.839 0 .272.022.54.054.806h.815c-.038-.264-.063-.533-.063-.806 0-2.26 1.24-4.032 2.823-4.032s2.823 1.771 2.823 4.032c0 .273-.025.542-.063.806h.815c.032-.265.054-.534.054-.806 0-2.713-1.594-4.839-3.629-4.839zm0 1.613c-1.093 0-2.016 1.477-2.016 3.226 0 .275.03.543.073.806h3.886c.044-.263.073-.531.073-.806 0-1.749-.923-3.226-2.016-3.226zM18.67 12.54c-2.035 0-3.629 2.126-3.629 4.839 0 .272.023.541.055.806h1.607c-.029-.266-.049-.535-.049-.806 0-2.077.842-3.854 2.122-4.834-.035-.001-.07-.005-.106-.005zm-2.419 0c-2.035 0-3.629 2.126-3.629 4.839 0 .272.022.541.054.806h1.607c-.028-.266-.048-.535-.048-.806 0-2.077.842-3.854 2.122-4.834-.035-.001-.07-.005-.106-.005zm-2.42 0c-2.034 0-3.628 2.126-3.628 4.839v.806h1.66c-.028-.266-.047-.535-.047-.806 0-2.077.841-3.854 2.122-4.834-.036-.001-.07-.005-.106-.005zm7.259 0c-2.035 0-3.63 2.126-3.63 4.839 0 .272.023.541.055.806h1.607c-.029-.266-.048-.535-.048-.806 0-2.077.842-3.854 2.122-4.834-.036-.001-.07-.005-.106-.005zm4.435-3.225H10.202V14.1c.796-1.44 2.11-2.367 3.629-2.367.414 0 .82.073 1.212.21.383-.134.786-.21 1.207-.21.415 0 .82.073 1.212.21.383-.134.787-.21 1.207-.21.415 0 .82.073 1.212.21.384-.134.787-.21 1.208-.21.414 0 .82.073 1.212.21.383-.134.787-.21 1.207-.21.732 0 1.414.22 2.016.602V9.315zm0-4.84H10.202v4.033h15.322V4.476zm-13.306.807c.667 0 1.21.543 1.21 1.21 0 .667-.543 1.21-1.21 1.21-.667 0-1.21-.543-1.21-1.21 0-.667.543-1.21 1.21-1.21zm11.693 0c.445 0 .807.362.807.807v.806c0 .445-.362.807-.807.807h-8.87c-.445 0-.807-.362-.807-.807V6.09c0-.445.362-.807.806-.807zm-11.693.807c-.222 0-.403.18-.403.403 0 .222.18.403.403.403.222 0 .403-.18.403-.403 0-.222-.181-.403-.403-.403zm6.855 0H17.46v.806h1.613V6.09zm2.419 0h-1.613v.806h1.613V6.09zm2.42 0h-1.614v.806h1.614V6.09zm-7.259 0H15.04v.806h1.613V6.09zm-10.484 0v.806h-.806V6.09h.806zm0-1.613v.806h-.806v-.806h.806zm18.146-2.42H10.202V3.67h15.322v-.403c0-.667-.543-1.21-1.21-1.21zm-18.146.807v.806h-.806v-.806h.806z"/>
</svg>
