<svg xmlns="http://www.w3.org/2000/svg" width="40" height="40" viewBox="0 0 40 40">
    <g fill="none" fill-rule="evenodd">
        <g>
            <g>
                <g>
                    <g>
                        <g>
                            <g>
                                <path fill="#FFF" d="M7 16.167v10H3v-1H.5v-8H3v-1h4zM18.076.873c1.543-.48 3.188.385 3.668 1.928.05.16.086.328.108.5.014.11.075.206.168.265.092.06.206.074.31.041.284-.089.58-.134.88-.134 1.616 0 2.93 1.314 2.93 2.93s-1.314 2.93-2.93 2.93c-.3 0-.596-.045-.88-.134-.104-.033-.218-.018-.31.04-.093.06-.154.157-.168.265-.022.173-.059.341-.108.5-.233.748-.742 1.36-1.435 1.725-.692.364-1.486.437-2.233.205-1.543-.48-2.408-2.125-1.929-3.668.072-.23.172-.452.297-.658.07-.114.072-.257.007-.374-.066-.116-.189-.189-.323-.189H10.38c-.204 0-.37.166-.37.37v2.11c0 .355-.288.643-.642.643-.355 0-.643-.288-.643-.643v-2.11c0-.204-.166-.37-.37-.37H6.51c-.204 0-.37.166-.37.37v2.11c0 .355-.288.643-.642.643-.354 0-.643-.288-.643-.643v-2.11c0-.204-.165-.37-.37-.37H3.05c-.354 0-.642-.288-.642-.642 0-.354.288-.643.642-.643h13.079c.134 0 .257-.072.323-.188.065-.117.063-.26-.007-.374-.125-.206-.225-.427-.297-.658-.48-1.543.386-3.188 1.929-3.667zm1.361 6.68c-.872-.27-1.802.219-2.073 1.09-.132.423-.09.872.115 1.263.206.392.552.68.975.811.163.05.328.075.49.075.707 0 1.363-.456 1.583-1.165.132-.423.09-.871-.115-1.263-.206-.391-.553-.68-.975-.81zm3.773-2.806c-.913 0-1.656.743-1.656 1.656 0 .913.743 1.657 1.656 1.657.914 0 1.657-.744 1.657-1.657s-.743-1.656-1.657-1.656zm-3.494-2.542c-.391-.206-.84-.247-1.262-.116-.423.131-.769.42-.975.81-.206.392-.247.84-.115 1.263.13.423.419.769.81.975.242.127.504.191.77.191.165 0 .33-.025.493-.075.423-.132.769-.42.975-.811.205-.392.247-.84.115-1.263-.131-.422-.419-.768-.81-.974zM28.84 16.617c.003.356-.186.687-.494.866l-11.672 6.723c-.529.301-1.127.46-1.736.46h-4.782c-.928.003-1.82-.366-2.474-1.024L7.5 23.46v-5l2.829-1.571c.793-.443 1.728-.558 2.605-.321l6.647 1.78c.35.089.626.359.72.707.096.348-.004.72-.26.974-.257.254-.63.35-.978.251l-4.391-1.176c-.267-.07-.54.088-.61.354-.072.266.085.54.351.612l4.392 1.176c.17.046.345.069.52.07.546.005 1.07-.216 1.446-.61.377-.396.572-.93.54-1.474l6.032-3.483c.477-.273 1.084-.111 1.361.363.229.39.133.052.136.505z" transform="translate(-48 -519) translate(0 491) translate(48 28) translate(5 8.333)"/>
                                <path fill="#3CA160" d="M29.573 15.617c.175.304.267.649.268 1 .003.659-.32 1.273-.856 1.644l-.138.088-11.675 6.724c-.605.345-1.28.546-1.974.586l-.26.008h-4.782c-.869 0-1.717-.253-2.442-.725l-.214-.149v1.374c0 .245-.177.45-.41.492l-.09.008H3c-.245 0-.45-.177-.492-.41l-.008-.09v-.5h-2c-.245 0-.45-.177-.492-.41L0 25.167v-8c0-.246.177-.45.41-.492l.09-.008h2v-.5c0-.246.177-.45.41-.492l.09-.008h4c.245 0 .45.177.492.41l.008.09v1.15l1.5-.833c.38-.212 2.112-.867 2.5-.98.389-.112 1.86.193 9.697 2.604 2.38-1.356 5.51-3.298 5.803-3.291.935-.442 2.053-.095 2.573.8zM6.5 16.667h-3v9h3v-9zm-4 1H1v7h1.5v-7zm24.947-1.97l-.104.052-6.032 3.483c.032.544-.163 1.078-.54 1.473-.376.395-.9.616-1.445.61-.118 0-.235-.01-.35-.03l-.171-.039-4.392-1.176c-.266-.073-.423-.346-.352-.612.064-.236.286-.388.522-.37l.088.016 4.392 1.176c.347.1.72.003.977-.25.257-.254.357-.627.262-.975-.085-.31-.312-.557-.607-.67l-.114-.036-6.647-1.781c-.804-.218-1.657-.139-2.404.217l-.201.104-2.829 1.57v5l.182.183c.604.607 1.41.969 2.261 1.019l.213.006h4.781c.534 0 1.058-.122 1.536-.355l.201-.106 11.672-6.723c.308-.179.497-.51.494-.866-.003-.453.093-.115-.136-.505-.257-.44-.8-.611-1.257-.415zM5 23.167c.245 0 .45.177.492.41l.008.09v.5c0 .276-.224.5-.5.5-.245 0-.45-.177-.492-.41l-.008-.09v-.5c0-.276.224-.5.5-.5zM22.45 2.582c.023.071.043.144.06.218.23-.045.464-.067.7-.067 2.024 0 3.67 1.646 3.67 3.67s-1.646 3.67-3.67 3.67c-.236 0-.47-.022-.7-.066-.017.073-.037.146-.06.218-.29.936-.928 1.703-1.796 2.159-.535.281-1.117.424-1.704.424-.366 0-.734-.056-1.094-.168-1.932-.6-3.016-2.661-2.416-4.594.028-.088.058-.175.092-.26H10.75v1.74c0 .762-.62 1.382-1.382 1.382-.763 0-1.383-.62-1.383-1.383v-1.74H6.88v1.74c0 .763-.62 1.383-1.383 1.383-.762 0-1.383-.62-1.383-1.383v-1.74H3.05c-.762 0-1.382-.62-1.382-1.382 0-.763.62-1.383 1.382-1.383h12.483c-.034-.085-.064-.172-.092-.26-.6-1.933.484-3.994 2.416-4.594 1.933-.601 3.994.483 4.595 2.416zM18.077.872c-1.543.48-2.408 2.125-1.929 3.668.072.23.172.452.297.658.07.114.072.257.007.374-.066.116-.19.188-.323.188H3.049c-.354 0-.642.289-.642.643 0 .354.288.642.642.642h1.435c.205 0 .37.166.37.37v2.11c0 .355.289.643.643.643.354 0 .642-.288.642-.643v-2.11c0-.204.166-.37.37-.37h1.845c.204 0 .37.166.37.37v2.11c0 .355.288.643.643.643.354 0 .642-.288.642-.643v-2.11c0-.204.166-.37.37-.37h5.75c.133 0 .256.073.322.19.065.116.063.259-.007.373-.125.206-.225.427-.297.658-.48 1.543.386 3.188 1.929 3.668.747.232 1.54.16 2.233-.205.693-.364 1.202-.977 1.435-1.724.05-.16.086-.328.108-.5.014-.11.075-.206.168-.265.092-.06.206-.074.31-.041.284.089.58.134.88.134 1.616 0 2.93-1.314 2.93-2.93s-1.314-2.93-2.93-2.93c-.3 0-.596.045-.88.134-.104.033-.218.018-.31-.04-.093-.06-.154-.157-.168-.265-.022-.173-.059-.341-.108-.5-.48-1.544-2.125-2.409-3.668-1.93zm1.361 6.681c.422.132.769.42.975.811.205.392.247.84.115 1.263-.22.709-.876 1.165-1.583 1.165-.162 0-.327-.024-.49-.075-.423-.131-.769-.42-.975-.81-.206-.392-.247-.84-.115-1.263.27-.872 1.2-1.362 2.073-1.09zm3.773-2.806c.914 0 1.657.743 1.657 1.656 0 .913-.743 1.657-1.657 1.657-.913 0-1.656-.744-1.656-1.657s.743-1.656 1.656-1.656zm-3.494-2.542c.392.206.68.552.811.974.132.423.09.871-.115 1.263-.206.391-.552.68-.975.81-.162.051-.328.076-.494.076-.265 0-.527-.064-.769-.191-.391-.206-.68-.552-.81-.975-.132-.422-.09-.87.115-1.262.206-.392.552-.68.975-.811.422-.131.87-.09 1.262.116z" transform="translate(-48 -519) translate(0 491) translate(48 28) translate(5 8.333)"/>
                            </g>
                        </g>
                    </g>
                </g>
            </g>
        </g>
    </g>
</svg>
