<svg xmlns="http://www.w3.org/2000/svg" width="200" height="43" viewBox="0 0 200 43">
    <g fill="none" fill-rule="evenodd">
        <path fill="#000" d="M17.122 16.389L13.359 5.372c-.355-.977-.71-2.523-.71-2.523s-.356 1.546-.71 2.523l-3.835 11.06 9.018-.043zM12.436 0h.426l9.805 28h-1.492l-3.52-10.146-10.048.043L4.123 28H2.667l9.769-28zM98.455 16.389L94.693 5.372c-.355-.977-.71-2.523-.71-2.523s-.356 1.546-.711 2.523l-3.835 11.06 9.018-.043zM93.77 0h.426L104 28h-1.492l-3.52-10.146-10.048.043L85.456 28H84l9.77-28zM38.582 2.816L30.667 2.816 30.667 1.333 48 1.333 48 2.816 40.085 2.816 40.085 29.333 38.582 29.333 38.582 2.816M66.582 2.816L58.667 2.816 58.667 1.333 76 1.333 76 2.816 68.085 2.816 68.085 29.333 66.582 29.333 66.582 2.816M116 14.666C116 5.943 121.648 0 128.6 0c4.31 0 7.713 1.939 9.777 5.437l-1.123.969c-1.81-2.992-4.743-4.847-8.653-4.847-6.337 0-11.08 5.606-11.08 13.107 0 7.502 4.743 13.107 11.08 13.107 3.802 0 6.988-1.854 8.943-5.099l1.123.927c-2.173 3.667-5.794 5.732-10.066 5.732-6.953 0-12.601-5.942-12.601-14.667M152 1.333L153.491 1.333 153.491 15.389 166.509 15.389 166.509 1.333 168 1.333 168 29.333 166.509 29.333 166.509 16.913 153.491 16.913 153.491 29.333 152 29.333 152 1.333M184 1.333L198.167 1.333 198.167 2.816 185.463 2.816 185.463 15.044 196.846 15.044 196.846 16.527 185.463 16.527 185.463 27.851 198.667 27.851 198.667 29.333 184 29.333 184 1.333"/>
        <path fill="#7EC083" d="M0 37.333C0 34.161 2.326 32 5.189 32c1.774 0 3.175.705 4.025 1.977l-.462.353C8.007 33.24 6.8 32.567 5.19 32.567c-2.61 0-4.563 2.039-4.563 4.766 0 2.728 1.953 4.767 4.563 4.767 1.565 0 2.877-.675 3.682-1.855l.462.337c-.894 1.333-2.385 2.085-4.144 2.085C2.326 42.667 0 40.505 0 37.333M23.356 37.333c0-2.727-2.007-4.766-4.69-4.766-2.681 0-4.689 2.039-4.689 4.766 0 2.728 2.008 4.767 4.69 4.767 2.682 0 4.69-2.039 4.69-4.767zm-10.023 0c0-3.172 2.391-5.333 5.334-5.333C21.609 32 24 34.16 24 37.333c0 3.172-2.39 5.334-5.333 5.334s-5.334-2.162-5.334-5.334zM31.48 39.2c2.777 0 3.761-1.553 3.761-3.31 0-1.756-.984-3.326-3.76-3.326h-1.485V39.2h1.484zM36 42.667h-.79l-2.293-3.043c-.404.094-.872.14-1.372.14h-1.55v2.903h-.662V32h2.212c2.97 0 4.374 1.725 4.374 3.89 0 1.57-.758 2.918-2.356 3.53L36 42.667zM43.539 39.357c2.794 0 3.775-1.506 3.775-3.388 0-1.898-.981-3.405-3.775-3.405h-1.536v6.793h1.536zM41.333 32h2.271C46.611 32 48 33.647 48 35.969c0 2.243-1.39 3.953-4.396 3.953h-1.6v2.745h-.67V32zM62.023 37.333c0-2.727-2.007-4.766-4.69-4.766-2.682 0-4.69 2.039-4.69 4.766 0 2.728 2.008 4.767 4.69 4.767 2.683 0 4.69-2.039 4.69-4.767zm-10.023 0C52 34.161 54.391 32 57.334 32c2.942 0 5.333 2.16 5.333 5.333 0 3.172-2.39 5.334-5.333 5.334S52 40.505 52 37.333zM68.814 39.2c2.776 0 3.76-1.553 3.76-3.31 0-1.756-.984-3.326-3.76-3.326h-1.485V39.2h1.485zm4.52 3.467h-.792l-2.292-3.043c-.403.094-.872.14-1.372.14h-1.55v2.903h-.661V32h2.211c2.97 0 4.375 1.725 4.375 3.89 0 1.57-.759 2.918-2.357 3.53l2.437 3.247zM85.118 40.062l-2.174-6.015c-.142-.372-.284-.962-.284-.962s-.142.59-.284.962l-2.189 6.015h4.93zM82.575 32h.17l3.922 10.667h-.597l-.74-2.047h-5.342l-.739 2.047h-.582L82.575 32zM92.987 32.564L89.333 32.564 89.333 32 97.333 32 97.333 32.564 93.68 32.564 93.68 42.667 92.987 42.667 92.987 32.564M101.333 32L107.774 32 107.774 32.564 101.999 32.564 101.999 38.274 107.173 38.274 107.173 38.839 101.999 38.839 101.999 42.102 108 42.102 108 42.667 101.333 42.667 101.333 32M120 32L120.686 32 120.686 38.274 127.314 38.274 127.314 32 128 32 128 42.667 127.314 42.667 127.314 38.855 120.686 38.855 120.686 42.667 120 42.667 120 32M142.023 37.333c0-2.727-2.007-4.766-4.69-4.766-2.682 0-4.69 2.039-4.69 4.766 0 2.728 2.008 4.767 4.69 4.767 2.683 0 4.69-2.039 4.69-4.767zm-10.023 0c0-3.172 2.39-5.333 5.333-5.333s5.334 2.16 5.334 5.333c0 3.172-2.39 5.334-5.334 5.334-2.942 0-5.333-2.162-5.333-5.334zM148 39.039V32h.715v6.992c0 2.031 1.325 3.116 3.277 3.116 1.934 0 3.293-1.085 3.293-3.116V32H156v7.039c0 2.372-1.743 3.628-4.008 3.628-2.284 0-3.992-1.256-3.992-3.628M158.667 40.582l.544-.26c.497.92 1.29 1.793 2.983 1.793 1.383 0 2.518-.797 2.518-2.115 0-1.21-.684-1.87-2.16-2.544l-.98-.444c-1.475-.675-2.206-1.364-2.206-2.682 0-1.441 1.165-2.33 2.595-2.33 1.414 0 2.207.72 2.704 1.502l-.497.322c-.435-.69-1.041-1.272-2.207-1.272-1.243 0-1.973.705-1.973 1.762 0 1.042.528 1.548 1.833 2.146l.98.444c1.708.766 2.532 1.655 2.532 3.096 0 1.625-1.305 2.667-3.124 2.667-2.003 0-3.03-1.042-3.542-2.085M170.667 42.667L172 42.667 172 32 170.667 32zM178.363 34.023c-.203-.26-.484-.69-.484-.69s.047.476.047.782v8.429h-.593V32h.188l6.783 8.644c.203.26.484.689.484.689s-.047-.475-.047-.781v-8.43h.592v10.545h-.187l-6.783-8.644M200 37.9v3.219c-.825.858-2.13 1.548-4.081 1.548-2.911 0-5.252-2.162-5.252-5.334 0-3.172 2.355-5.333 5.267-5.333 1.38 0 2.656.414 3.481 1.303l-.405.429c-.735-.782-1.786-1.165-3.076-1.165-2.657 0-4.637 2.039-4.637 4.766 0 2.728 1.98 4.767 4.622 4.767 1.74 0 2.806-.583 3.48-1.227v-2.421"/>
    </g>
</svg>
