<svg xmlns="http://www.w3.org/2000/svg" width="30" height="30" viewBox="0 0 30 30">
    <path fill="#3CA160" fill-rule="evenodd" d="M25.848 5c.902 0 1.635.733 1.635 1.635V23.47c0 .896-.728 1.624-1.624 1.624H4.13c-.901 0-1.629-.728-1.629-1.63V6.636C2.5 5.733 3.233 5 4.135 5zm.549 5.974H3.587v12.492c0 .298.244.543.542.543h21.73c.299 0 .538-.24.538-.538V10.974zm-8.245 1.086c.658 0 1.184.527 1.184 1.184V22c0 .51-.412.924-.923.924H6.725c-.532-.006-.966-.435-.966-.973v-8.722c0-.646.521-1.168 1.167-1.168zm0 1.087H6.926c-.043 0-.081.038-.081.081v8.608H18.25v-8.592c-.005-.054-.043-.097-.098-.097zm4.715 4.345c1.048 0 1.9.852 1.9 1.9 0 1.049-.852 1.901-1.9 1.901-1.049 0-1.901-.852-1.901-1.9 0-1.049.852-1.901 1.9-1.901zm0 1.086c-.451 0-.815.364-.815.814 0 .451.364.815.815.815.45 0 .814-.364.814-.815 0-.45-.364-.814-.814-.814zm1.357-5.431c.3 0 .543.244.543.543 0 .298-.244.543-.543.543H21.51c-.299 0-.543-.245-.543-.543 0-.299.244-.543.543-.543zm1.63-7.06H4.134c-.303 0-.548.244-.548.548v3.253h22.816V6.635c0-.304-.244-.549-.548-.549zM9.56 8.258c.3 0 .544.244.544.543 0 .299-.245.543-.544.543H5.76c-.3 0-.543-.244-.543-.543 0-.299.244-.543.543-.543zm0-1.63c.3 0 .544.245.544.543 0 .3-.245.544-.544.544H5.76c-.3 0-.543-.245-.543-.544 0-.298.244-.543.543-.543z"/>
</svg>
