<svg xmlns="http://www.w3.org/2000/svg" width="21" height="14" viewBox="0 0 21 14">
    <g fill="none" fill-rule="evenodd">
        <path fill="#5D5D5D" fill-rule="nonzero" d="M17.571 1.517c-.266-.253-.688-.243-.943.023-.254.267-.243.689.023.943l5.114 4.85H4c-.368 0-.667.299-.667.667 0 .368.299.667.667.667h17.742l-5.09 4.85c-.268.254-.278.676-.024.943.131.137.307.207.483.207.165 0 .33-.061.46-.184l5.815-5.542c.253-.253.392-.587.392-.941s-.14-.688-.404-.953l-5.803-5.53z" transform="translate(-3 -1)"/>
    </g>
</svg>
