<svg xmlns="http://www.w3.org/2000/svg" width="221" height="221" viewBox="0 0 221 221">
    <g fill="none" fill-rule="evenodd">
        <circle cx="110.5" cy="110.5" r="110.5" fill="#EDF6F0" opacity=".455"/>
        <text fill="#5D5D5D" font-family="Montserrat-Regular, Montserrat" font-size="12">
            <tspan x="65.208" y="148">No Result found!</tspan>
        </text>
        <g opacity=".5">
            <path fill="#B8DCC5" d="M0.86 4.85L2.231 2.036 7.195 1 40.34 1 40.34 7.339 40.887 11.045 44.128 13.096 52.841 13.88 53.951 68.902 4.805 68.682 1.545 67.784 0 61.834z" transform="translate(84 53)"/>
            <path fill="#3CA160" d="M53.682 67.949H5.752c-1.952 0-3.54-1.588-3.54-3.54V5.59c0-1.952 1.588-3.54 3.54-3.54h33.416c.138 0 .274.014.407.036v7.02c0 3.083 2.508 5.59 5.591 5.59h7.02c.022.135.036.27.036.408V67.95h2.042l.009-52.844c0-1.198-.467-2.324-1.313-3.17L42.339 1.313C41.492.466 40.366 0 39.168 0H5.752C2.669 0 .16 2.508.16 5.591v58.817C.16 67.491 2.669 70 5.75 70H52.96c.307 0 .937-.076 1.144-.385.149-.223.19-.335.254-.515.025-.07-.039-1.05 0-1.151h-.676zm-2.91-55.302h-5.606c-1.952 0-3.54-1.588-3.54-3.54V3.5l9.146 9.146z" transform="translate(84 53)"/>
            <path fill="#B8DCC5" d="M24.556 39.889c-4.596 0-8.334-3.738-8.334-8.333 0-4.596 3.738-8.334 8.334-8.334 4.595 0 8.333 3.738 8.333 8.334 0 4.595-3.738 8.333-8.333 8.333z" transform="translate(84 53)"/>
            <path fill="#3CA160" fill-rule="nonzero" d="M40.504 45.933l-7.747-7.747c1.47-1.814 2.354-4.12 2.354-6.63 0-5.82-4.735-10.556-10.555-10.556C18.736 21 14 25.735 14 31.556c0 5.82 4.735 10.555 10.556 10.555 2.51 0 4.816-.884 6.63-2.354l7.747 7.747c.217.217.568.217.785 0l.786-.786c.217-.217.217-.568 0-.785zm-15.948-6.044c-4.596 0-8.334-3.738-8.334-8.333 0-4.596 3.738-8.334 8.334-8.334 4.595 0 8.333 3.738 8.333 8.334 0 4.595-3.738 8.333-8.333 8.333z" transform="translate(84 53)"/>
        </g>
    </g>
</svg>
