<svg xmlns="http://www.w3.org/2000/svg" width="120" height="120" viewBox="0 0 120 120">
    <g fill="none" fill-rule="evenodd" opacity=".5">
        <path fill="#B8DCC5" d="M21 58.5v30H9v-3H1.5v-24H9v-3h12zm33-57L88.5 27h-9v29.986l-6 3.464V23.37L54 8.955 34.5 23.37v34.587c-1.49.198-2.929.673-4.244 1.401l-1.756.975V27h-9L54 1.5zM37.883 57.992c.053.007.101.009.15.016-.049 0-.096-.009-.15-.017zm-1.031-.117c.347.022.692.064 1.037.117-.346-.053-.689-.092-1.037-.117zm-1.428-.005c.464-.026.928-.024 1.392.005-.773-.047-1.548-.02-2.316.082zM57 22.5v3.615c2.73 1.203 4.493 3.902 4.5 6.885H57c0-1.657-1.343-3-3-3s-3 1.343-3 3 1.343 3 3 3c3.853-.004 7.082 2.913 7.47 6.746.387 3.834-2.194 7.337-5.97 8.104V54H51v-3.615c-2.73-1.203-4.493-3.902-4.5-6.885H51c.005 1.655 1.345 2.995 3 3 1.657 0 3-1.343 3-3s-1.343-3-3-3c-3.853.004-7.082-2.913-7.47-6.746-.387-3.834 2.194-7.337 5.97-8.104V22.5H57zm16.5-21v14.414l-6-4.436V1.5h6z" transform="translate(15 15)"/>
        <path fill="#3CA160" d="M67.5 0h6c.78 0 1.42.595 1.493 1.356L75 1.5v13.65L89.391 25.8c.515.386.726 1.059.524 1.67-.187.568-.692.966-1.278 1.023l-.137.007H81v25.95c2.806-1.326 6.16-.283 7.72 2.4.524.913.8 1.947.8 3 .012 2.056-1.035 3.966-2.76 5.063l-.219.133-35.025 20.172c-1.914 1.094-4.064 1.702-6.263 1.775l-.44.007H30.468c-2.738.003-5.408-.834-7.651-2.393l-.318-.228V88.5c0 .78-.595 1.42-1.356 1.493L21 90H9c-.78 0-1.42-.595-1.493-1.356L7.5 88.5V87h-6c-.78 0-1.42-.595-1.493-1.356L0 85.5v-24c0-.78.595-1.42 1.356-1.493L1.5 60h6v-1.5c0-.78.595-1.42 1.356-1.493L9 57h12c.78 0 1.42.595 1.493 1.356l.007.144v3.45l4.5-2.499V28.5h-7.5c-.644-.004-1.214-.418-1.415-1.03-.187-.564-.021-1.18.41-1.576l.114-.094L53.109.3c.489-.361 1.142-.389 1.657-.083L54.89.3 66 8.505V1.5c0-.78.595-1.42 1.356-1.493L67.5 0h6zm-48 60h-9v27h9V60zm-12 3H3v21h4.5V63zm74.69-5.838l-.16.086-18.097 10.447c.097 1.634-.49 3.236-1.619 4.42-1.13 1.186-2.7 1.849-4.337 1.83-.423 0-.843-.045-1.256-.132l-.307-.075-13.175-3.529c-.797-.217-1.268-1.037-1.055-1.835.201-.75.938-1.216 1.69-1.093l.14.03 13.175 3.53c1.042.296 2.162.009 2.932-.753.77-.761 1.07-1.879.784-2.924-.267-.979-1.01-1.752-1.968-2.062l-.194-.056-19.941-5.343c-2.522-.682-5.203-.393-7.517.802l-.3.161-8.485 4.713v15l.546.546c1.886 1.896 4.425 2.992 7.09 3.07l.334.005h14.343c1.705 0 3.383-.416 4.89-1.208l.32-.175 35.014-20.168c.925-.536 1.492-1.529 1.483-2.599-.002-.456-.105-.905-.302-1.314l-.106-.201c-.8-1.368-2.52-1.87-3.921-1.173zM15 79.5c.78 0 1.42.595 1.493 1.356L16.5 81v1.5c0 .828-.672 1.5-1.5 1.5-.78 0-1.42-.595-1.493-1.356L13.5 82.5V81c0-.828.672-1.5 1.5-1.5zm39-68.679L36 24.126v32.232c1.056-.009 2.11.106 3.138.342l.44.108 19.942 5.343c1.365.37 2.55 1.211 3.35 2.37l.154.237L72 59.577V24.126L54 10.821zm0-7.455L24.052 25.5H28.5c.78 0 1.42.595 1.493 1.356L30 27v30.813c.817-.416 1.673-.749 2.556-.991l.444-.114V23.37c.002-.421.18-.82.488-1.1l.121-.1 19.5-14.415c.489-.361 1.142-.389 1.657-.083l.125.083 19.5 14.415c.339.25.555.63.6 1.043l.009.157v34.474l3-1.73V27c0-.78.595-1.42 1.356-1.493l.144-.007h4.448L54 3.366zM57 21c.828 0 1.5.672 1.5 1.5v2.7c2.78 1.614 4.494 4.585 4.5 7.8 0 .828-.672 1.5-1.5 1.5H57c-.828 0-1.5-.672-1.5-1.5s-.672-1.5-1.5-1.5-1.5.672-1.5 1.5.672 1.5 1.5 1.5c2.419 0 4.738.968 6.438 2.688l.012.012c2.145 2.202 3.02 5.345 2.321 8.338-.698 2.994-2.873 5.425-5.771 6.45V54c0 .828-.672 1.5-1.5 1.5H51c-.828 0-1.5-.672-1.5-1.5v-2.7c-2.78-1.614-4.494-4.585-4.5-7.8 0-.828.672-1.5 1.5-1.5H51c.828 0 1.5.672 1.5 1.5S53.172 45 54 45s1.5-.672 1.5-1.5S54.828 42 54 42c-4.387.004-8.138-3.155-8.88-7.478-.741-4.324 1.742-8.553 5.88-10.01V22.5c0-.828.672-1.5 1.5-1.5zm-1.5 3H54v1.65c0 .714-.503 1.329-1.203 1.47-2.15.444-3.888 2.025-4.532 4.124-.645 2.099-.094 4.382 1.438 5.956 1.135 1.149 2.682 1.797 4.297 1.8 2.288 0 4.212 1.718 4.47 3.992.259 2.274-1.23 4.38-3.46 4.893-2.23.514-4.49-.728-5.253-2.885H48.19c.468 1.789 1.726 3.266 3.416 4.014.543.24.893.778.893 1.371V52.5H54v-1.65c0-.713.5-1.329 1.2-1.471 2.151-.442 3.89-2.022 4.537-4.12.646-2.1.097-4.384-1.434-5.959-1.137-1.15-2.686-1.797-4.303-1.8-2.288 0-4.212-1.718-4.47-3.992-.259-2.274 1.23-4.38 3.46-4.893 2.23-.514 4.49.728 5.253 2.885h1.566c-.468-1.789-1.726-3.266-3.416-4.014-.543-.24-.893-.778-.893-1.371V24zM72 3h-3v7.722l3 2.217V3z" transform="translate(15 15)"/>
    </g>
</svg>
