<svg xmlns="http://www.w3.org/2000/svg" width="30" height="30" viewBox="0 0 30 30">
    <path fill="#3CA160" fill-rule="evenodd" d="M21.515 13.004c.275 0 .5.225.5.5 0 .276-.225.501-.5.501H15.01v8.006c0 .276-.225.5-.5.5-.276 0-.501-.224-.501-.5v-8.006H7.504c-.275 0-.5-.225-.5-.5 0-.276.225-.5.5-.5zM3 7.5c.276 0 .5.225.5.5v7.506h5.005c.275 0 .5.225.5.5v6.005c0 .276-.225.5-.5.5-.276 0-.5-.224-.5-.5V19.51H3.5v2.502c0 .276-.225.5-.5.5-.276 0-.501-.224-.501-.5V8.001c0-.276.225-.501.5-.501zm23.018 0c.276 0 .5.225.5.5v14.011c0 .276-.224.5-.5.5-.275 0-.5-.224-.5-.5V19.51h-4.504v2.502c0 .276-.225.5-.5.5s-.5-.224-.5-.5v-6.004c0-.276.225-.5.5-.5h5.004V8c0-.275.225-.5.5-.5zM8.004 16.507H3.501v2.002h4.503v-2.002zm17.514 0h-4.504v2.002h4.504v-2.002z"/>
</svg>
