<svg xmlns="http://www.w3.org/2000/svg" width="24" height="24" viewBox="0 0 24 24">
    <path fill="#FFF" fill-rule="evenodd" d="M11.48 10.498c1.524 0 2.925.767 3.748 2.05l1.983 3.093c.329.514.48 1.106.439 1.715-.042.608-.274 1.175-.67 1.638-.397.463-.92.78-1.515.916-.21.048-.42.071-.63.071-.387 0-.77-.08-1.131-.239-1.402-.616-3.008-.622-4.413-.016l-.036.016c-.559.246-1.168.303-1.762.168-.595-.136-1.119-.453-1.515-.916-.396-.464-.627-1.03-.67-1.639-.04-.608.11-1.2.44-1.714l1.983-3.093c.822-1.283 2.224-2.05 3.748-2.05zm0 1.072c-1.158 0-2.222.582-2.847 1.557L6.65 16.22c-.418.653-.36 1.488.143 2.077.499.583 1.302.772 2.007.474l.024-.01c.844-.371 1.75-.557 2.655-.557.906 0 1.812.186 2.656.557.71.312 1.526.126 2.03-.464.504-.59.562-1.424.143-2.077l-1.982-3.093c-.625-.975-1.69-1.557-2.847-1.557zm5.538-.325c.857-1.157 2.384-1.484 3.406-.73 1.02.756 1.154 2.312.298 3.47-.545.735-1.36 1.135-2.144 1.135-.45 0-.89-.132-1.262-.407-1.02-.755-1.153-2.311-.298-3.468zm2.138-.068c-.45 0-.94.252-1.276.705-.504.682-.471 1.566.074 1.97.546.404 1.4.177 1.907-.505.504-.682.47-1.566-.074-1.97-.184-.135-.402-.2-.63-.2zM4.407 7.671c.589-.227 1.24-.175 1.833.147.564.307 1.01.826 1.254 1.462.245.636.263 1.32.05 1.926-.224.636-.672 1.112-1.262 1.338-.24.093-.49.137-.738.137-.974 0-1.936-.676-2.349-1.746-.516-1.345.027-2.809 1.212-3.264zm.744.934c-.124 0-.244.022-.359.066-.633.244-.9 1.087-.596 1.88.305.79 1.068 1.237 1.7.993.293-.112.519-.359.637-.694.128-.365.114-.786-.039-1.185-.153-.398-.426-.72-.766-.905-.19-.103-.386-.155-.577-.155zm9.434-2.804c.618-.374 1.311-.463 1.952-.25.641.213 1.143.7 1.414 1.369.259.64.274 1.375.043 2.07-.402 1.208-1.454 1.995-2.534 1.995-.232 0-.464-.037-.692-.112l-.146-.055c-1.193-.493-1.78-1.973-1.31-3.384.23-.696.683-1.275 1.273-1.633zM10.129 4c1.481 0 2.686 1.373 2.686 3.06 0 1.688-1.205 3.061-2.686 3.061-1.48 0-2.686-1.373-2.686-3.06C7.443 5.373 8.648 4 10.13 4zm6.07 2.568c-.338-.112-.714-.059-1.059.15-.372.226-.66.6-.811 1.054-.302.906.047 1.84.777 2.084.73.242 1.57-.298 1.87-1.204.152-.454.145-.926-.019-1.33-.15-.374-.42-.641-.758-.754zm-6.07-1.496c-.89 0-1.614.892-1.614 1.989 0 1.096.724 1.988 1.614 1.988.89 0 1.614-.892 1.614-1.988 0-1.097-.724-1.99-1.614-1.99z"/>
</svg>
