<svg xmlns="http://www.w3.org/2000/svg" width="54" height="54" viewBox="0 0 54 54">
    <g fill="none" fill-rule="evenodd">
        <path fill="#3CA160" d="M9.45 21.825v13.5h-5.4v-1.35H.675v-10.8H4.05v-1.35h5.4zM24.403 1.178c2.082-.647 4.304.52 4.951 2.604.067.215.116.443.146.675.019.147.102.278.226.357.125.08.279.1.42.056.383-.12.783-.182 1.188-.182 2.181 0 3.956 1.775 3.956 3.956S33.515 12.6 31.334 12.6c-.405 0-.805-.061-1.188-.182-.141-.044-.295-.024-.42.056-.124.08-.207.21-.226.357-.03.233-.079.46-.146.676-.313 1.009-1.001 1.835-1.936 2.327-.936.492-2.006.59-3.015.276-2.083-.647-3.252-2.868-2.604-4.951.096-.312.231-.61.4-.888.095-.154.098-.347.01-.505-.089-.157-.255-.255-.436-.255h-7.761c-.276 0-.5.224-.5.5v2.848c0 .479-.389.868-.867.868s-.867-.39-.867-.868v-2.848c0-.276-.224-.5-.5-.5h-2.49c-.276 0-.5.224-.5.5v2.848c0 .479-.389.868-.867.868s-.868-.39-.868-.868v-2.848c0-.276-.223-.5-.5-.5H4.118c-.479 0-.868-.389-.868-.867s.39-.867.868-.867h17.656c.18 0 .347-.098.435-.255.089-.158.085-.35-.008-.505-.17-.278-.305-.576-.401-.887-.647-2.084.52-4.305 2.604-4.952zm1.837 9.02c-1.178-.367-2.433.294-2.8 1.471-.177.57-.121 1.176.157 1.704.278.53.745.918 1.316 1.095.22.069.443.101.662.101.954 0 1.84-.615 2.137-1.573.177-.57.122-1.175-.156-1.704-.278-.529-.746-.918-1.316-1.095zm5.094-3.79c-1.233 0-2.236 1.003-2.236 2.236 0 1.233 1.003 2.236 2.236 2.236 1.233 0 2.236-1.003 2.236-2.236 0-1.233-1.003-2.236-2.236-2.236zm-4.717-3.432c-.528-.278-1.134-.333-1.704-.156-.57.177-1.038.566-1.316 1.095-.278.528-.333 1.134-.156 1.704.177.57.566 1.038 1.095 1.316.325.171.68.258 1.038.258.223 0 .447-.034.666-.102.57-.177 1.038-.566 1.316-1.095.278-.528.333-1.134.156-1.704-.178-.57-.566-1.038-1.095-1.316z" transform="translate(6.75 11.25)"/>
        <path fill="#FFF" d="M39.924 21.082c.236.411.36.877.36 1.35.005.9-.44 1.737-1.178 2.237l-.163.102-15.76 9.077c-.828.473-1.753.744-2.7.794l-.317.008H13.71c-1.191.001-2.354-.351-3.343-1.009l-.243-.17v1.854c0 .339-.25.62-.575.668l-.1.007h-5.4c-.339 0-.62-.25-.668-.575l-.007-.1v-.675h-2.7c-.339 0-.62-.25-.668-.575l-.007-.1v-10.8c0-.339.25-.62.575-.668l.1-.007h2.7v-.675c0-.339.25-.62.575-.668l.1-.007h5.4c.339 0 .62.25.668.575l.007.1v1.553l2.025-1.125c.514-.285 2.85-1.17 3.375-1.322.525-.152 2.511.26 13.092 3.514 3.211-1.83 7.437-4.451 7.833-4.442 1.263-.597 2.772-.128 3.474 1.08zM8.775 22.5h-4.05v12.15h4.05V22.5zm28.261-1.3l-.122.061-8.144 4.702c.044.735-.22 1.456-.729 1.99-.508.532-1.215.83-1.952.822-.158 0-.316-.014-.471-.041l-.232-.052-5.928-1.588c-.359-.098-.571-.467-.475-.826.087-.326.4-.532.726-.496l.098.018 5.928 1.588c.469.134.973.004 1.32-.338.346-.343.48-.846.352-1.316-.115-.423-.428-.76-.834-.91l-.139-.043-8.973-2.405c-1.105-.298-2.279-.183-3.3.32l-.218.114-3.818 2.12v6.75l.246.246c.825.83 1.928 1.32 3.09 1.378l.25.006h6.455c.73 0 1.45-.17 2.103-.494l.242-.128 15.755-9.076c.417-.241.672-.688.668-1.17-.004-.61.125-.154-.184-.681-.35-.6-1.093-.83-1.714-.552zM3.375 23.85H1.35v9.45h2.025v-9.45zm3.375 7.425c.339 0 .62.25.668.575l.007.1v.675c0 .373-.302.675-.675.675-.339 0-.62-.25-.668-.575l-.007-.1v-.675c0-.373.302-.675.675-.675zm23.558-27.79c.03.097.057.195.082.294.31-.06.626-.09.944-.09 2.732 0 4.955 2.223 4.955 4.955S34.066 13.6 31.334 13.6c-.319 0-.634-.03-.944-.09-.025.1-.052.198-.082.294-.392 1.264-1.254 2.3-2.425 2.915-.722.38-1.508.572-2.3.572-.495 0-.992-.075-1.477-.225-2.61-.811-4.072-3.594-3.262-6.203.037-.119.079-.236.124-.352h-6.457v2.35c0 1.029-.837 1.866-1.866 1.866-1.03 0-1.867-.837-1.867-1.867V10.51h-1.49v2.35c0 1.029-.838 1.866-1.867 1.866-1.03 0-1.867-.837-1.867-1.867V10.51H4.117c-1.03 0-1.867-.837-1.867-1.866 0-1.03.837-1.867 1.867-1.867h16.851c-.045-.115-.086-.232-.123-.35-.811-2.61.652-5.393 3.261-6.203 2.61-.811 5.392.652 6.202 3.261zm-5.905-2.307c-2.083.647-3.251 2.868-2.604 4.952.096.31.231.61.4.887.094.154.098.347.01.505-.09.157-.256.255-.436.255H4.117c-.479 0-.868.389-.868.867s.39.867.868.867h1.937c.276 0 .5.224.5.5v2.848c0 .479.389.868.867.868s.867-.39.867-.868v-2.848c0-.276.224-.5.5-.5h2.49c.276 0 .5.224.5.5v2.848c0 .479.389.868.867.868s.867-.39.867-.868v-2.848c0-.276.224-.5.5-.5h7.761c.18 0 .347.098.436.255.088.158.085.35-.01.505-.169.278-.304.576-.4.888-.648 2.083.52 4.304 2.604 4.951 1.009.314 2.08.216 3.015-.276s1.623-1.318 1.936-2.327c.067-.216.116-.443.146-.676.019-.147.102-.277.226-.357.125-.08.279-.1.42-.056.383.12.783.182 1.188.182 2.181 0 3.956-1.775 3.956-3.956s-1.775-3.956-3.956-3.956c-.405 0-.805.061-1.188.182-.141.044-.295.024-.42-.056-.124-.08-.207-.21-.226-.357-.03-.232-.079-.46-.146-.675-.647-2.083-2.869-3.251-4.951-2.604zm1.837 9.02c.57.176 1.038.565 1.316 1.094.278.529.333 1.134.156 1.704-.298.958-1.183 1.573-2.137 1.573-.22 0-.442-.032-.662-.1-.57-.178-1.038-.567-1.316-1.096-.278-.528-.334-1.134-.156-1.704.366-1.177 1.621-1.838 2.799-1.472zm5.094-3.79c1.233 0 2.236 1.003 2.236 2.236 0 1.233-1.003 2.236-2.236 2.236-1.233 0-2.236-1.003-2.236-2.236 0-1.233 1.003-2.236 2.236-2.236zm-4.717-3.432c.529.278.917.746 1.095 1.316.177.57.122 1.176-.156 1.704-.278.529-.746.918-1.316 1.095-.22.068-.443.102-.666.102-.358 0-.713-.087-1.038-.258-.53-.278-.918-.745-1.095-1.316-.177-.57-.122-1.176.156-1.704.278-.529.745-.918 1.316-1.095.57-.177 1.176-.122 1.704.156z" transform="translate(6.75 11.25)"/>
        <path fill="#3CA160" d="M25.577 11.095c.121 0 .245.018.366.056.316.098.574.313.728.606.154.292.185.627.087.943-.098.315-.314.574-.606.728-.292.153-.627.184-.943.086-.315-.098-.574-.313-.728-.606-.153-.292-.184-.627-.086-.942.165-.53.655-.87 1.182-.87zm5.757-3.688c.682 0 1.237.555 1.237 1.237s-.555 1.237-1.237 1.237-1.237-.555-1.237-1.237.555-1.237 1.237-1.237zm-5.756-3.689c.198 0 .394.048.574.143.293.154.508.412.606.728.098.315.067.65-.087.942-.154.293-.412.508-.728.606-.315.098-.65.067-.942-.086-.293-.154-.508-.413-.606-.728-.098-.316-.067-.65.086-.943.154-.293.413-.508.728-.606.121-.037.245-.056.369-.056z" transform="translate(6.75 11.25)"/>
    </g>
</svg>
