<svg xmlns="http://www.w3.org/2000/svg" width="20" height="20" viewBox="0 0 20 20">
    <path fill="#A9A9A9" d="M16.585 15.8l-3.873-3.874c.735-.906 1.177-2.06 1.177-3.315 0-2.91-2.368-5.278-5.278-5.278-2.91 0-5.278 2.368-5.278 5.278 0 2.91 2.368 5.278 5.278 5.278 1.255 0 2.409-.442 3.315-1.177l3.874 3.873c.108.109.284.109.393 0l.392-.392c.109-.109.109-.285 0-.393zm-7.974-3.022c-2.298 0-4.167-1.87-4.167-4.167 0-2.298 1.87-4.167 4.167-4.167 2.298 0 4.167 1.87 4.167 4.167 0 2.298-1.87 4.167-4.167 4.167z" opacity=".5"/>
</svg>
