<svg xmlns="http://www.w3.org/2000/svg" width="60" height="60" viewBox="0 0 60 60">
    <defs>
        <linearGradient id="prefix__a" x1="90.864%" x2="21%" y1="-33.667%" y2="108.099%">
            <stop offset="0%" stop-color="#A9CD6F"/>
            <stop offset="100%" stop-color="#7EB635"/>
        </linearGradient>
    </defs>
    <g fill="none" fill-rule="evenodd">
        <circle cx="30" cy="30" r="30" fill="#F3F8EC"/>
        <g>
            <path d="M0 0L36 0 36 36 0 36z" transform="translate(12 12)"/>
            <path fill="url(#prefix__a)" fill-rule="nonzero" d="M12.5 27.5c.69 0 1.25.56 1.25 1.25S13.19 30 12.5 30s-1.25-.56-1.25-1.25.56-1.25 1.25-1.25zm5 0c.69 0 1.25.56 1.25 1.25S18.19 30 17.5 30s-1.25-.56-1.25-1.25.56-1.25 1.25-1.25zm5 0c.69 0 1.25.56 1.25 1.25S23.19 30 22.5 30s-1.25-.56-1.25-1.25.56-1.25 1.25-1.25zm-15 0c.69 0 1.25.56 1.25 1.25S8.19 30 7.5 30s-1.25-.56-1.25-1.25.56-1.25 1.25-1.25zm-5 0c.69 0 1.25.56 1.25 1.25S3.19 30 2.5 30s-1.25-.56-1.25-1.25.56-1.25 1.25-1.25zm10-3.75c.69 0 1.25.56 1.25 1.25s-.56 1.25-1.25 1.25-1.25-.56-1.25-1.25.56-1.25 1.25-1.25zm5 0c.69 0 1.25.56 1.25 1.25s-.56 1.25-1.25 1.25-1.25-.56-1.25-1.25.56-1.25 1.25-1.25zm5 0c.69 0 1.25.56 1.25 1.25s-.56 1.25-1.25 1.25-1.25-.56-1.25-1.25.56-1.25 1.25-1.25zm-15 0c.69 0 1.25.56 1.25 1.25s-.56 1.25-1.25 1.25-1.25-.56-1.25-1.25.56-1.25 1.25-1.25zm-5 0c.69 0 1.25.56 1.25 1.25s-.56 1.25-1.25 1.25-1.25-.56-1.25-1.25.56-1.25 1.25-1.25zm10-3.75c.69 0 1.25.56 1.25 1.25s-.56 1.25-1.25 1.25-1.25-.56-1.25-1.25S11.81 20 12.5 20zm5 0c.69 0 1.25.56 1.25 1.25s-.56 1.25-1.25 1.25-1.25-.56-1.25-1.25S16.81 20 17.5 20zm5 0c.69 0 1.25.56 1.25 1.25s-.56 1.25-1.25 1.25-1.25-.56-1.25-1.25S21.81 20 22.5 20zm-15 0c.69 0 1.25.56 1.25 1.25S8.19 22.5 7.5 22.5s-1.25-.56-1.25-1.25S6.81 20 7.5 20zm-5 0c.69 0 1.25.56 1.25 1.25S3.19 22.5 2.5 22.5s-1.25-.56-1.25-1.25S1.81 20 2.5 20zM25 15v2.5H0V15h25zM15 0v5.281c4.21.97 7.498 4.258 8.467 8.469H1.533C2.502 9.54 5.79 6.25 10 5.281V0h5z" transform="translate(12 12) translate(6 3)"/>
        </g>
    </g>
</svg>
