<svg xmlns="http://www.w3.org/2000/svg" width="30" height="30" viewBox="0 0 30 30">
    <path fill="#3CA160" fill-rule="evenodd" d="M25.97 10.833h-3.646V3.542h3.646c.287 0 .52-.235.52-.521 0-.287-.234-.521-.52-.521h-4.167c-.015 0-.03.005-.046.01-.032.006-.063.01-.094.021-.052.016-.104.042-.151.073h-.005c-.026.016-.053.037-.079.057L17.32 5.745c-.02.01-.036.026-.057.041L13.137 8.88c-.01.01-.026.016-.037.031l-4.146 3.11c-.005.005-.015.01-.02.015l-4.167 3.12-2.026 1.516c-.23.172-.276.5-.104.729.172.23.5.276.729.104l1.25-.937v6.765H3.053c-.286 0-.52.235-.52.521v3.125c0 .287.234.521.52.521H25.97c.287 0 .52-.234.52-.52V11.353c0-.286-.234-.52-.52-.52zm-7.812-4.416l3.125-2.344v6.76h-.521c-.287 0-.521.235-.521.521v2.604h-2.083V6.417zM13.99 9.542l3.125-2.344v6.76h-.521c-.286 0-.52.235-.52.521v2.084H13.99V9.541zm-4.167 3.12l3.125-2.344v6.245h-1.041c-.287 0-.521.234-.521.52v3.125H9.824v-7.547zm-4.166 3.124l3.125-2.343v6.765H7.74c-.287 0-.52.235-.52.521v2.604H5.657v-7.547zm19.791 10.672H3.574v-2.083h4.167c.286 0 .52-.234.52-.52V21.25h3.647c.286 0 .52-.234.52-.52v-3.126h4.167c.287 0 .52-.234.52-.52V15h3.647c.286 0 .52-.234.52-.52v-2.605h4.167v14.583z"/>
</svg>
