<svg xmlns="http://www.w3.org/2000/svg" width="30" height="30" viewBox="0 0 30 30">
    <g fill="#3CA160" fill-rule="evenodd">
        <path stroke="#FFF" stroke-width=".5" d="M23.966 20.93h-.687v-1.142c0-.561-.456-1.018-1.018-1.018h-.207V6.23h.203c.561 0 1.018-.457 1.018-1.018V3.59c0-.522-.425-.948-.948-.948h-1.922V1.034c0-.57-.463-1.034-1.034-1.034H5.425c-.57 0-1.034.464-1.034 1.034V2.64H2.665c-.523 0-.948.426-.948.948v1.623c0 .561.456 1.018 1.017 1.018h.212v12.54h-.207c-.562 0-1.018.457-1.018 1.018v1.141h-.687c-.57 0-1.034.464-1.034 1.034v2.003C0 24.536.464 25 1.034 25h22.932c.57 0 1.034-.464 1.034-1.034v-2.003c0-.57-.464-1.034-1.034-1.034zM12.493 7.936c-3.398 0-6.163 2.764-6.163 6.162v4.671H4.411V6.24h16.178v12.53h-1.933V14.1c0-3.399-2.765-6.163-6.163-6.163zM7.795 18.77V14.1c0-2.591 2.108-4.698 4.698-4.698 2.59 0 4.698 2.107 4.698 4.697v4.671H7.795zm14.02 1.478v.646H3.184v-.646h18.63zM5.854 1.465H18.94v1.14H5.856v-1.14zM3.183 4.106H21.81v.659H3.182v-.659zm-1.717 19.43v-1.142h22.07v1.141H1.465z" transform="translate(2.5 2.5)"/>
        <path stroke="#3CA160" stroke-width=".2" d="M15.593 16.087l-.006-.073c-.085-1.114-.604-1.813-1.062-2.429-.423-.57-.79-1.063-.79-1.79 0-.058-.032-.111-.084-.138-.052-.027-.114-.022-.162.012-.687.492-1.26 1.32-1.46 2.112-.14.55-.158 1.17-.16 1.578-.636-.135-.78-1.085-.78-1.095-.008-.05-.038-.092-.082-.116-.044-.023-.096-.024-.141-.002-.033.016-.817.414-.863 2.004-.003.053-.003.106-.003.16 0 1.544 1.257 2.8 2.802 2.8 1.544 0 2.801-1.256 2.801-2.8 0-.078-.005-.15-.01-.223zM12.802 18.8c-.515 0-.934-.446-.934-.994l.001-.061c.006-.231.05-.39.098-.494.09.194.252.372.514.372.086 0 .156-.07.156-.156 0-.221.005-.477.06-.708.049-.204.166-.422.315-.596.066.226.195.41.32.588.18.256.367.52.4.972.002.027.004.054.004.083 0 .548-.42.994-.934.994zm.983-.203c.162-.22.262-.493.262-.791 0-.037-.002-.071-.007-.135-.037-.508-.258-.822-.453-1.099-.166-.236-.31-.44-.31-.729 0-.059-.033-.113-.086-.14-.052-.026-.116-.02-.163.016-.298.226-.547.605-.634.968-.044.186-.06.387-.065.552-.108-.116-.142-.331-.142-.334-.007-.05-.038-.094-.083-.117-.044-.023-.098-.024-.142 0-.04.02-.384.217-.404.944l-.001.074c0 .298.1.57.261.791-.885-.382-1.507-1.263-1.507-2.287 0-.047 0-.093.003-.145.027-.933.326-1.395.52-1.6.136.487.492 1.123 1.19 1.123.086 0 .155-.07.155-.156 0-.521.012-1.123.151-1.674.158-.624.591-1.299 1.114-1.755.087.667.45 1.155.831 1.669.454.61.923 1.242 1.002 2.265l.005.074c.005.065.01.13.01.2 0 1.023-.621 1.904-1.507 2.286z" transform="translate(2.5 2.5)"/>
    </g>
</svg>
