<svg xmlns="http://www.w3.org/2000/svg" width="20" height="20" viewBox="0 0 20 20">
    <path fill="#E9E9E9" d="M10 0c5.165.002 9.48 3.937 9.954 9.08.475 5.144-3.045 9.803-8.123 10.75l-.105.019c-.273.048-.548.086-.826.11-.299.027-.599.041-.9.041-5.523 0-10-4.477-10-10S4.477 0 10 0zm2.333 10.667H7.667c-2.024.002-3.665 1.642-3.667 3.666v2.81l.05.045c.183.151.37.296.563.433l.09.061c.195.135.395.263.6.383l.088.05c.207.118.42.23.635.33l.082.037c.22.102.444.195.672.28l.072.024c.232.084.468.159.706.223l.06.015c.244.065.49.12.74.165l.043.007c.255.044.513.08.772.102h.024c.266.023.535.033.805.033s.536-.012.803-.035h.024c.26-.023.517-.058.772-.103l.043-.006c.25-.045.497-.1.741-.165l.058-.015c.24-.065.476-.14.71-.224l.066-.024c.23-.084.455-.178.677-.28l.076-.034c.218-.102.433-.215.643-.335l.079-.045c.208-.121.411-.251.61-.389l.078-.053c.196-.14.387-.286.574-.442l.044-.037v-2.81c-.002-2.025-1.643-3.665-3.667-3.667zm4.244-7.295c-3.64-3.615-9.515-3.615-13.154 0-3.64 3.615-3.68 9.49-.09 13.154v-2.193c.003-2.392 1.942-4.33 4.334-4.333h4.666c2.392.003 4.33 1.941 4.334 4.333v2.193c3.59-3.665 3.55-9.54-.09-13.154zM10 2.667c1.84.002 3.331 1.493 3.333 3.333 0 1.841-1.492 3.333-3.333 3.333-1.841 0-3.333-1.492-3.333-3.333 0-1.841 1.492-3.333 3.333-3.333zm0 .666C8.527 3.333 7.333 4.527 7.333 6c0 1.473 1.194 2.667 2.667 2.667 1.472-.002 2.665-1.195 2.667-2.667 0-1.473-1.194-2.667-2.667-2.667z"/>
</svg>
