<svg xmlns="http://www.w3.org/2000/svg" width="30" height="30" viewBox="0 0 30 30">
    <path fill="#3CA160" fill-rule="evenodd" d="M23.276 2.5c1.532 0 2.775 1.244 2.775 2.775v19.433c0 1.531-1.243 2.775-2.775 2.775H6.56c-1.531 0-2.775-1.244-2.775-2.775V5.275c0-1.531 1.244-2.775 2.775-2.775zm1.69 6.517H4.87v15.69c0 .935.755 1.69 1.69 1.69h16.716c.934 0 1.69-.755 1.69-1.69V9.018zm-9.505 1.14c4.04 0 7.332 3.292 7.332 7.333 0 4.04-3.291 7.332-7.332 7.332-4.04 0-7.332-3.291-7.332-7.332 0-4.04 3.291-7.332 7.332-7.332zm0 1.087c-3.449.005-6.24 2.797-6.246 6.246 0 3.449 2.797 6.246 6.246 6.246 3.449 0 6.246-2.797 6.246-6.246 0-3.449-2.797-6.246-6.246-6.246zm-.018 1.256c.45-.002.897.057 1.33.173 2.693.724 4.29 3.494 3.565 6.186l-.005.02c-.404 1.512-1.484 2.752-2.926 3.36-2.578 1.086-5.548-.124-6.633-2.701l-.015-.024c-.003-.008 0-.016-.003-.024-.252-.613-.382-1.27-.381-1.932.003-2.796 2.272-5.06 5.068-5.058zm-1.17 6.628c-.884.037-1.759.201-2.597.487.75 1.38 2.196 2.24 3.767 2.242 1.628-.003 3.115-.927 3.838-2.386-.587.29-1.234.44-1.889.436-.605.014-1.204-.134-1.733-.429-.42-.242-.9-.363-1.385-.35zm1.17-5.848c-.453 0-.904.07-1.335.212-2.249.735-3.476 3.153-2.741 5.402.937-.322 1.916-.506 2.907-.546.605-.014 1.204.134 1.733.429.42.242.9.364 1.385.35.57.002 1.132-.135 1.638-.397.195-.089.394-.167.597-.234.07-.311.105-.63.105-.948-.006-2.363-1.926-4.274-4.289-4.268zm7.833-9.694H6.56c-.934 0-1.689.755-1.689 1.69V7.93h20.095V5.275c0-.934-.755-1.689-1.689-1.689zm-1.635 1.135c.609 0 1.103.495 1.103 1.097 0 .603-.489 1.097-1.092 1.097-.608.006-1.097-.483-1.102-1.091-.006-.608.483-1.103 1.091-1.103z"/>
</svg>
