<svg xmlns="http://www.w3.org/2000/svg" width="60" height="60" viewBox="0 0 60 60">
    <defs>
        <linearGradient id="prefix__a" x1="108.844%" x2="8.24%" y1="-2.981%" y2="86.79%">
            <stop offset="0%" stop-color="#A9CD6F"/>
            <stop offset="100%" stop-color="#7EB635"/>
        </linearGradient>
    </defs>
    <g fill="none" fill-rule="evenodd">
        <circle cx="30" cy="30" r="30" fill="#F3F8EC"/>
        <g>
            <path d="M0 0L36 0 36 36 0 36z" transform="translate(12 12)"/>
            <path fill="url(#prefix__a)" fill-rule="nonzero" d="M3 11.301C7.243 7.864 12.54 5.992 18 6c5.683 0 10.902 1.985 15 5.301l-2.5 3.094C26.964 11.531 22.55 9.972 18 9.98c-4.735 0-9.085 1.655-12.5 4.416L3 11.301zm4.166 5.16c3.064-2.483 6.89-3.836 10.834-3.83 4.103 0 7.873 1.434 10.834 3.828l-2.5 3.095c-2.357-1.91-5.3-2.949-8.334-2.944-3.156 0-6.056 1.104-8.334 2.944l-2.5-3.095v.001zm4.167 5.158c1.886-1.528 4.24-2.36 6.667-2.356 2.525 0 4.845.882 6.667 2.355l-2.5 3.096c-1.179-.955-2.65-1.475-4.167-1.473-1.517-.002-2.988.518-4.167 1.473l-2.5-3.096v.001zm4.167 5.16c.707-.574 1.59-.886 2.5-.885.947 0 1.817.332 2.5.883L18 29.873l-2.5-3.096v.002z" transform="translate(12 12)"/>
        </g>
    </g>
</svg>
