<svg xmlns="http://www.w3.org/2000/svg" width="30" height="30" viewBox="0 0 30 30">
    <path fill="#3CA160" fill-rule="evenodd" d="M14.927 22.325c.888 0 1.608.72 1.608 1.608 0 .888-.72 1.608-1.608 1.608-.888 0-1.608-.72-1.608-1.608 0-.888.72-1.608 1.608-1.608zm.04-5.946l.277.007c1.58.081 3.269.843 4.466 2.03.382.379.385.996.006 1.378-.378.383-.996.385-1.378.007-.902-.895-2.226-1.473-3.372-1.473h-.071c-1.146 0-2.47.578-3.372 1.473-.19.188-.438.282-.686.282-.25 0-.502-.096-.692-.289-.38-.382-.376-1 .006-1.378 1.268-1.256 3.086-2.037 4.744-2.037h.071zm.009-5.7c3.2 0 6.267 1.314 8.635 3.7.379.382.377 1-.005 1.378-.19.19-.439.283-.687.283-.25 0-.501-.096-.692-.288-1.999-2.014-4.574-3.123-7.251-3.123-2.678 0-5.254 1.11-7.252 3.123-.38.382-.996.385-1.378.006-.383-.38-.385-.997-.006-1.379 2.367-2.385 5.434-3.7 8.636-3.7zm0-5.655c4.673 0 9.01 1.893 12.214 5.33.367.394.345 1.01-.049 1.378-.188.175-.426.261-.664.261-.261 0-.521-.104-.713-.31-2.83-3.037-6.662-4.71-10.788-4.71-4.127 0-7.958 1.673-10.788 4.71-.367.394-.984.415-1.378.049-.394-.367-.415-.984-.048-1.378 3.203-3.437 7.54-5.33 12.213-5.33z"/>
</svg>
