<svg xmlns="http://www.w3.org/2000/svg" width="125" height="100" viewBox="0 0 125 100">
    <g fill="none" fill-rule="evenodd">
        <path fill="#B8DCC5" d="M80.295 97.05H24.191c-1.347-.35 17.355-.35 56.104 0z"/>
        <path fill="#B8DCC5" d="M106.432 42.892c-1.434 0-2.597 1.13-2.597 2.524v48.97l-5.192 2.912V39.31c-.004-.797-.395-1.545-1.054-2.019L63.837 13.044c-.916-.657-2.167-.657-3.084 0L27 37.291c-.66.474-1.05 1.222-1.054 2.019v56.075c-1.8.418-3.543 1.043-5.192 1.86v-51.83c0-1.393-1.163-2.523-2.596-2.523H10.46l51.834-37.23 51.835 37.23h-7.698z"/>
        <path fill="#3CA160" d="M98.643 25.483V2.523C98.643 1.13 97.48 0 96.047 0H85.66c-1.433 0-2.596 1.13-2.596 2.523v11.783L63.837.505c-.916-.658-2.167-.658-3.084 0L1.039 43.397c-.892.65-1.257 1.78-.908 2.81.35 1.028 1.335 1.725 2.45 1.732h12.981V100h93.466V47.938h12.981c1.115-.006 2.1-.703 2.45-1.732.35-1.028-.016-2.159-.908-2.809L98.643 25.483zM88.258 5.046h5.192v16.718l-5.192-3.729V5.046zm5.192 89.751H37.332c-2.02-.52-4.103-.017-6.192 0V40.581l31.155-22.38 31.155 22.38v54.216zm12.982-51.905c-1.434 0-2.597 1.13-2.597 2.524v48.97l-5.192 2.912V39.31c-.004-.797-.395-1.545-1.054-2.019L63.837 13.044c-.916-.657-2.167-.657-3.084 0L27 37.291c-.66.474-1.05 1.222-1.054 2.019v56.075c-1.8.418-3.543 1.043-5.192 1.86v-51.83c0-1.393-1.163-2.523-2.596-2.523H10.46l51.834-37.23 51.835 37.23h-7.698z"/>
        <path fill="#3CA160" fill-rule="nonzero" d="M79 63.225L66.937 63.225 66.937 75 57.994 75 57.994 63.225 46 63.225 46 54.775 57.994 54.775 57.994 43 66.937 43 66.937 54.775 79 54.775z"/>
    </g>
</svg>
