<svg width="16" height="16" viewBox="0 0 16 16" fill="none" xmlns="http://www.w3.org/2000/svg">
<path d="M6.16602 6.5C6.16602 6.36739 6.21869 6.24021 6.31246 6.14645C6.40623 6.05268 6.53341 6 6.66602 6H10.666C10.7986 6 10.9258 6.05268 11.0196 6.14645C11.1133 6.24021 11.166 6.36739 11.166 6.5C11.166 6.63261 11.1133 6.75979 11.0196 6.85355C10.9258 6.94732 10.7986 7 10.666 7H6.66602C6.53341 7 6.40623 6.94732 6.31246 6.85355C6.21869 6.75979 6.16602 6.63261 6.16602 6.5ZM6.66602 9H10.666C10.7986 9 10.9258 8.94732 11.0196 8.85355C11.1133 8.75979 11.166 8.63261 11.166 8.5C11.166 8.36739 11.1133 8.24021 11.0196 8.14645C10.9258 8.05268 10.7986 8 10.666 8H6.66602C6.53341 8 6.40623 8.05268 6.31246 8.14645C6.21869 8.24021 6.16602 8.36739 6.16602 8.5C6.16602 8.63261 6.21869 8.75979 6.31246 8.85355C6.40623 8.94732 6.53341 9 6.66602 9ZM14.666 12C14.666 12.5304 14.4553 13.0391 14.0802 13.4142C13.7052 13.7893 13.1964 14 12.666 14H5.66602C5.13558 14 4.62687 13.7893 4.2518 13.4142C3.87673 13.0391 3.66602 12.5304 3.66602 12V4C3.66602 3.73478 3.56066 3.48043 3.37312 3.29289C3.18559 3.10536 2.93123 3 2.66602 3C2.4008 3 2.14645 3.10536 1.95891 3.29289C1.77137 3.48043 1.66602 3.73478 1.66602 4C1.66602 4.35875 1.96789 4.60125 1.97102 4.60375C2.05377 4.66743 2.1145 4.75542 2.14471 4.85538C2.17491 4.95533 2.17306 5.06223 2.13942 5.16108C2.10578 5.25993 2.04204 5.34577 1.95714 5.40655C1.87223 5.46734 1.77043 5.50001 1.66602 5.5C1.55789 5.50019 1.4527 5.46483 1.36664 5.39937C1.29414 5.34625 0.666016 4.85063 0.666016 4C0.666016 3.46957 0.876729 2.96086 1.2518 2.58579C1.62687 2.21071 2.13558 2 2.66602 2H11.166C11.6964 2 12.2052 2.21071 12.5802 2.58579C12.9553 2.96086 13.166 3.46957 13.166 4V10.5H13.666C13.7742 10.5 13.8795 10.5351 13.966 10.6C14.041 10.6538 14.666 11.1494 14.666 12ZM6.18227 10.8425C6.21643 10.7417 6.28163 10.6542 6.36852 10.5927C6.45542 10.5312 6.55955 10.4987 6.66602 10.5H12.166V4C12.166 3.73478 12.0607 3.48043 11.8731 3.29289C11.6856 3.10536 11.4312 3 11.166 3H4.39664C4.57348 3.30357 4.66644 3.64868 4.66602 4V12C4.66602 12.2652 4.77137 12.5196 4.95891 12.7071C5.14645 12.8946 5.4008 13 5.66602 13C5.93123 13 6.18559 12.8946 6.37312 12.7071C6.56066 12.5196 6.66602 12.2652 6.66602 12C6.66602 11.6412 6.36414 11.3987 6.36102 11.3962C6.27581 11.3353 6.21244 11.2486 6.18025 11.1489C6.14807 11.0492 6.14878 10.9418 6.18227 10.8425ZM13.666 12C13.6598 11.8147 13.5883 11.6377 13.4641 11.5H7.58914C7.63939 11.6619 7.66489 11.8305 7.66477 12C7.66524 12.3512 7.57273 12.6962 7.39664 13H12.666C12.9312 13 13.1856 12.8946 13.3731 12.7071C13.5607 12.5196 13.666 12.2652 13.666 12Z" fill="#4B5563"/>
</svg>
