<svg width="11" height="8" viewBox="0 0 11 8" fill="none" xmlns="http://www.w3.org/2000/svg">
<path d="M9.89795 1.5391L3.89795 7.5391C3.84569 7.59154 3.78359 7.63315 3.71522 7.66154C3.64685 7.68993 3.57354 7.70455 3.49951 7.70455C3.42548 7.70455 3.35217 7.68993 3.2838 7.66154C3.21543 7.63315 3.15333 7.59154 3.10107 7.5391L0.476073 4.9141C0.42375 4.86178 0.382244 4.79966 0.353927 4.7313C0.32561 4.66293 0.311035 4.58966 0.311035 4.51566C0.311035 4.44167 0.32561 4.36839 0.353927 4.30003C0.382244 4.23167 0.42375 4.16955 0.476073 4.11723C0.528397 4.0649 0.590514 4.0234 0.658878 3.99508C0.727242 3.96676 0.800514 3.95219 0.874511 3.95219C0.948508 3.95219 1.02178 3.96676 1.09014 3.99508C1.15851 4.0234 1.22062 4.0649 1.27295 4.11723L3.49998 6.34426L9.10201 0.743163C9.20768 0.637491 9.351 0.578125 9.50045 0.578125C9.64989 0.578125 9.79321 0.637491 9.89889 0.743163C10.0046 0.848835 10.0639 0.992158 10.0639 1.1416C10.0639 1.29104 10.0046 1.43437 9.89889 1.54004L9.89795 1.5391Z" fill="#6B7280"/>
</svg>
