<svg xmlns="http://www.w3.org/2000/svg" width="183" height="40" viewBox="0 0 183 40">
    <g fill="#FFF" fill-rule="evenodd">
        <path d="M15.384 14.881L11.889 4.878c-.33-.887-.66-2.291-.66-2.291s-.33 1.404-.66 2.29L7.007 14.92l8.377-.039zM11.03 0h.395l9.109 25.424h-1.386l-3.27-9.213-9.334.04-3.236 9.173H1.956L11.03 0zM90.678 14.881L87.183 4.878c-.33-.887-.66-2.291-.66-2.291s-.33 1.404-.66 2.29L82.301 14.92l8.377-.039zM86.325 0h.396l9.108 25.424h-1.386l-3.27-9.213-9.334.04-3.236 9.173H77.25L86.325 0zM35.502 2.324L28.358 2.324 28.358.978 44.003.978 44.003 2.324 36.859 2.324 36.859 26.402 35.502 26.402 35.502 2.324M60.926 2.324L53.782 2.324 53.782.978 69.427.978 69.427 2.324 62.282 2.324 62.282 26.402 60.926 26.402 60.926 2.324M105.607 13.2c0-7.851 5.117-13.2 11.416-13.2 3.903 0 6.987 1.745 8.857 4.894l-1.017.872c-1.64-2.693-4.297-4.363-7.84-4.363-5.74 0-10.038 5.046-10.038 11.798s4.297 11.797 10.038 11.797c3.444 0 6.331-1.67 8.102-4.59l1.017.835c-1.968 3.3-5.248 5.159-9.12 5.159-6.298 0-11.415-5.349-11.415-13.201M138.854.978L140.221.978 140.221 13.74 152.155 13.74 152.155.978 153.522.978 153.522 26.402 152.155 26.402 152.155 15.124 140.221 15.124 140.221 26.402 138.854 26.402 138.854.978M168.189.978L181.413.978 181.413 2.324 169.555 2.324 169.555 13.427 180.18 13.427 180.18 14.773 169.555 14.773 169.555 25.056 181.879 25.056 181.879 26.402 168.189 26.402 168.189.978M0 34.225c0-2.909 2.193-4.89 4.893-4.89 1.672 0 2.994.647 3.795 1.813l-.435.323c-.703-.998-1.842-1.616-3.36-1.616-2.46 0-4.303 1.87-4.303 4.37s1.842 4.37 4.303 4.37c1.476 0 2.713-.62 3.472-1.7l.436.308c-.844 1.222-2.25 1.91-3.908 1.91-2.7 0-4.893-1.98-4.893-4.888M21.9 34.225c0-2.5-1.84-4.37-4.299-4.37-2.459 0-4.299 1.87-4.299 4.37s1.84 4.37 4.3 4.37c2.458 0 4.298-1.87 4.298-4.37zm-9.188 0c0-2.909 2.192-4.89 4.89-4.89 2.697 0 4.888 1.981 4.888 4.89 0 2.908-2.191 4.889-4.889 4.889-2.697 0-4.889-1.981-4.889-4.89zM29.27 35.936c2.443 0 3.31-1.424 3.31-3.035 0-1.61-.867-3.048-3.31-3.048h-1.308v6.083h1.307zm3.977 3.178h-.696l-2.017-2.79c-.356.086-.768.13-1.208.13h-1.364v2.66h-.582v-9.779h1.946c2.614 0 3.85 1.582 3.85 3.566 0 1.439-.668 2.675-2.074 3.236l2.145 2.977zM40.077 36.08c2.459 0 3.322-1.38 3.322-3.106 0-1.74-.863-3.121-3.322-3.121h-1.351v6.227h1.351zm-1.941-6.745h1.999c2.645 0 3.868 1.51 3.868 3.639 0 2.056-1.223 3.624-3.868 3.624h-1.41v2.516h-.589v-9.779zM57.103 34.225c0-2.5-1.84-4.37-4.299-4.37-2.459 0-4.3 1.87-4.3 4.37s1.841 4.37 4.3 4.37c2.459 0 4.299-1.87 4.299-4.37zm-9.189 0c0-2.909 2.192-4.89 4.89-4.89 2.698 0 4.889 1.981 4.889 4.89 0 2.908-2.191 4.889-4.889 4.889-2.698 0-4.89-1.981-4.89-4.89zM63.494 35.936c2.443 0 3.31-1.424 3.31-3.035 0-1.61-.867-3.048-3.31-3.048h-1.307v6.083h1.307zm3.977 3.178h-.696l-2.017-2.79c-.355.086-.767.13-1.208.13h-1.363v2.66h-.583v-9.779h1.946c2.614 0 3.85 1.582 3.85 3.566 0 1.439-.667 2.675-2.074 3.236l2.145 2.977zM77.69 36.726l-2.125-5.514c-.139-.341-.278-.882-.278-.882s-.139.54-.278.882l-2.14 5.514h4.822zm-2.486-7.39h.166l3.836 9.778h-.584l-.723-1.876h-5.224l-.723 1.876h-.57l3.822-9.779zM85.265 29.853L82.139 29.853 82.139 29.335 88.984 29.335 88.984 29.853 85.858 29.853 85.858 39.114 85.265 39.114 85.265 29.853M92.895 29.335L98.563 29.335 98.563 29.853 93.481 29.853 93.481 35.087 98.035 35.087 98.035 35.605 93.481 35.605 93.481 38.596 98.762 38.596 98.762 39.114 92.895 39.114 92.895 29.335M109.519 29.335L110.106 29.335 110.106 35.087 115.777 35.087 115.777 29.335 116.364 29.335 116.364 39.114 115.777 39.114 115.777 35.619 110.106 35.619 110.106 39.114 109.519 39.114 109.519 29.335M129.464 34.225c0-2.5-1.84-4.37-4.3-4.37-2.458 0-4.299 1.87-4.299 4.37s1.84 4.37 4.3 4.37c2.458 0 4.299-1.87 4.299-4.37zm-9.189 0c0-2.909 2.192-4.89 4.89-4.89 2.697 0 4.888 1.981 4.888 4.89 0 2.908-2.191 4.889-4.889 4.889-2.697 0-4.889-1.981-4.889-4.89zM134.943 35.788v-6.453h.611v6.41c0 1.862 1.134 2.857 2.804 2.857 1.655 0 2.818-.995 2.818-2.857v-6.41h.612v6.453c0 2.175-1.492 3.326-3.43 3.326-1.954 0-3.415-1.151-3.415-3.326M145.699 37.203l.479-.239c.437.843 1.135 1.644 2.626 1.644 1.217 0 2.215-.73 2.215-1.939 0-1.11-.602-1.714-1.901-2.332l-.862-.407c-1.298-.619-1.941-1.25-1.941-2.459 0-1.32 1.025-2.136 2.283-2.136 1.245 0 1.942.66 2.38 1.377l-.438.296c-.383-.633-.916-1.166-1.942-1.166-1.094 0-1.736.645-1.736 1.615 0 .955.465 1.419 1.613 1.967l.862.407c1.504.703 2.23 1.517 2.23 2.838 0 1.49-1.15 2.445-2.75 2.445-1.764 0-2.667-.956-3.118-1.91M156.455 39.114L157.433 39.114 157.433 29.335 156.455 29.335zM163.203 31.19c-.173-.239-.413-.632-.413-.632s.04.435.04.716v7.727h-.508v-9.666h.16l5.805 7.924c.173.24.413.632.413.632s-.04-.435-.04-.716v-7.727h.507v9.666h-.16l-5.804-7.924M182.857 34.745v2.95c-.778.786-2.009 1.419-3.848 1.419-2.745 0-4.952-1.981-4.952-4.89 0-2.908 2.22-4.889 4.966-4.889 1.302 0 2.504.38 3.283 1.195l-.382.393c-.694-.716-1.684-1.068-2.9-1.068-2.506 0-4.373 1.87-4.373 4.37s1.867 4.37 4.358 4.37c1.641 0 2.646-.535 3.282-1.125v-2.22"/>
    </g>
</svg>
