<svg xmlns="http://www.w3.org/2000/svg" width="30" height="30" viewBox="0 0 30 30">
    <g fill="none" fill-rule="evenodd">
        <g>
            <g>
                <g>
                    <g transform="translate(-31 -368) translate(31 368)">
                        <circle cx="15" cy="15" r="14.5" stroke="#F4F5F7"/>
                        <g opacity=".5">
                            <path fill="#B8DCC5" stroke="#3CA160" d="M11.113 12L13.231 15.654 9 15.654z" transform="translate(3.782 8.5)"/>
                            <path fill="#71BA8B" d="M0 10H21.538V11H0z" transform="translate(3.782 8.5)"/>
                            <g>
                                <path fill="#B8DCC5" d="M5.864.192l5.48 3.993h-1.43v4.696l-.952.542V3.617L5.864 1.36 2.766 3.617v5.416c-.237.03-.465.105-.674.22l-.28.152v-5.22H.383L5.865.192zM3.139 9.02c.056.003.11.01.165.018-.055-.008-.11-.014-.165-.018zm-.128-.004l.123.004c-.123-.008-.246-.003-.368.013l.245-.017zM8.96.192V2.45l-.953-.694V.192h.954z" transform="translate(3.782 8.5) translate(10.963)"/>
                                <path fill="#3CA160" d="M9.174 2.401V.238C9.174.106 9.068 0 8.937 0h-.945c-.131 0-.237.106-.237.238v1.11l-1.75-1.3c-.084-.062-.198-.062-.282 0L.285 4.089c-.081.062-.114.168-.082.265.031.097.121.163.223.163h1.182v4.906h8.512V4.517h1.182c.101 0 .191-.066.223-.163s-.002-.203-.083-.265L9.174 2.401zM8.228.476h.473V2.05l-.473-.352V.476zm.473 8.457H3.59c-.185-.05-.374-.002-.565 0V3.824l2.838-2.109L8.7 3.824v5.109zm1.182-4.891c-.13 0-.236.106-.236.238v4.614l-.473.274V3.704c0-.075-.036-.145-.096-.19L6.004 1.229c-.083-.062-.197-.062-.28 0L2.65 3.514c-.06.045-.096.115-.096.19v5.284c-.164.04-.323.098-.473.175V4.28c0-.132-.106-.238-.237-.238h-.7L5.863.534l4.72 3.508h-.7z" transform="translate(3.782 8.5) translate(10.963)"/>
                            </g>
                            <g>
                                <path fill="#B8DCC5" d="M1.04 5.256H.001c.001.692.408 1.318 1.037 1.598v.838h1.038v-.73c.87-.178 1.465-.991 1.376-1.88-.09-.89-.834-1.566-1.722-1.566-.382 0-.692-.311-.692-.695 0-.385.31-.696.692-.696.382 0 .691.311.691.696H3.46c-.002-.692-.408-1.319-1.038-1.598V.385H1.385v.73c-.87.178-1.465.991-1.376 1.88.09.89.834 1.566 1.722 1.565.382 0 .691.312.691.696 0 .385-.31.696-.691.696-.382 0-.69-.312-.692-.696z" transform="translate(3.782 8.5) translate(1.73 1.538)"/>
                                <path fill="#3CA160" fill-rule="nonzero" d="M1.411.343v.46C.44 1.136-.144 2.103.031 3.09c.174.988 1.055 1.71 2.085 1.71.194 0 .352.153.352.342 0 .19-.158.343-.352.343-.195 0-.353-.154-.353-.343 0-.19-.157-.343-.352-.343H.355c-.195 0-.353.154-.353.343.002.735.404 1.414 1.057 1.783v.617c0 .19.158.343.352.343h1.057c.194 0 .352-.154.352-.343v-.46c.68-.234 1.191-.79 1.355-1.474.164-.684-.041-1.402-.545-1.906L3.627 3.7c-.399-.394-.943-.615-1.511-.615-.195 0-.353-.153-.353-.343 0-.189.158-.342.353-.342.194 0 .352.153.352.342 0 .19.158.343.352.343h1.057c.194 0 .352-.153.352-.343C4.228 2.008 3.825 1.33 3.172.96V.343C3.172.153 3.015 0 2.82 0H1.763c-.194 0-.352.153-.352.343zm.705.72V.686h.352v.483c0 .136.082.258.21.313.397.171.692.509.802.918h-.368c-.179-.493-.71-.777-1.233-.66-.524.118-.874.599-.813 1.119.06.52.512.912 1.05.912.38 0 .743.149 1.01.411.36.36.489.882.337 1.362-.152.48-.56.84-1.066.942-.164.032-.281.173-.281.336v.377h-.353v-.483c0-.136-.082-.259-.21-.314-.396-.17-.691-.508-.801-.917h.367c.18.493.71.777 1.234.66.523-.118.873-.6.812-1.119-.06-.52-.512-.912-1.05-.912-.379-.001-.742-.15-1.008-.412-.36-.36-.49-.881-.338-1.36.151-.48.56-.842 1.064-.943.165-.033.283-.173.283-.336z" transform="translate(3.782 8.5) translate(1.73 1.538)"/>
                            </g>
                        </g>
                    </g>
                </g>
            </g>
        </g>
    </g>
</svg>
