<svg xmlns="http://www.w3.org/2000/svg" width="66" height="81" viewBox="0 0 66 81">
    <g fill="none" fill-rule="evenodd" opacity=".112">
        <path fill="#B8DCC5" d="M3 4h67v36.111c-.21-.146-.21 17.817 0 53.889H3V4z"/>
        <path fill="#3CA160" d="M17.846 33h40.308c1.02 0 1.846-.895 1.846-2s-.826-2-1.846-2H17.846c-1.02 0-1.846.895-1.846 2s.826 2 1.846 2zM26.922 22h22.156C50.14 22 51 21.105 51 20s-.86-2-1.922-2H26.922C25.86 18 25 18.895 25 20s.86 2 1.922 2zM17.846 44h40.308c1.02 0 1.846-.895 1.846-2s-.826-2-1.846-2H17.846c-1.02 0-1.846.895-1.846 2s.826 2 1.846 2zM20.5 63.796c1.423 0 2.58.957 2.58 2.134 0 1.069.878 1.936 1.96 1.936 1.083 0 1.96-.867 1.96-1.936 0-2.68-1.911-4.956-4.54-5.725v-.27c0-1.068-.878-1.935-1.96-1.935-1.082 0-1.96.867-1.96 1.936v.269c-2.629.77-4.54 3.045-4.54 5.725 0 3.311 2.916 6.006 6.5 6.006 1.423 0 2.58.957 2.58 2.134 0 1.176-1.157 2.134-2.58 2.134s-2.58-.958-2.58-2.134c0-1.07-.878-1.936-1.96-1.936-1.083 0-1.96.867-1.96 1.936 0 2.68 1.911 4.956 4.54 5.725v.27c0 1.068.878 1.935 1.96 1.935 1.082 0 1.96-.867 1.96-1.936v-.269c2.63-.77 4.54-3.045 4.54-5.725 0-3.312-2.916-6.006-6.5-6.006-1.423 0-2.58-.957-2.58-2.134s1.157-2.134 2.58-2.134zM38.065 50h-21.13C15.866 50 15 50.896 15 52s.866 2 1.935 2h21.13C39.134 54 40 53.104 40 52s-.866-2-1.935-2z"/>
        <path fill="#3CA160" d="M74 43.412V1.895C74 .848 73.16 0 72.122 0H1.878C.841 0 0 .848 0 1.895v93.21C0 96.152.84 97 1.878 97h70.244C73.159 97 74 96.152 74 95.105V43.412zM3.756 3.79h66.488v35.88c-.208-.146-.208 17.701 0 53.542H3.756V3.789z"/>
    </g>
</svg>
