<svg xmlns="http://www.w3.org/2000/svg" width="16" height="16" viewBox="0 0 16 16">
    <g fill="none" fill-rule="evenodd">
        <g>
            <g>
                <g>
                    <path d="M0 0L24 0 24 24 0 24z" transform="translate(-1185 -207) translate(290 190) translate(891 13)"/>
                    <path fill="#A9A9A9" fill-rule="nonzero" d="M16 7.2h4v1.6h-1.6v10.4c0 .442-.358.8-.8.8H6.4c-.442 0-.8-.358-.8-.8V8.8H4V7.2h4V4.8c0-.442.358-.8.8-.8h6.4c.442 0 .8.358.8.8v2.4zm-6.4 4V16h1.6v-4.8H9.6zm3.2 0V16h1.6v-4.8h-1.6zM9.6 5.6v1.6h4.8V5.6H9.6z" transform="translate(-1185 -207) translate(290 190) translate(891 13)"/>
                </g>
            </g>
        </g>
    </g>
</svg>
