<svg width="23" height="23" viewBox="0 0 23 23" fill="none" xmlns="http://www.w3.org/2000/svg">
<path d="M21.3982 1.94954C20.1264 0.678277 18.0026 0.678277 16.7314 1.94954L15.1739 3.50698L2.13164 16.5498L0.771768 21.4753L0.353516 22.9997L1.87793 22.576L6.7979 21.2222L19.8408 8.1793L21.3982 6.62186C22.6689 5.35059 22.6689 3.22631 21.3982 1.94954Z" fill="#3ca160"/>
<path d="M1.87738 22.5772L0.353516 23.001L0.771217 21.4766L1.87738 22.5772Z" fill="#3ca160"/>
<path d="M21.3981 1.94954C22.6693 3.22631 22.6693 5.35059 21.3981 6.62186L19.8406 8.1793L15.1738 3.50698L16.7313 1.94954C18.0025 0.678277 20.1263 0.678277 21.3981 1.94954Z" fill="#3ca160"/>
<path d="M2.13135 16.5508L6.79816 21.2231L1.87765 22.5769L0.771484 21.4762L2.13135 16.5508Z" fill="#3ca160"/>
</svg>
