<svg xmlns="http://www.w3.org/2000/svg" width="24" height="24" viewBox="0 0 24 24">
    <g fill="none" fill-rule="evenodd">
        <path fill="#D8D8D8" fill-opacity="0" d="M0 0H24V24H0z"/>
        <path fill="#A9A9A9" fill-rule="nonzero" d="M19.085 4.13c.174-.173.455-.173.629 0 .173.173.173.455 0 .628l-2.835 2.834c3.254 1.76 5.593 4.506 5.692 4.625.143.17.144.417.001.585-.208.248-5.158 6.055-10.713 6.055-1.65 0-3.307-.397-4.925-1.183-.03-.015-.058-.032-.083-.052L4.602 19.87c-.086.086-.2.13-.314.13-.113 0-.227-.044-.314-.13-.174-.173-.174-.455 0-.628zm-2.874 4.131l-1.56 1.56.018.013c.686.57 1.088 1.316 1.145 2.116l.007.201c0 1.808-1.763 3.278-3.932 3.278-.819 0-1.6-.207-2.255-.591L7.522 16.95c1.433.664 2.89 1 4.337 1 4.458 0 8.688-4.27 9.763-5.441-.708-.77-2.778-2.875-5.37-4.224-.014-.008-.028-.016-.04-.025zM11.5 6.286c.913 0 1.882.17 2.88.505.23.078.354.326.276.556-.076.23-.325.358-.555.275-.908-.304-1.783-.459-2.6-.459-4.374 0-8.52 4.193-9.53 5.29.474.603 1.738 2.086 3.585 3.314.202.133.257.406.123.607-.084.129-.224.197-.365.197-.085 0-.168-.023-.243-.073-2.515-1.67-3.966-3.73-4.027-3.817-.114-.165-.103-.384.025-.535.203-.24 5.023-5.86 10.431-5.86zm2.52 4.167l-3.752 3.752c.477.263 1.036.404 1.622.404 1.626 0 2.95-1.103 2.95-2.458 0-.657-.308-1.274-.865-1.738l.044.04zM11.4 8.571c.213 0 .42.026.624.062.242.043.405.276.362.518-.043.243-.28.41-.518.362-.152-.026-.307-.047-.468-.047-1.48 0-2.684 1.204-2.684 2.684 0 .16.02.316.048.468.043.242-.12.475-.362.518-.027.005-.053.007-.079.007-.212 0-.4-.153-.439-.37-.037-.203-.063-.41-.063-.623 0-1.974 1.605-3.579 3.58-3.579z"/>
    </g>
</svg>
