<svg xmlns="http://www.w3.org/2000/svg" width="24" height="24" viewBox="0 0 24 24">
    <g fill="none" fill-rule="evenodd">
        <path fill="#D8D8D8" fill-opacity="0" d="M0 0H24V24H0z"/>
        <path stroke="#A9A9A9" d="M1.45 12.47h-.001s0 0 0 0zm.03-.037c.197.276.541.706 1.022 1.221.824.884 1.776 1.717 2.847 2.428-.002 0 .25.184.4.29.273.19.556.376.846.55.333.198.654.368.954.499.13.056.253.105.396.154 1.296.52 2.608.782 3.914.782 2.31 0 4.712-1.055 7.06-2.833 1.437-1.088 2.565-2.21 3.245-3.014-.208-.237-.866-.88-1.602-1.504-1.236-1.05-2.598-2.002-4.041-2.754-.533-.281-1.795-.856-2.19-.947l-.118-.043.007.003c-.947-.319-1.863-.48-2.72-.48-2.247 0-4.584 1.02-6.868 2.74-1.394 1.05-2.49 2.132-3.152 2.908zm20.708.105s0 0 0 0 0 0 0 0zm-7.92-5.387s0 0 0 0 0 0 0 0zm-.079-.025l.002-.006.067.021c.337.11.69.247 1.055.41.275.121.544.25.812.388.155.079.498.26.446.233 2.205 1.148 4.3 2.783 5.419 3.999l.311.338-.31.339c-.982 1.069-2.245 2.224-3.697 3.232-2.157 1.497-4.328 2.37-6.435 2.37-1.591 0-3.19-.385-4.713-1.126l-.12-.049c-.433-.224-.827-.46-1.197-.707-.205-.137-.567-.396-.55-.385-1.54-1.023-2.792-2.261-3.702-3.421l-.262-.335.288-.312c.948-1.03 2.171-2.148 3.586-3.129C7.303 7.52 9.432 6.663 11.5 6.663c.85 0 1.752.155 2.69.463zM12 9.5c-1.947 0-3.5 1.36-3.5 3s1.553 3 3.5 3 3.5-1.36 3.5-3-1.553-3-3.5-3z"/>
    </g>
</svg>
