<svg width="16" height="16" viewBox="0 0 16 16" fill="none" xmlns="http://www.w3.org/2000/svg">
<path d="M14.166 7.16602H13.1429C13.0867 6.541 12.923 5.93037 12.6591 5.36102L13.5454 4.84914C13.6603 4.78284 13.7441 4.67362 13.7784 4.5455C13.8128 4.41739 13.7948 4.28089 13.7285 4.16602C13.6622 4.05114 13.553 3.96732 13.4249 3.93297C13.2968 3.89863 13.1603 3.91659 13.0454 3.98289L12.1579 4.49539C11.7953 3.98345 11.3486 3.5367 10.8366 3.17414L11.3491 2.28664C11.4154 2.17177 11.4334 2.03526 11.3991 1.90715C11.3647 1.77904 11.2809 1.66982 11.166 1.60352C11.0511 1.53721 10.9146 1.51926 10.7865 1.5536C10.6584 1.58794 10.5492 1.67177 10.4829 1.78664L9.97102 2.67289C9.40166 2.40901 8.79103 2.24536 8.16602 2.18914V1.16602C8.16602 1.03341 8.11334 0.90623 8.01957 0.812462C7.9258 0.718694 7.79862 0.666016 7.66602 0.666016C7.53341 0.666016 7.40623 0.718694 7.31246 0.812462C7.21869 0.90623 7.16602 1.03341 7.16602 1.16602V2.18914C6.541 2.24536 5.93037 2.40901 5.36102 2.67289L4.84914 1.78664C4.81631 1.72976 4.7726 1.67991 4.7205 1.63992C4.6684 1.59994 4.60894 1.5706 4.5455 1.5536C4.48207 1.53659 4.41591 1.53225 4.3508 1.54081C4.28568 1.54938 4.22289 1.57069 4.16602 1.60352C4.05114 1.66982 3.96732 1.77904 3.93297 1.90715C3.89863 2.03526 3.91659 2.17177 3.98289 2.28664L4.49539 3.17414C3.98345 3.5367 3.5367 3.98345 3.17414 4.49539L2.28664 3.98289C2.17177 3.91659 2.03526 3.89863 1.90715 3.93297C1.77904 3.96732 1.66982 4.05114 1.60352 4.16602C1.53721 4.28089 1.51926 4.41739 1.5536 4.5455C1.58794 4.67362 1.67177 4.78284 1.78664 4.84914L2.67289 5.36102C2.40901 5.93037 2.24536 6.541 2.18914 7.16602H1.16602C1.03341 7.16602 0.90623 7.21869 0.812462 7.31246C0.718694 7.40623 0.666016 7.53341 0.666016 7.66602C0.666016 7.79862 0.718694 7.9258 0.812462 8.01957C0.90623 8.11334 1.03341 8.16602 1.16602 8.16602H2.18914C2.24536 8.79103 2.40901 9.40166 2.67289 9.97102L1.78664 10.4829C1.69126 10.5379 1.61671 10.6229 1.57455 10.7246C1.53239 10.8263 1.52499 10.9391 1.55348 11.0454C1.58197 11.1518 1.64477 11.2457 1.73214 11.3127C1.8195 11.3798 1.92654 11.4161 2.03664 11.416C2.12443 11.4163 2.21071 11.3932 2.28664 11.3491L3.17414 10.8366C3.5367 11.3486 3.98345 11.7953 4.49539 12.1579L3.98289 13.0454C3.91659 13.1603 3.89863 13.2968 3.93297 13.4249C3.96732 13.553 4.05114 13.6622 4.16602 13.7285C4.28089 13.7948 4.41739 13.8128 4.5455 13.7784C4.67362 13.7441 4.78284 13.6603 4.84914 13.5454L5.36102 12.6591C5.93037 12.923 6.541 13.0867 7.16602 13.1429V14.166C7.16602 14.2986 7.21869 14.4258 7.31246 14.5196C7.40623 14.6133 7.53341 14.666 7.66602 14.666C7.79862 14.666 7.9258 14.6133 8.01957 14.5196C8.11334 14.4258 8.16602 14.2986 8.16602 14.166V13.1429C8.79103 13.0867 9.40166 12.923 9.97102 12.6591L10.4829 13.5454C10.5492 13.6603 10.6584 13.7441 10.7865 13.7784C10.9146 13.8128 11.0511 13.7948 11.166 13.7285C11.2809 13.6622 11.3647 13.553 11.3991 13.4249C11.4334 13.2968 11.4154 13.1603 11.3491 13.0454L10.8366 12.1579C11.3486 11.7953 11.7953 11.3486 12.1579 10.8366L13.0454 11.3491C13.1023 11.382 13.1651 11.4033 13.2302 11.4119C13.2953 11.4204 13.3615 11.4161 13.4249 11.3991C13.4883 11.3821 13.5478 11.3528 13.5999 11.3128C13.652 11.2728 13.6957 11.2229 13.7285 11.166C13.7949 11.0512 13.813 10.9148 13.7787 10.7867C13.7445 10.6585 13.6608 10.5493 13.546 10.4829L12.6598 9.97102C12.9234 9.40162 13.0869 8.79099 13.1429 8.16602H14.166C14.2986 8.16602 14.4258 8.11334 14.5196 8.01957C14.6133 7.9258 14.666 7.79862 14.666 7.66602C14.666 7.53341 14.6133 7.40623 14.5196 7.31246C14.4258 7.21869 14.2986 7.16602 14.166 7.16602ZM7.66602 3.16602C8.77245 3.16733 9.83971 3.57577 10.6643 4.31348C11.4889 5.05118 12.0132 6.06655 12.1373 7.16602H7.95477L5.86352 3.54414C6.43162 3.29445 7.04546 3.16568 7.66602 3.16602ZM3.16602 7.66602C3.1664 6.96112 3.33237 6.26616 3.65056 5.63716C3.96875 5.00816 4.43026 4.46271 4.99789 4.04477L7.08852 7.66602L4.99789 11.2873C4.43026 10.8693 3.96875 10.3239 3.65056 9.69487C3.33237 9.06587 3.1664 8.37092 3.16602 7.66602ZM7.66602 12.166C7.04568 12.1673 6.43185 12.0396 5.86352 11.791L7.95477 8.16602H12.1373C12.0132 9.26548 11.4889 10.2808 10.6643 11.0186C9.83971 11.7563 8.77245 12.1647 7.66602 12.166Z" fill="#4B5563"/>
</svg>
