<svg xmlns="http://www.w3.org/2000/svg" width="25" height="25" viewBox="0 0 25 25">
    <path fill="#2673B0" d="M22.963 14.695v7.38h-4.279V15.19c0-1.73-.618-2.91-2.167-2.91-1.183 0-1.886.795-2.196 1.565-.113.275-.142.658-.142 1.043v7.188H9.9s.058-11.663 0-12.871h4.28v1.824c-.009.014-.02.028-.028.042h.028v-.042c.569-.876 1.584-2.127 3.857-2.127 2.816 0 4.927 1.84 4.927 5.793zM5.422 3C3.958 3 3 3.96 3 5.223c0 1.236.93 2.225 2.365 2.225h.029c1.492 0 2.42-.989 2.42-2.225C7.788 3.96 6.887 3 5.423 3zM3.254 22.076h4.279V9.205H3.254v12.87z"/>
</svg>
