<svg xmlns="http://www.w3.org/2000/svg" width="32" height="32" viewBox="0 0 32 32">
    <g fill="none" fill-rule="evenodd">
        <g>
            <g>
                <g transform="translate(-204 -59) translate(30 30) translate(175 30)">
                    <circle cx="15" cy="15" r="15.5" fill="#FFF" stroke="#3CA160"/>
                    <path fill="#3CA160" fill-rule="nonzero" d="M14.3 5c.433 0 .787.12 1.063.362.275.242.412.575.412 1 0 .426-.18.809-.537 1.15-.359.342-.763.513-1.213.513-.45 0-.817-.133-1.1-.4-.283-.267-.425-.617-.425-1.05 0-.433.196-.804.588-1.112.391-.309.795-.463 1.212-.463zm.975 7.075V21.7c0 .483.208.808.625.975-.35.533-.783.8-1.3.8-.933 0-1.4-.583-1.4-1.75v-9.6c0-.483-.208-.817-.625-1 .317-.533.75-.8 1.3-.8.933 0 1.4.583 1.4 1.75z"/>
                </g>
            </g>
        </g>
    </g>
</svg>
