<svg width="16" height="16" viewBox="0 0 16 16" fill="none" xmlns="http://www.w3.org/2000/svg">
<path d="M13.3538 5.14625L9.85375 1.64625C9.80728 1.59983 9.75212 1.56303 9.69143 1.53793C9.63073 1.51284 9.56568 1.49995 9.5 1.5H3.5C3.23478 1.5 2.98043 1.60536 2.79289 1.79289C2.60536 1.98043 2.5 2.23478 2.5 2.5V13.5C2.5 13.7652 2.60536 14.0196 2.79289 14.2071C2.98043 14.3946 3.23478 14.5 3.5 14.5H12.5C12.7652 14.5 13.0196 14.3946 13.2071 14.2071C13.3946 14.0196 13.5 13.7652 13.5 13.5V5.5C13.5001 5.43432 13.4872 5.36927 13.4621 5.30858C13.437 5.24788 13.4002 5.19272 13.3538 5.14625ZM10 3.20688L11.7931 5H10V3.20688ZM12.5 13.5H3.5V2.5H9V5.5C9 5.63261 9.05268 5.75979 9.14645 5.85355C9.24021 5.94732 9.36739 6 9.5 6H12.5V13.5ZM9.65375 10.4469C9.94883 9.97798 10.0608 9.4168 9.9683 8.87056C9.87578 8.32432 9.58525 7.83131 9.15222 7.48574C8.71919 7.14016 8.17402 6.96624 7.62087 6.99721C7.06772 7.02818 6.54536 7.26186 6.15361 7.65361C5.76186 8.04536 5.52818 8.56772 5.49721 9.12087C5.46624 9.67402 5.64016 10.2192 5.98574 10.6522C6.33131 11.0853 6.82432 11.3758 7.37056 11.4683C7.9168 11.5608 8.47798 11.4488 8.94687 11.1538L9.64625 11.8538C9.6927 11.9002 9.74786 11.9371 9.80855 11.9622C9.86925 11.9873 9.9343 12.0003 10 12.0003C10.0657 12.0003 10.1308 11.9873 10.1914 11.9622C10.2521 11.9371 10.3073 11.9002 10.3538 11.8538C10.4002 11.8073 10.4371 11.7521 10.4622 11.6914C10.4873 11.6308 10.5003 11.5657 10.5003 11.5C10.5003 11.4343 10.4873 11.3692 10.4622 11.3086C10.4371 11.2479 10.4002 11.1927 10.3538 11.1462L9.65375 10.4469ZM6.5 9.25C6.5 9.00277 6.57331 8.7611 6.71066 8.55554C6.84801 8.34998 7.04324 8.18976 7.27165 8.09515C7.50005 8.00054 7.75139 7.97579 7.99386 8.02402C8.23634 8.07225 8.45907 8.1913 8.63388 8.36612C8.8087 8.54093 8.92775 8.76366 8.97598 9.00614C9.02421 9.24861 8.99946 9.49995 8.90485 9.72835C8.81024 9.95676 8.65002 10.152 8.44446 10.2893C8.2389 10.4267 7.99723 10.5 7.75 10.5C7.41848 10.5 7.10054 10.3683 6.86612 10.1339C6.6317 9.89946 6.5 9.58152 6.5 9.25Z" fill="#2563EB"/>
</svg>
