<svg xmlns="http://www.w3.org/2000/svg" width="30" height="30" viewBox="0 0 30 30">
    <g fill="none" fill-rule="evenodd" opacity=".5">
        <g>
            <circle cx="15" cy="15" r="14.5" stroke="#F4F5F7"/>
            <g>
                <path fill="#B8DCC5" d="M16.862 10.757L13.266 7.16V.313c0-.173-.14-.313-.313-.313H1.266C1.093 0 .953.14.953.313v15.374c0 .173.14.313.313.313h14.762c.173 0 .313-.14.313-.313V11.29h.3c.126 0 .24-.076.288-.193.049-.116.022-.25-.067-.34z" transform="translate(7 7)"/>
                <path fill="#3CA160" d="M12.64.625v5.918c-.051-.036-.113-.056-.177-.056-.083 0-.163.033-.221.092l-4.178 4.178c-.09.09-.116.224-.068.34.049.117.162.193.289.193h.3v4.085H1.578V.625h11.063zm.916 12.04v2.71H11.37v-2.71h2.187zm-1.093-5.423l3.423 3.423H13.87c-.173 0-.313.14-.313.313 0 .172.14.312.313.312h1.847v4.085H14.18v-3.022c0-.173-.14-.313-.312-.313h-2.813c-.172 0-.312.14-.312.313v3.022H9.21V11.29h1.846c.173 0 .313-.14.313-.312 0-.173-.14-.313-.313-.313H9.04l3.424-3.423zM4.953 10c-.143 0-.262.106-.293.249l-.008.074v.044l-.108.041c-.348.157-.59.508-.59.914 0 .552.448 1 1 1 .218 0 .396.16.396.356 0 .196-.178.356-.397.356-.219 0-.397-.16-.397-.356 0-.178-.135-.322-.301-.322-.167 0-.302.144-.302.322 0 .406.243.757.591.914l.108.04v.045l.008.074c.03.143.15.249.293.249s.262-.106.294-.249l.008-.074v-.044l.107-.042c.348-.156.591-.507.591-.913 0-.552-.448-1-1-1-.219 0-.397-.16-.397-.356 0-.196.178-.356.397-.356.22 0 .397.16.397.356 0 .178.135.322.302.322.166 0 .301-.144.301-.322 0-.406-.243-.757-.59-.914l-.108-.04v-.045l-.008-.074c-.032-.143-.151-.249-.294-.249zm7.5 0c-.132 0-.26.053-.353.146-.094.093-.147.222-.147.354 0 .132.053.26.147.353.093.093.222.147.353.147.132 0 .26-.053.354-.147.093-.092.146-.221.146-.353 0-.132-.053-.26-.146-.354-.093-.093-.222-.146-.354-.146zM7.69 7H4.31l-.063.01c-.14.047-.247.248-.247.49s.106.443.247.49L4.31 8h3.38l.063-.01c.14-.047.247-.248.247-.49 0-.276-.139-.5-.31-.5zm2.97-2H4.246l-.06.01c-.133.047-.234.248-.234.49s.1.443.235.49l.059.01h6.412l.06-.01c.133-.047.234-.248.234-.49 0-.276-.131-.5-.294-.5zM8.656 3H5.25l-.06.01c-.135.047-.236.248-.236.49s.101.443.236.49l.06.01h3.408l.06-.01c.135-.047.236-.248.236-.49 0-.276-.132-.5-.296-.5z" transform="translate(7 7)"/>
            </g>
        </g>
    </g>
</svg>
