<svg xmlns="http://www.w3.org/2000/svg" width="16" height="15" viewBox="0 0 16 15">
    <g fill="none" fill-rule="evenodd">
        <g>
            <g>
                <g>
                    <path d="M0 0L24 0 24 24 0 24z" transform="translate(-1156 -453) translate(290 435) translate(862 13)"/>
                    <path fill="#A9A9A9" fill-rule="nonzero" d="M4.727 10.702H6.91v8.727H4.727c-.401 0-.727-.326-.727-.727v-7.273c0-.402.326-.727.727-.727zm3.85-.94l4.654-4.655c.128-.128.331-.143.476-.034l.62.465c.353.265.511.715.402 1.142l-.838 3.295h4.654c.804 0 1.455.65 1.455 1.454v1.53c0 .19-.037.379-.11.554l-2.25 5.466c-.112.272-.378.45-.673.45H9.091c-.402 0-.727-.326-.727-.727v-8.426c0-.193.076-.378.213-.515z" transform="translate(-1156 -453) translate(290 435) translate(862 13)"/>
                </g>
            </g>
        </g>
    </g>
</svg>
