<svg xmlns="http://www.w3.org/2000/svg" width="30" height="40" viewBox="0 0 30 40">
    <path fill="#FFF" fill-rule="evenodd" d="M6.986 22.877c.304-.208.72-.13.927.173.209.304.131.72-.172.927l-5.934 4.067 12.867 10.411L27.54 28.044l-5.887-4.037c-.304-.208-.381-.624-.173-.927.208-.304.623-.381.927-.173l6.623 4.543c.174.12.281.314.29.524.008.21-.083.411-.246.544L15.096 39.83c-.245.198-.594.198-.839 0L.277 28.517c-.163-.133-.254-.334-.246-.544.009-.21.116-.404.289-.523zM14.674 0c5.89 0 10.666 4.776 10.666 10.667 0 2.266-1.543 6.25-4.588 11.834-2.636 4.82-5.494 9.156-5.522 9.2-.124.186-.333.298-.556.298-.224 0-.433-.112-.556-.298-.029-.044-2.886-4.38-5.523-9.201-3.045-5.583-4.588-9.567-4.588-11.833C4.007 4.776 8.783 0 14.674 0zm0 1.333C9.52 1.34 5.346 5.514 5.34 10.667c0 1.405.768 4.488 4.426 11.194 1.918 3.507 3.952 6.754 4.908 8.246.956-1.493 2.991-4.74 4.908-8.247 3.658-6.705 4.425-9.788 4.425-11.193-.005-5.153-4.18-9.328-9.333-9.334zm0 5.334c2.209 0 4 1.79 4 4 0 2.209-1.791 4-4 4-2.209-.003-3.998-1.792-4-4 0-2.21 1.79-4 4-4zm0 1.333c-1.473 0-2.667 1.194-2.667 2.667 0 1.472 1.194 2.666 2.667 2.666 1.472 0 2.666-1.194 2.666-2.666C17.34 9.194 16.146 8 14.674 8z" opacity=".5"/>
</svg>
