<svg width="16" height="18" viewBox="0 0 16 18" fill="none" xmlns="http://www.w3.org/2000/svg">
<path d="M14.25 6.25H11.75V4.375C11.75 3.38044 11.3549 2.42661 10.6517 1.72335C9.94839 1.02009 8.99456 0.625 8 0.625C7.00544 0.625 6.05161 1.02009 5.34835 1.72335C4.64509 2.42661 4.25 3.38044 4.25 4.375V6.25H1.75C1.41848 6.25 1.10054 6.3817 0.866116 6.61612C0.631696 6.85054 0.5 7.16848 0.5 7.5V16.25C0.5 16.5815 0.631696 16.8995 0.866116 17.1339C1.10054 17.3683 1.41848 17.5 1.75 17.5H14.25C14.5815 17.5 14.8995 17.3683 15.1339 17.1339C15.3683 16.8995 15.5 16.5815 15.5 16.25V7.5C15.5 7.16848 15.3683 6.85054 15.1339 6.61612C14.8995 6.3817 14.5815 6.25 14.25 6.25ZM8 12.8125C7.81458 12.8125 7.63332 12.7575 7.47915 12.6545C7.32498 12.5515 7.20482 12.4051 7.13386 12.2338C7.06291 12.0625 7.04434 11.874 7.08051 11.6921C7.11669 11.5102 7.20598 11.3432 7.33709 11.2121C7.4682 11.081 7.63525 10.9917 7.8171 10.9555C7.99896 10.9193 8.18746 10.9379 8.35877 11.0089C8.53007 11.0798 8.67649 11.2 8.7795 11.3542C8.88252 11.5083 8.9375 11.6896 8.9375 11.875C8.9375 12.1236 8.83873 12.3621 8.66291 12.5379C8.4871 12.7137 8.24864 12.8125 8 12.8125ZM10.5 6.25H5.5V4.375C5.5 3.71196 5.76339 3.07607 6.23223 2.60723C6.70107 2.13839 7.33696 1.875 8 1.875C8.66304 1.875 9.29893 2.13839 9.76777 2.60723C10.2366 3.07607 10.5 3.71196 10.5 4.375V6.25Z" fill="#374151"/>
</svg>
