<svg width="17" height="16" viewBox="0 0 17 16" fill="none" xmlns="http://www.w3.org/2000/svg">
<path d="M13.333 5H6.33301V3.5C6.33301 2.96957 6.54372 2.46086 6.91879 2.08579C7.29387 1.71071 7.80257 1.5 8.33301 1.5C9.29363 1.5 10.158 2.1875 10.343 3.09938C10.3705 3.22823 10.4477 3.34104 10.5579 3.41328C10.668 3.48551 10.8023 3.51135 10.9314 3.48516C11.0605 3.45898 11.1741 3.38289 11.2474 3.27343C11.3207 3.16397 11.3479 3.03 11.323 2.90062C11.0405 1.50937 9.78301 0.5 8.33301 0.5C7.53761 0.500827 6.77503 0.817163 6.2126 1.37959C5.65017 1.94202 5.33384 2.7046 5.33301 3.5V5H3.33301C3.06779 5 2.81344 5.10536 2.6259 5.29289C2.43836 5.48043 2.33301 5.73478 2.33301 6V13C2.33301 13.2652 2.43836 13.5196 2.6259 13.7071C2.81344 13.8946 3.06779 14 3.33301 14H13.333C13.5982 14 13.8526 13.8946 14.0401 13.7071C14.2277 13.5196 14.333 13.2652 14.333 13V6C14.333 5.73478 14.2277 5.48043 14.0401 5.29289C13.8526 5.10536 13.5982 5 13.333 5ZM8.33301 10.25C8.18467 10.25 8.03967 10.206 7.91633 10.1236C7.79299 10.0412 7.69686 9.92406 7.6401 9.78701C7.58333 9.64997 7.56848 9.49917 7.59742 9.35368C7.62636 9.2082 7.69779 9.07456 7.80268 8.96967C7.90757 8.86478 8.0412 8.79335 8.18669 8.76441C8.33218 8.73547 8.48298 8.75033 8.62002 8.80709C8.75706 8.86386 8.8742 8.95999 8.95661 9.08332C9.03902 9.20666 9.08301 9.35166 9.08301 9.5C9.08301 9.69891 9.00399 9.88968 8.86334 10.0303C8.72269 10.171 8.53192 10.25 8.33301 10.25Z" fill="#2563EB"/>
</svg>
