<svg xmlns="http://www.w3.org/2000/svg" width="30" height="30" viewBox="0 0 30 30">
    <g fill="none" fill-rule="evenodd">
        <circle cx="15" cy="15" r="15" fill="#EDF6F0"/>
        <g>
            <path fill="#EDF6F0" d="M11.308 8.875v5.689c0 .596-.488 1.084-1.084 1.084H5.348V2.103h4.876c.596 0 1.084.488 1.084 1.083v5.69z" transform="translate(7 7)"/>
            <path fill="#B8DCC5" d="M5.348 2.103v13.815c0 .597-.433.949-.948.76l-2.573-1.03c-.624-.217-.813-.488-.813-1.084V3.186c0-.595.217-.866.813-1.083L4.4 1.073c.515-.19.948.163.948.759v.27z" transform="translate(7 7)"/>
            <path fill="#3CA160" fill-rule="nonzero" d="M4.671 16.867c-.108 0-.217-.027-.325-.054l-2.574-1.03c-.65-.243-.894-.569-.894-1.219V3.187c0-.65.244-.976.894-1.22L4.346.938c.27-.108.542-.081.758.081.244.163.38.46.38.813v14.087c0 .352-.136.65-.38.812-.108.082-.27.136-.433.136zm0-15.712c-.081 0-.163.027-.244.054l-2.573 1.03c-.57.216-.732.433-.732.948v11.377c0 .542.163.759.732.948l2.573 1.03c.19.081.38.054.515-.027.162-.109.244-.325.244-.596V1.832c0-.27-.082-.488-.244-.596-.054-.054-.163-.081-.271-.081zm5.553 14.628H6.432c-.081 0-.136-.054-.136-.135 0-.081.055-.136.136-.136h3.792c.515 0 .949-.433.949-.948v-4.063c0-.082.054-.136.135-.136.081 0 .136.054.136.136v4.063c0 .678-.542 1.22-1.22 1.22zm3.793-4.063c-.027 0-.081 0-.108-.027-.054-.054-.054-.136 0-.19l2.465-2.465h-9.4c-.082 0-.136-.054-.136-.135 0-.082.054-.136.136-.136H16.4l-2.465-2.465c-.054-.054-.054-.136 0-.19.054-.054.135-.054.19 0l2.708 2.71s.027.026.027.053v.109c0 .027-.027.027-.027.027l-2.709 2.709c-.027-.027-.08 0-.108 0zM4.265 9.824c-.082 0-.136-.055-.136-.136V8.063c0-.082.054-.136.136-.136.08 0 .135.054.135.136v1.625c0 .081-.054.136-.135.136zm7.043-2.439c-.081 0-.135-.054-.135-.135V3.186c0-.514-.434-.948-.949-.948h-3.82c-.08 0-.135-.054-.135-.135 0-.081.054-.136.136-.136h3.82c.677 0 1.218.542 1.218 1.22V7.25c0 .081-.054.135-.135.135z" transform="translate(7 7)"/>
        </g>
    </g>
</svg>
