<svg xmlns="http://www.w3.org/2000/svg" width="54" height="54" viewBox="0 0 54 54">
    <g fill="none" fill-rule="evenodd" opacity=".5">
        <path fill="#FFF" d="M9.45 26.325v13.5h-5.4v-1.35H.675v-10.8H4.05v-1.35h5.4zM24.3.675L39.825 12.15h-4.05v13.494l-2.7 1.559V10.517L24.3 4.03l-8.775 6.487V26.08c-.67.089-1.318.302-1.91.63l-.79.439v-15h-4.05L24.3.675zm-7.253 25.421c.024.004.046.004.068.008-.022 0-.044-.004-.068-.008zm-.464-.052c.156.01.312.029.467.052-.155-.023-.31-.041-.467-.052zm-.277-.01l-.26.003c-.175.006-.348.02-.521.044l.52-.044c.174-.006.348-.004.522.007zm9.344-15.909v1.627c1.228.541 2.022 1.756 2.025 3.098H25.65c0-.746-.604-1.35-1.35-1.35-.746 0-1.35.604-1.35 1.35 0 .746.604 1.35 1.35 1.35 1.734-.002 3.187 1.31 3.361 3.036.175 1.725-.987 3.301-2.686 3.646V24.3H22.95v-1.627c-1.228-.541-2.022-1.756-2.025-3.098h2.025c.002.745.605 1.348 1.35 1.35.746 0 1.35-.604 1.35-1.35 0-.746-.604-1.35-1.35-1.35-1.734.002-3.187-1.31-3.361-3.036-.175-1.725.987-3.301 2.686-3.646v-1.418h2.025zm7.425-9.45v6.486l-2.7-1.996V.675h2.7z" opacity=".1" transform="translate(6.75 6.75)"/>
        <path fill="#E0E0E3" d="M30.375 0h2.7c.339 0 .62.25.668.575l.007.1v6.143l6.476 4.792c.232.174.327.476.236.752-.08.24-.286.413-.53.454l-.107.009H36.45v11.678c1.263-.597 2.772-.128 3.474 1.08.236.41.36.876.36 1.35.005.899-.44 1.736-1.178 2.236l-.163.102-15.76 9.077c-.828.473-1.753.744-2.7.794l-.317.008H13.71c-1.191.001-2.354-.351-3.343-1.009l-.243-.17v1.854c0 .339-.25.62-.575.668l-.1.007h-5.4c-.339 0-.62-.25-.668-.575l-.007-.1v-.675h-2.7c-.339 0-.62-.25-.668-.575l-.007-.1v-10.8c0-.339.25-.62.575-.668l.1-.007h2.7v-.675c0-.339.25-.62.575-.668l.1-.007h5.4c.339 0 .62.25.668.575l.007.1v1.553l2.025-1.125V12.825H8.775c-.29-.002-.546-.188-.637-.463-.08-.241-.017-.503.156-.681l.08-.071L23.9.135c.209-.154.484-.173.709-.058l.093.058L29.7 3.827V.675c0-.339.25-.62.575-.668l.1-.007h2.7zm-21.6 27h-4.05v12.15h4.05V27zm-5.4 1.35H1.35v9.45h2.025v-9.45zm33.661-2.65l-.122.061-8.144 4.702c.044.735-.22 1.456-.729 1.99-.508.532-1.215.83-1.952.822-.158 0-.316-.014-.471-.041l-.232-.052-5.928-1.588c-.359-.098-.571-.467-.475-.826.087-.326.4-.532.726-.496l.098.018 5.928 1.588c.469.134.973.004 1.32-.338.346-.343.48-.846.352-1.316-.115-.423-.428-.76-.834-.91l-.139-.043-8.973-2.405c-1.105-.298-2.279-.183-3.3.32l-.218.114-3.818 2.12v6.75l.246.246c.825.83 1.928 1.32 3.09 1.378l.25.006h6.455c.73 0 1.45-.17 2.103-.494l.242-.128 15.755-9.076c.417-.241.672-.688.668-1.17 0-.239-.064-.474-.184-.681-.35-.6-1.093-.83-1.714-.552zM6.75 35.774c.339 0 .62.25.668.575l.007.1v.675c0 .373-.302.675-.675.675-.339 0-.62-.25-.668-.575l-.007-.1v-.675c0-.373.302-.675.675-.675zM24.3 4.869l-8.1 5.988V25.36c.435-.004.868.04 1.293.128l.317.075 8.974 2.404c.59.16 1.105.515 1.463 1.005l.114.168L32.4 26.81V10.857l-8.1-5.988zm0-3.354l-13.476 9.96h2.001c.339 0 .62.25.668.575l.007.1v13.866c.343-.175.702-.317 1.071-.424l.279-.074V10.516c0-.177.071-.346.194-.47l.08-.07L23.9 3.49c.209-.154.484-.173.709-.058l.093.058 8.775 6.486c.143.106.237.263.265.435l.009.106V26.03l1.35-.779V12.15c0-.339.25-.62.575-.668l.1-.007h2.001L24.3 1.515zm1.35 7.935c.373 0 .675.302.675.675v1.215c1.251.726 2.022 2.063 2.025 3.51 0 .373-.302.675-.675.675H25.65c-.373 0-.675-.302-.675-.675 0-.373-.302-.675-.675-.675-.373 0-.675.302-.675.675 0 .373.302.675.675.675 1.089 0 2.132.435 2.897 1.21.97.996 1.364 2.41 1.05 3.757-.314 1.347-1.293 2.441-2.597 2.903v.905c0 .373-.302.675-.675.675H22.95c-.373 0-.675-.302-.675-.675v-1.215c-1.251-.726-2.022-2.063-2.025-3.51 0-.373.302-.675.675-.675h2.025c.373 0 .675.302.675.675 0 .373.302.675.675.675.373 0 .675-.302.675-.675 0-.373-.302-.675-.675-.675-1.974.002-3.662-1.42-3.996-3.365-.334-1.946.784-3.849 2.646-4.505v-.905c0-.373.302-.675.675-.675zm-.675 1.35H24.3v.742c0 .322-.226.598-.541.662-.968.2-1.75.911-2.04 1.856-.29.944-.042 1.972.647 2.68.511.517 1.207.809 1.934.81 1.03 0 1.895.773 2.012 1.796.116 1.024-.554 1.971-1.558 2.202-1.003.232-2.02-.327-2.364-1.298h-.704c.21.805.777 1.47 1.537 1.806.244.108.402.35.402.617v.952h.675v-.742c0-.322.225-.598.54-.663.968-.198 1.75-.91 2.042-1.854.29-.944.043-1.972-.645-2.681-.512-.517-1.21-.809-1.937-.81-1.03 0-1.895-.773-2.012-1.796-.116-1.024.554-1.971 1.558-2.202 1.003-.232 2.02.327 2.364 1.298h.704c-.21-.805-.777-1.47-1.537-1.806-.244-.108-.402-.35-.402-.617V10.8zM32.4 1.35h-1.35v3.475l1.35.998V1.35z" transform="translate(6.75 6.75)"/>
    </g>
</svg>
