<svg xmlns="http://www.w3.org/2000/svg" width="30" height="30" viewBox="0 0 30 30">
    <g fill="none" fill-rule="evenodd">
        <circle cx="15" cy="15" r="15" fill="#EDF6F0"/>
        <g stroke-width=".5">
            <path fill="#94CBA8" stroke="#3CA160" d="M13.282 7.5H8.594C7.99 7.5 7.5 7.99 7.5 8.594v2.813c0 .602.49 1.094 1.094 1.094h4.688c.602 0 1.094-.49 1.094-1.094V8.594c-.001-.604-.492-1.094-1.094-1.094z"/>
            <path fill="#3CA160" fill-rule="nonzero" stroke="#94CBA8" d="M13.282 13.75H8.594c-.604 0-1.094.49-1.094 1.093v6.563c0 .604.49 1.094 1.094 1.094h4.688c.602 0 1.094-.49 1.094-1.094v-6.563c-.001-.602-.492-1.093-1.094-1.093z"/>
            <path fill="#94CBA8" stroke="#3CA160" d="M21.406 17.5h-4.688c-.602 0-1.094.49-1.094 1.094v2.813c0 .603.49 1.094 1.094 1.094h4.688c.604-.001 1.094-.491 1.094-1.095v-2.813c0-.602-.49-1.093-1.094-1.093z"/>
            <path fill="#3CA160" fill-rule="nonzero" stroke="#94CBA8" d="M21.406 7.5h-4.688c-.602 0-1.094.49-1.094 1.094v6.563c0 .602.49 1.094 1.094 1.094h4.688c.603 0 1.094-.49 1.094-1.094V8.594c0-.604-.49-1.094-1.094-1.094z"/>
        </g>
    </g>
</svg>
