<svg xmlns="http://www.w3.org/2000/svg" width="30" height="30">
    <g fill="none" fill-rule="evenodd">
        <path d="M0 0H30V30H0z"/>
        <path fill="#B8DCC5" stroke="#3CA160" d="M20.17 14.96c.685 0 1.324.116 1.901.346.58.23 1.08.547 1.49.94.39.377.74.834 1.036 1.359.286.506.517 1.033.687 1.568.165.517.303 1.082.41 1.68.105.595.177 1.157.213 1.673.035.504.053 1.03.053 1.563 0 1.382-.437 2.5-1.298 3.325-.851.813-1.976 1.226-3.345 1.226h0H8.643c-1.369 0-2.494-.413-3.345-1.226C4.437 26.589 4 25.47 4 24.089c0-.531.018-1.057.053-1.562.035-.517.107-1.08.213-1.673.107-.599.244-1.164.409-1.681.17-.535.401-1.062.687-1.568.297-.525.645-.982 1.036-1.358.41-.394.91-.71 1.49-.94.577-.23 1.216-.347 1.9-.347h0l.09.004c.24.023.495.143.94.435.314.206.675.44 1.075.696.344.221.811.428 1.387.615.564.184 1.135.276 1.7.276h0l.282-.007c.472-.026.947-.116 1.416-.269.577-.187 1.044-.394 1.389-.615.403-.259.764-.493 1.073-.695.502-.329.762-.44 1.03-.44zM15.16 2l.312.007c1.649.07 3.084.706 4.27 1.891 1.26 1.26 1.898 2.802 1.898 4.582 0 1.78-.639 3.322-1.898 4.582-1.26 1.26-2.802 1.898-4.582 1.898-1.78 0-3.321-.639-4.582-1.898-1.26-1.26-1.898-2.802-1.898-4.582 0-1.78.639-3.322 1.898-4.582C11.838 2.638 13.38 2 15.16 2h0z"/>
    </g>
</svg>
