<svg xmlns="http://www.w3.org/2000/svg" width="91" height="74" viewBox="0 0 91 74">
    <g fill="none" fill-rule="evenodd" opacity=".1">
        <path fill="#B8DCC5" d="M84 45.965c0 3.326-2.69 6.017-6.02 6.017H45.933c-.588 0-1.16.191-1.632.544L37 58V11.018C37 7.69 39.69 5 43.02 5h34.96C81.308 5 84 7.69 84 11.018v34.947z" transform="translate(2)"/>
        <path fill="#3CA160" fill-rule="nonzero" d="M62 43c0 1.657-1.343 3-3 3-1.656 0-3-1.343-3-3 0-1.656 1.344-3 3-3 1.657 0 3 1.344 3 3zM58.497 15C53.253 15 49 19.289 49 24.599v.003c0 1.442 1.156 2.61 2.583 2.61 1.427 0 2.583-1.171 2.583-2.613 0-2.414 1.932-4.377 4.334-4.377 2.39 0 4.334 1.964 4.334 4.38 0 2.415-1.944 4.38-4.334 4.38-1.426 0-2.583 1.17-2.583 2.61v2.797c0 1.442 1.157 2.611 2.583 2.611 1.426 0 2.583-1.169 2.583-2.61v-.547C65.07 32.703 68 28.992 68 24.603 68 19.306 63.739 15 58.497 15z" transform="translate(2)"/>
        <path fill="#3CA160" fill-rule="nonzero" d="M77.912 0H44.088C37.964 0 33 4.92 33 11.008v50.375c0 2.137 2.468 3.387 4.21 2.09L47.784 55.6h30.13C84.035 55.6 89 50.68 89 44.592V11.008C89 4.928 84.045 0 77.912 0zm5.825 44.592c0 3.196-2.604 5.783-5.825 5.783H46.906c-.57 0-1.123.183-1.579.522l-7.064 5.26V11.008c0-3.196 2.604-5.782 5.825-5.782h33.824c3.22 0 5.825 2.584 5.825 5.782v33.584z" transform="translate(2)"/>
        <path fill="#B8DCC5" stroke="#3CA160" stroke-width="3" d="M17.656 52.986c6.806 0 12.344 5.657 12.344 12.61v7.66c0 .403-.334.744-.729.744H.73C.334 74 0 73.66 0 73.256v-7.66c0-6.953 5.538-12.61 12.344-12.61h5.312zM15 30c5.084 0 9.22 4.2 9.22 9.362s-4.136 9.362-9.22 9.362c-5.084 0-9.22-4.2-9.22-9.362S9.915 30 15 30z" transform="translate(2)"/>
    </g>
</svg>
