<svg xmlns="http://www.w3.org/2000/svg" width="11" height="14" viewBox="0 0 11 14">
    <g fill="#6D6D6D">
        <path d="M10.374 3.145L7.313.127c-.17-.168-.455-.17-.626 0L3.626 3.145c-.173.172-.173.448 0 .62.172.17.452.17.624 0l2.308-2.276v6.822c0 .241.198.437.442.437s.442-.196.442-.437V1.489l2.307 2.275c.173.171.453.171.625 0 .173-.171.173-.448 0-.619zM6.257 10.235L3.95 12.51V5.688c0-.241-.198-.437-.442-.437s-.442.196-.442.437v6.822L.758 10.235c-.172-.171-.452-.171-.624 0-.173.171-.173.448 0 .619l3.062 3.018c.17.168.455.17.625 0l3.062-3.019c.172-.17.172-.448 0-.618-.173-.17-.453-.171-.626 0z"/>
    </g>
</svg>
