<svg width="16" height="16" viewBox="0 0 16 16" fill="none" xmlns="http://www.w3.org/2000/svg">
<path d="M7.5306 10.4686C7.60052 10.5383 7.656 10.6211 7.69385 10.7123C7.7317 10.8034 7.75119 10.9012 7.75119 10.9999C7.75119 11.0986 7.7317 11.1963 7.69385 11.2875C7.656 11.3787 7.60052 11.4615 7.5306 11.5311L5.5306 13.5311C5.46092 13.6011 5.37813 13.6565 5.28696 13.6944C5.1958 13.7322 5.09806 13.7517 4.99935 13.7517C4.90064 13.7517 4.8029 13.7322 4.71173 13.6944C4.62057 13.6565 4.53778 13.6011 4.4681 13.5311L2.4681 11.5311C2.39833 11.4614 2.34299 11.3786 2.30524 11.2874C2.26748 11.1962 2.24805 11.0985 2.24805 10.9999C2.24805 10.9012 2.26748 10.8035 2.30524 10.7124C2.34299 10.6212 2.39833 10.5384 2.4681 10.4686C2.53786 10.3989 2.62069 10.3435 2.71184 10.3058C2.80299 10.268 2.90069 10.2486 2.99935 10.2486C3.09801 10.2486 3.19571 10.268 3.28686 10.3058C3.37801 10.3435 3.46083 10.3989 3.5306 10.4686L4.24997 11.1868V2.99926C4.24997 2.80035 4.32899 2.60959 4.46964 2.46893C4.61029 2.32828 4.80106 2.24926 4.99997 2.24926C5.19889 2.24926 5.38965 2.32828 5.5303 2.46893C5.67096 2.60959 5.74997 2.80035 5.74997 2.99926V11.1868L6.46935 10.4668C6.53913 10.3972 6.62194 10.342 6.71306 10.3044C6.80417 10.2668 6.9018 10.2476 7.00036 10.2477C7.09892 10.2479 7.19648 10.2675 7.28747 10.3054C7.37845 10.3433 7.46107 10.3988 7.5306 10.4686ZM13.5306 4.46864L11.5306 2.46864C11.4609 2.39872 11.3781 2.34324 11.287 2.30539C11.1958 2.26753 11.0981 2.24805 10.9993 2.24805C10.9006 2.24805 10.8029 2.26753 10.7117 2.30539C10.6206 2.34324 10.5378 2.39872 10.4681 2.46864L8.4681 4.46864C8.3272 4.60953 8.24805 4.80063 8.24805 4.99989C8.24805 5.19915 8.3272 5.39024 8.4681 5.53114C8.60899 5.67203 8.80009 5.75119 8.99935 5.75119C9.19861 5.75119 9.3897 5.67203 9.5306 5.53114L10.25 4.81176V12.9993C10.25 13.1982 10.329 13.3889 10.4696 13.5296C10.6103 13.6702 10.8011 13.7493 11 13.7493C11.1989 13.7493 11.3896 13.6702 11.5303 13.5296C11.671 13.3889 11.75 13.1982 11.75 12.9993V4.81176L12.4693 5.53176C12.6102 5.67266 12.8013 5.75181 13.0006 5.75181C13.1999 5.75181 13.391 5.67266 13.5318 5.53176C13.6727 5.39087 13.7519 5.19977 13.7519 5.00051C13.7519 4.80126 13.6727 4.61016 13.5318 4.46926L13.5306 4.46864Z" fill="#6B7280"/>
</svg>
