<svg width="14" height="13" viewBox="0 0 14 13" fill="none" xmlns="http://www.w3.org/2000/svg">
<path d="M13.4326 12.7497C13.3887 12.8258 13.3256 12.8889 13.2496 12.9328C13.1735 12.9767 13.0873 12.9998 12.9995 12.9997H0.999487C0.911763 12.9997 0.825605 12.9765 0.749667 12.9326C0.673729 12.8886 0.610683 12.8255 0.566859 12.7495C0.523036 12.6735 0.499977 12.5873 0.5 12.4996C0.500023 12.4119 0.523125 12.3257 0.566987 12.2497C1.51886 10.6041 2.98574 9.42412 4.69761 8.86475C3.85084 8.36066 3.19295 7.59255 2.82498 6.67837C2.45701 5.76419 2.39929 4.7545 2.6607 3.80435C2.92211 2.85419 3.48819 2.01612 4.272 1.41883C5.05582 0.821532 6.01403 0.498047 6.99949 0.498047C7.98495 0.498047 8.94316 0.821532 9.72697 1.41883C10.5108 2.01612 11.0769 2.85419 11.3383 3.80435C11.5997 4.7545 11.542 5.76419 11.174 6.67837C10.806 7.59255 10.1481 8.36066 9.30136 8.86475C11.0132 9.42412 12.4801 10.6041 13.432 12.2497C13.476 12.3257 13.4992 12.4119 13.4993 12.4997C13.4994 12.5874 13.4764 12.6737 13.4326 12.7497Z" fill="#2563EB"/>
</svg>
