<svg xmlns="http://www.w3.org/2000/svg" width="73" height="86" viewBox="0 0 73 86">
    <g fill="none" fill-rule="evenodd" opacity=".1">
        <path fill="#94CBA8" d="M77 8v4.5c0 .828-.7 1.5-1.566 1.5H12.826c-.864 0-1.565-.672-1.565-1.5V8c0-3.314-2.803-6-6.261-6h65.74C74.196 2 77 4.686 77 8z"/>
        <path fill="#EDF6F0" d="M73 8v4.5c0 .828-.708 1.5-1.581 1.5H12.907c-.873 0-1.58-.672-1.58-1.5V8c0-3.314-2.833-6-6.327-6h61.675C70.168 2 73 4.686 73 8z"/>
        <path fill="#B8DCC5" d="M67 13.848v75.026s-.057.67-.16.977c-.416 1.246-1.6 2.145-2.995 2.149H5.155c-1.74-.005-3.149-1.402-3.155-3.126V4.47c-.004-.83.332-1.625.931-2.205.095-.093 4.923-.187 5.033-.265 2.15 1.05 3.508 3.221 3.503 5.596v4.689c0 .863.707 1.563 1.578 1.563H67z" opacity=".492"/>
        <path fill="#FFF" fill-rule="nonzero" d="M0 90L0 5 3 5 3 90z"/>
        <g fill="#3CA160">
            <path d="M4.821 93.817H64.61c2.607 0 4.72-2.1 4.72-4.69V15.635h6.293c1.738 0 3.147-1.4 3.147-3.127v-4.69C78.764 3.501 75.245.004 70.903 0H4.82C2.215 0 .101 2.1.101 4.691v65.672h3.147V4.691c0-.864.705-1.564 1.573-1.564 2.607 0 4.72 2.1 4.72 4.691v4.69c0 1.728 1.41 3.128 3.147 3.128h53.494v73.49c0 .864-.704 1.564-1.573 1.564H4.821c-.868 0-1.573-.7-1.573-1.564V70.363H.102v18.763c0 2.591 2.113 4.691 4.72 4.691zm6.253-90.69h59.829c2.606 0 4.72 2.1 4.72 4.691v4.69H12.687v-4.69c-.006-1.697-.573-3.345-1.614-4.69z"/>
            <path d="M17.409 23.454h-4.72c-1.739 0-3.147 1.4-3.147 3.128v9.381c0 1.727 1.408 3.127 3.146 3.127h9.44c1.738 0 3.147-1.4 3.147-3.127V34.4c0-.864-.705-1.564-1.573-1.564-.87 0-1.574.7-1.574 1.564v1.563h-9.44v-9.381h4.72c.87 0 1.574-.7 1.574-1.564 0-.864-.705-1.564-1.573-1.564zM9.542 57.854c0 1.727 1.408 3.128 3.146 3.128h9.44c1.738 0 3.147-1.4 3.147-3.128v-9.381c0-1.727-1.409-3.128-3.147-3.128h-9.44c-1.738 0-3.146 1.4-3.146 3.128v9.381zm3.146-9.381h9.44v9.381h-9.44v-9.381zM9.542 79.745c0 1.727 1.408 3.127 3.146 3.127h9.44c1.738 0 3.147-1.4 3.147-3.127v-9.382c0-1.727-1.409-3.127-3.147-3.127h-9.44c-1.738 0-3.146 1.4-3.146 3.127v9.382zm3.146-9.382h9.44v9.382h-9.44v-9.382zM31.684 29.709h25.188c.933 0 1.69-.7 1.69-1.563 0-.864-.757-1.564-1.69-1.564H31.684c-.933 0-1.689.7-1.689 1.564 0 .863.756 1.563 1.689 1.563zM31.568 51.6h24.81c.87 0 1.574-.7 1.574-1.564 0-.863-.704-1.563-1.573-1.563h-24.81c-.87 0-1.574.7-1.574 1.563 0 .864.705 1.564 1.573 1.564zM31.568 73.627h24.81c.87 0 1.574-.7 1.574-1.563 0-.864-.704-1.564-1.573-1.564h-24.81c-.87 0-1.574.7-1.574 1.564 0 .863.705 1.563 1.573 1.563z"/>
            <path d="M14.723 28.604c-.615.61-.615 1.6 0 2.21l3.147 3.128c.294.293.695.458 1.112.458h.13c.46-.039.882-.276 1.15-.65l7.867-10.946c.326-.455.385-1.048.151-1.556-.232-.51-.72-.856-1.28-.91-.56-.053-1.106.195-1.432.65l-6.786 9.442-1.834-1.822c-.614-.611-1.61-.613-2.225-.004z"/>
        </g>
    </g>
</svg>
