<svg width="16" height="16" viewBox="0 0 16 16" fill="none" xmlns="http://www.w3.org/2000/svg">
<path d="M14.645 13.1249C13.7881 11.621 12.45 10.4491 10.8462 9.79805C11.6438 9.19988 12.2329 8.36594 12.5302 7.41434C12.8274 6.46275 12.8178 5.44175 12.5025 4.49597C12.1872 3.55018 11.5824 2.72757 10.7736 2.14465C9.96486 1.56172 8.99319 1.24805 7.99624 1.24805C6.9993 1.24805 6.02763 1.56172 5.21887 2.14465C4.41011 2.72757 3.80526 3.55018 3.49 4.49597C3.17474 5.44175 3.16505 6.46275 3.4623 7.41434C3.75956 8.36594 4.34869 9.19988 5.14624 9.79805C3.54245 10.4491 2.2044 11.621 1.34749 13.1249C1.2944 13.2103 1.25901 13.3055 1.24343 13.4048C1.22785 13.5041 1.23241 13.6056 1.25682 13.7031C1.28123 13.8006 1.325 13.8923 1.38554 13.9725C1.44607 14.0528 1.52212 14.1201 1.60918 14.1704C1.69623 14.2207 1.79251 14.253 1.89229 14.2653C1.99207 14.2777 2.09332 14.2698 2.19001 14.2423C2.28669 14.2147 2.37685 14.168 2.45512 14.1049C2.53339 14.0418 2.59817 13.9636 2.64562 13.8749C3.77812 11.9174 5.77812 10.7499 7.99624 10.7499C10.2144 10.7499 12.2144 11.918 13.3469 13.8749C13.4497 14.0403 13.6128 14.1591 13.8016 14.2064C13.9905 14.2537 14.1904 14.2256 14.3589 14.1282C14.5275 14.0308 14.6516 13.8717 14.705 13.6845C14.7584 13.4972 14.7369 13.2966 14.645 13.1249ZM4.74624 5.99992C4.74624 5.35713 4.93685 4.72878 5.29397 4.19432C5.65108 3.65986 6.15866 3.2433 6.75252 2.99731C7.34638 2.75133 7.99985 2.68697 8.63029 2.81237C9.26073 2.93777 9.83982 3.2473 10.2943 3.70182C10.7489 4.15635 11.0584 4.73544 11.1838 5.36588C11.3092 5.99632 11.2448 6.64978 10.9989 7.24364C10.7529 7.8375 10.3363 8.34508 9.80185 8.7022C9.26739 9.05931 8.63903 9.24992 7.99624 9.24992C7.1346 9.24893 6.30852 8.9062 5.69924 8.29692C5.08996 7.68764 4.74724 6.86157 4.74624 5.99992Z" fill="#2563EB"/>
</svg>
