<svg xmlns="http://www.w3.org/2000/svg" width="30" height="30" viewBox="0 0 30 30">
    <g fill="none" fill-rule="evenodd">
        <rect width="30" height="30" fill="#373737" fill-rule="nonzero" rx="15"/>
        <g>
            <path fill="#FFF" d="M5.019 1.052c-1.09 0-2.092.435-2.82 1.225-.74.802-1.147 1.91-1.147 3.122 0 1.278.475 2.42 1.54 3.705 1.03 1.242 2.56 2.547 4.332 4.057l.004.003c.62.528 1.322 1.127 2.053 1.766.735-.64 1.439-1.24 2.06-1.769 1.772-1.51 3.303-2.815 4.332-4.057 1.065-1.284 1.54-2.427 1.54-3.705 0-1.211-.408-2.32-1.147-3.122-.728-.79-1.73-1.225-2.82-1.225-.798 0-1.531.254-2.179.755-.576.446-.978 1.01-1.214 1.405-.121.203-.334.324-.57.324-.237 0-.45-.121-.571-.324-.236-.395-.637-.959-1.214-1.405-.648-.5-1.381-.755-2.18-.755z" transform="translate(6 7)"/>
            <path fill-rule="nonzero" stroke="#FFF" stroke-width=".5" d="M8.288 15.722c-.726-.635-1.425-1.23-2.043-1.757l-.003-.003c-1.81-1.542-3.373-2.874-4.46-4.186C.566 8.309 0 6.918 0 5.399c0-1.476.506-2.838 1.425-3.835C2.355.556 3.631 0 5.02 0 6.056 0 7.005.328 7.84.974c.422.327.805.726 1.141 1.192.337-.466.72-.865 1.142-1.192C10.96.328 11.909 0 12.946 0c1.388 0 2.664.556 3.594 1.564.919.997 1.425 2.359 1.425 3.835 0 1.52-.566 2.91-1.782 4.377-1.087 1.312-2.65 2.644-4.46 4.186-.618.527-1.319 1.124-2.046 1.76-.192.168-.439.261-.695.261-.255 0-.502-.093-.694-.261zm-3.27-14.67c-1.09 0-2.09.435-2.82 1.225-.739.802-1.146 1.91-1.146 3.122 0 1.278.475 2.42 1.54 3.705 1.03 1.242 2.56 2.547 4.332 4.057l.004.003c.62.528 1.322 1.127 2.053 1.766.735-.64 1.439-1.24 2.06-1.769 1.772-1.51 3.303-2.815 4.332-4.057 1.065-1.284 1.54-2.427 1.54-3.705 0-1.211-.408-2.32-1.147-3.122-.728-.79-1.73-1.225-2.82-1.225-.798 0-1.531.254-2.179.755-.576.446-.978 1.01-1.214 1.405-.121.203-.334.324-.57.324-.237 0-.45-.121-.571-.324-.236-.395-.637-.959-1.214-1.405-.648-.5-1.381-.755-2.18-.755z" transform="translate(6 7)"/>
        </g>
    </g>
</svg>
