<svg xmlns="http://www.w3.org/2000/svg" width="24" height="24" viewBox="0 0 24 24">
    <path fill="#6D6D6D" d="M19.352 11.052v-5.13c0-1.043-.848-1.892-1.892-1.892H6.99c-1.043 0-1.892.85-1.892 1.892v5.13C3.896 11.342 3 12.425 3 13.714v3.827c0 .303.246.55.55.55h1.548v1.329c0 .303.246.55.55.55.303 0 .55-.247.55-.55v-1.33h12.055v1.33c0 .303.246.55.55.55.303 0 .55-.247.55-.55v-1.33H20.9c.303 0 .55-.246.55-.55v-3.826c0-1.289-.897-2.373-2.099-2.662zM6.197 5.922c0-.437.356-.792.793-.792h10.47c.437 0 .793.355.793.792v5.054h-1.816v-.867c0-1.437-1.17-2.606-2.606-2.606H10.62c-1.437 0-2.606 1.17-2.606 2.606v.867H6.197V5.922zm9.14 4.187v.867H9.113v-.867c0-.83.676-1.506 1.506-1.506h3.212c.83 0 1.506.675 1.506 1.506zM4.1 16.99v-3.277c0-.903.736-1.639 1.64-1.639h12.973c.904 0 1.64.736 1.64 1.64v3.276H4.098z"/>
</svg>
