<svg xmlns="http://www.w3.org/2000/svg" width="24" height="25" viewBox="0 0 24 25">
    <g fill="none">
        <path fill="#6D6D6D" d="M21.662 10.44l-1.75-.8-1.546-2.465c-.447-.715-1.233-1.148-2.077-1.144H9.705c-.763 0-1.487.353-1.952.96L5.757 9.606l-3.328.91C1.585 10.749 1 11.522 1 12.397v1.273c0 1.077.858 1.966 1.934 1.966h.286c.344 1.326 1.697 2.121 3.024 1.777.87-.227 1.554-.906 1.777-1.777h7.504c.344 1.326 1.698 2.121 3.024 1.777.871-.227 1.555-.906 1.778-1.777h.536c1.076 0 1.934-.89 1.934-1.966v-1.451c.004-.764-.442-1.46-1.135-1.778zM5.618 16.59c-.875 0-1.585-.71-1.585-1.585 0-.876.71-1.586 1.585-1.586.876 0 1.586.71 1.586 1.586.005.87-.706 1.581-1.586 1.585zm12.306 0c-.876 0-1.586-.71-1.586-1.585 0-.876.71-1.586 1.586-1.586.875 0 1.586.71 1.586 1.586.004.87-.706 1.581-1.586 1.585zm2.939-1.849h-.474c-.147-1.362-1.375-2.345-2.738-2.193-1.156.125-2.068 1.04-2.193 2.193H8.084c-.147-1.362-1.376-2.345-2.738-2.193-1.157.125-2.068 1.04-2.193 2.193H2.93c-.586 0-1.041-.487-1.041-1.072v-1.273c-.005-.478.313-.893.773-1.023l3.479-.95c.094-.028.179-.081.237-.162l2.081-2.729c.3-.384.76-.607 1.246-.607h6.584c.536-.005 1.04.268 1.322.723l1.617 2.582c.045.076.116.134.192.17l1.867.853c.375.174.617.55.612.965v1.451h.005c0 .585-.456 1.072-1.041 1.072z" opacity=".7"/>
        <path fill="#414040" stroke="#FFF" stroke-width="2" d="M20.132 20.632v-.707l-.707.707h.707zM3.868 4.368v.707l.707-.707h-.707zm-2.121 0l2.121-2.121 18.385 18.385-2.121 2.121L1.747 4.368z"/>
    </g>
</svg>
