<svg xmlns="http://www.w3.org/2000/svg" width="30" height="30" viewBox="0 0 30 30">
    <g fill="none" fill-rule="evenodd">
        <circle cx="15" cy="15" r="15" fill="#EDF6F0"/>
        <g transform="translate(7 7)">
            <path fill="#B8DCC5" d="M16.058 1.533v10.219c0 .535-.438 1.022-1.022 1.022h-2.19l-.973 2.725-2.87-2.725H1.507c-.535 0-1.021-.438-1.021-1.022V1.533C.487.95.925.511 1.508.511h13.528c.584 0 1.022.438 1.022 1.022z"/>
            <path fill="#3CA160" d="M11.484 15.84l-2.725-2.58h-7.25C.68 13.26 0 12.58 0 11.753V1.533C0 .706.681.025 1.508.025h13.528c.827 0 1.509.681 1.509 1.508v10.219c0 .827-.682 1.509-1.509 1.509h-1.849l-.876 2.384c-.049.146-.195.292-.34.292-.195.097-.341.049-.487-.097zM1.508.998c-.291 0-.486.243-.486.535v10.219c0 .292.243.535.486.535h7.494c.146 0 .244.049.34.146l2.337 2.19.73-1.995c.048-.195.243-.34.486-.34h2.19c.292 0 .486-.244.486-.536V1.533c0-.292-.243-.535-.486-.535H1.508z"/>
            <path fill="#FFF" fill-rule="nonzero" d="M8.321 10.633h-.097c-.487 0-.876-.39-.876-.876V6.643c0-.487.389-.876.876-.876h.097c.487 0 .876.39.876.876v3.114c0 .487-.39.876-.876.876z"/>
            <path fill="#3CA160" d="M8.321 11.12h-.049c-.778 0-1.41-.633-1.41-1.412V6.643c0-.779.632-1.411 1.41-1.411h.049c.779 0 1.411.632 1.411 1.41v3.066c-.049.779-.681 1.411-1.411 1.411zm-.097-4.867c-.244 0-.39.195-.39.39v3.065c0 .244.195.39.39.39h.048c.244 0 .39-.195.39-.39V6.643c0-.244-.195-.39-.39-.39h-.048z"/>
            <circle cx="8.272" cy="3.334" r="1.071" fill="#FFF" fill-rule="nonzero"/>
            <path fill="#3CA160" d="M8.272 4.89c-.876 0-1.557-.68-1.557-1.556s.681-1.557 1.557-1.557c.876 0 1.557.68 1.557 1.557 0 .876-.68 1.557-1.557 1.557zm0-2.14c-.292 0-.535.243-.535.535 0 .292.243.584.535.584.292 0 .536-.243.536-.535 0-.292-.244-.584-.536-.584z"/>
            <path fill="#030303" fill-rule="nonzero" d="M16.058 2.263v-.73c0-.584-.438-1.022-1.022-1.022H1.508C.925.511.487.95.487 1.533v.73h15.571z" opacity=".1"/>
        </g>
    </g>
</svg>
