<svg xmlns="http://www.w3.org/2000/svg" width="30" height="30" viewBox="0 0 30 30">
    <g fill="none" fill-rule="evenodd">
        <circle cx="15" cy="15" r="15" fill="#EDF6F0"/>
        <g>
            <path fill="#B8DCC5" d="M10.506 8.29c1.997 0 3.621 1.625 3.621 3.622v3.702c0 .116-.097.214-.213.214H5.539c-.116 0-.214-.098-.214-.214v-3.702c0-1.997 1.625-3.622 3.622-3.622h1.559zm-6.17 2.307c-.119.418-.183.86-.183 1.315v3.702c0 .073.006.144.017.214H1.196c-.012 0-.024-.012-.024-.024V13.22c0-1.446 1.176-2.623 2.622-2.623h.543zm.052-5.013c1.06 0 1.923.857 1.923 1.911 0 .153-.018.305-.054.451-.539.367-1 .84-1.35 1.39-.168.046-.342.07-.519.07-1.06 0-1.923-.857-1.923-1.91 0-1.055.863-1.912 1.923-1.912zm5.338-3.896c1.492 0 2.706 1.206 2.706 2.69 0 1.482-1.214 2.688-2.706 2.688-1.491 0-2.705-1.206-2.705-2.689s1.214-2.689 2.705-2.689z" transform="translate(7 5)"/>
            <path fill="#3CA160" d="M12.132 7.403c.896-.708 1.472-1.801 1.472-3.026 0-2.129-1.74-3.86-3.878-3.86S5.85 2.247 5.85 4.376c0 .14.008.277.022.413-.44-.24-.946-.378-1.483-.378-1.707 0-3.095 1.383-3.095 3.083 0 .886.378 1.686.98 2.249C.938 10.33 0 11.668 0 13.22v2.584C0 16.464.536 17 1.196 17h12.718c.764 0 1.385-.622 1.385-1.386v-3.702c0-2.072-1.322-3.842-3.167-4.51zM9.726 1.688c1.492 0 2.706 1.206 2.706 2.69 0 1.482-1.214 2.688-2.706 2.688-1.491 0-2.705-1.206-2.705-2.689s1.214-2.689 2.705-2.689zM4.388 5.584c1.06 0 1.923.857 1.923 1.911 0 .153-.018.305-.054.451-.539.367-1 .84-1.35 1.39-.168.046-.342.07-.519.07-1.06 0-1.923-.857-1.923-1.91 0-1.055.863-1.912 1.923-1.912zM1.172 13.22c0-1.446 1.176-2.623 2.622-2.623h.543c-.12.418-.184.86-.184 1.315v3.702c0 .073.006.144.017.214H1.196c-.012 0-.024-.012-.024-.024V13.22zm12.955 2.394c0 .116-.097.214-.213.214H5.539c-.116 0-.214-.098-.214-.214v-3.702c0-1.997 1.625-3.622 3.622-3.622h1.559c1.997 0 3.621 1.625 3.621 3.622v3.702z" transform="translate(7 5)"/>
        </g>
    </g>
</svg>
