<svg xmlns="http://www.w3.org/2000/svg" width="54" height="93" viewBox="0 0 54 93">
    <g fill="none" fill-rule="evenodd" opacity=".1">
        <path fill="#B8DCC5" d="M15.611 78H.028C.05 88.227 6.159 97.48 15.61 101.606V114h15.583v-10.8c13.077-2.629 22.014-14.64 20.673-27.784C50.526 62.272 39.343 52.272 26 52.286c-5.738 0-10.389-4.605-10.389-10.286 0-5.68 4.651-10.286 10.389-10.286 5.738 0 10.389 4.605 10.389 10.286h15.583c-.023-10.227-6.131-19.48-15.583-23.606V6H20.806v10.8C7.729 19.429-1.208 31.44.133 44.584 1.474 57.728 12.657 67.728 26 67.714c5.738 0 10.389 4.605 10.389 10.286 0 5.68-4.651 10.286-10.389 10.286-5.73-.017-10.372-4.612-10.389-10.286z"/>
        <path fill="#3CA160" fill-rule="nonzero" d="M21.015 5.087v6.822C6.547 16.853-2.137 31.193.456 45.856c2.593 14.663 15.71 25.376 31.049 25.361 2.897 0 5.245 2.278 5.245 5.087 0 2.81-2.348 5.087-5.245 5.087-2.897 0-5.245-2.277-5.245-5.087 0-2.81-2.348-5.087-5.245-5.087H5.28c-2.897 0-5.245 2.278-5.245 5.087.02 10.905 6.012 20.978 15.735 26.453v9.156c0 2.81 2.348 5.087 5.245 5.087H36.75c2.896 0 5.245-2.278 5.245-5.087v-6.822c10.132-3.478 17.738-11.723 20.18-21.874 2.442-10.152-.618-20.81-8.117-28.278l-.042-.04c-5.946-5.835-14.053-9.118-22.511-9.116-2.897 0-5.245-2.278-5.245-5.087 0-2.81 2.348-5.087 5.245-5.087 2.897 0 5.245 2.277 5.245 5.087 0 2.81 2.348 5.087 5.245 5.087H57.73c2.896 0 5.245-2.278 5.245-5.087-.02-10.905-6.012-20.978-15.735-26.453V5.087C47.24 2.277 44.89 0 41.995 0H26.26c-2.897 0-5.245 2.278-5.245 5.087zm10.49 10.683v-5.596h5.245v7.173c0 2.012 1.224 3.834 3.12 4.649 5.913 2.536 10.311 7.547 11.949 13.613h-5.476c-2.667-7.317-10.571-11.527-18.369-9.784-7.797 1.742-13.004 8.883-12.1 16.594.903 7.71 7.63 13.536 15.63 13.538 5.655.008 11.072 2.206 15.049 6.104 5.35 5.342 7.273 13.089 5.013 20.207S43.223 94.743 35.7 96.24c-2.445.484-4.2 2.57-4.196 4.99v5.596H26.26v-7.173c0-2.012-1.224-3.834-3.121-4.649-5.912-2.536-10.31-7.547-11.948-13.613h5.476c2.667 7.317 10.571 11.527 18.368 9.784 7.797-1.742 13.005-8.883 12.101-16.594-.903-7.71-7.63-13.536-15.631-13.538-5.648-.01-11.057-2.208-15.027-6.104-5.354-5.338-7.281-13.081-5.028-20.2 2.253-7.118 8.329-12.48 15.848-13.984 2.447-.48 4.206-2.565 4.207-4.985z"/>
    </g>
</svg>
