<svg xmlns="http://www.w3.org/2000/svg" width="30" height="30" viewBox="0 0 30 30">
    <g fill="none" fill-rule="evenodd">
        <circle cx="15" cy="15" r="14.5" stroke="#F4F5F7"/>
        <g opacity=".5">
            <path fill="#B8DCC5" d="M15.001 15.168H5.993c-.325-.084-.659-.003-.994 0V6.493L10 2.913l5.001 3.58v8.675z" transform="translate(5 7)"/>
            <path fill="#3CA160" d="M15.835 4.077V.404c0-.223-.187-.404-.417-.404h-1.667c-.23 0-.417.18-.417.404v1.885L10.248.08c-.148-.106-.348-.106-.496 0L.167 6.944c-.143.104-.202.284-.146.449.056.165.214.276.393.277h2.084V16h15.004V7.67h2.084c.179 0 .337-.112.393-.277.056-.165-.003-.345-.146-.45l-3.998-2.866zM14.168.807H15v2.675l-.833-.596V.807zM15 15.167H5.993c-.325-.083-.659-.002-.994 0V6.494L10 2.913l5.001 3.58v8.675zm2.084-8.304c-.23 0-.417.18-.417.403v7.836l-.833.466V6.29c0-.128-.064-.248-.17-.323l-5.417-3.88c-.148-.105-.348-.105-.496 0l-5.418 3.88c-.105.075-.168.195-.169.323v8.972c-.289.067-.569.166-.833.297V7.266c0-.222-.187-.403-.417-.403H1.679L10 .906l8.32 5.957h-1.235z" transform="translate(5 7)"/>
        </g>
    </g>
</svg>
