<svg xmlns="http://www.w3.org/2000/svg" width="30" height="30" viewBox="0 0 30 30">
    <g fill="none" fill-rule="evenodd">
        <circle cx="15" cy="15" r="14.5" stroke="#F4F5F7"/>
        <g opacity=".5">
            <path fill="#B8DCC5" d="M2.109 10.667H.004c.003 1.404.828 2.674 2.105 3.24v1.703h2.105v-1.483c1.766-.361 2.974-2.01 2.792-3.815-.18-1.805-1.691-3.178-3.494-3.176-.775 0-1.403-.632-1.403-1.412 0-.78.628-1.413 1.403-1.413s1.404.633 1.404 1.413H7.02c-.004-1.405-.829-2.675-2.105-3.242V.78H2.81v1.483C1.044 2.624-.163 4.273.018 6.078.199 7.883 1.71 9.256 3.512 9.254c.775 0 1.404.633 1.404 1.413s-.629 1.412-1.404 1.412c-.774-.002-1.4-.633-1.403-1.412z" transform="translate(11 7)"/>
            <path fill="#3CA160" fill-rule="nonzero" d="M2.864.696v.933C.892 2.305-.291 4.266.062 6.27c.354 2.005 2.14 3.47 4.231 3.468.395 0 .715.312.715.696 0 .384-.32.695-.715.695-.394 0-.714-.311-.714-.695 0-.384-.32-.696-.715-.696H.72c-.395 0-.715.312-.715.696.002 1.491.819 2.868 2.144 3.617v1.252c0 .385.32.696.715.696h2.144c.395 0 .715-.311.715-.696v-.933c1.38-.475 2.417-1.603 2.75-2.991.333-1.388-.084-2.846-1.106-3.867l-.006-.006c-.81-.797-1.915-1.246-3.068-1.246-.394 0-.714-.312-.714-.696 0-.384.32-.695.714-.695.395 0 .715.311.715.695 0 .384.32.696.715.696h2.144c.395 0 .715-.312.715-.696-.003-1.491-.82-2.868-2.144-3.617V.696C6.438.31 6.118 0 5.723 0H3.579c-.395 0-.715.311-.715.696zm1.43 1.46v-.765h.714v.981c0 .275.167.525.425.636.806.347 1.405 1.032 1.629 1.862h-.747c-.363-1.001-1.44-1.577-2.503-1.338C2.75 3.77 2.04 4.746 2.163 5.8c.123 1.054 1.04 1.851 2.13 1.851.77.001 1.509.302 2.051.835.73.73.991 1.79.683 2.763-.308.974-1.137 1.706-2.162 1.911-.333.066-.572.352-.572.682v.766H3.58v-.981c0-.275-.167-.525-.426-.636-.805-.347-1.405-1.032-1.628-1.862h.746c.364 1.001 1.44 1.577 2.503 1.338 1.063-.238 1.773-1.214 1.65-2.269-.124-1.054-1.04-1.851-2.13-1.851-.77-.002-1.507-.302-2.048-.835-.73-.73-.993-1.789-.686-2.762.307-.974 1.135-1.707 2.16-1.913.334-.065.573-.35.573-.681z" transform="translate(11 7)"/>
        </g>
    </g>
</svg>
