<svg xmlns="http://www.w3.org/2000/svg" width="30" height="30" viewBox="0 0 30 30">
    <g fill="none" fill-rule="evenodd">
        <circle cx="15" cy="15" r="15" fill="#EDF6F0"/>
        <g>
            <path fill="#B8DCC5" d="M16.945 9c0 .645-.521 1.167-1.167 1.167H9.565c-.114 0-.225.037-.317.106l-1.415 1.061V2.222c0-.645.522-1.167 1.167-1.167h6.778c.645 0 1.167.521 1.167 1.167V9z" transform="translate(6 7)"/>
            <path fill="#3CA160" fill-rule="nonzero" d="M12.467 8.61c0 .292-.236.528-.528.528-.29 0-.527-.236-.527-.527 0-.291.236-.527.527-.527.292 0 .528.236.528.527zM11.939 3C10.869 3 10 3.866 10 4.939c0 .292.236.528.527.528.292 0 .528-.237.528-.528 0-.488.394-.884.884-.884.488 0 .885.397.885.884 0 .488-.397.885-.885.885-.29 0-.527.236-.527.528v.564c0 .292.236.528.527.528.292 0 .528-.236.528-.528v-.11c.814-.23 1.412-.98 1.412-1.867 0-1.069-.87-1.939-1.94-1.939z" transform="translate(6 7)"/>
            <path fill="#3CA160" fill-rule="nonzero" d="M15.778 0H9C7.773 0 6.778.993 6.778 2.222v10.167c0 .431.495.684.844.422l2.119-1.59h6.037C17.005 11.222 18 10.23 18 9V2.222C18 .995 17.007 0 15.778 0zm1.167 9c0 .645-.521 1.167-1.167 1.167H9.565c-.114 0-.225.037-.317.106l-1.415 1.061V2.222c0-.645.522-1.167 1.167-1.167h6.778c.645 0 1.167.521 1.167 1.167V9z" transform="translate(6 7)"/>
            <path fill="#B8DCC5" stroke="#3CA160" stroke-width=".7" d="M3.531 10.702C4.892 10.702 6 11.859 6 13.28v1.567c0 .082-.067.152-.146.152H.146C.066 15 0 14.93 0 14.848V13.28c0-1.422 1.108-2.58 2.469-2.58H3.53zM3 6c1.017 0 1.844.859 1.844 1.915S4.017 9.83 3 9.83c-1.017 0-1.844-.86-1.844-1.915C1.156 6.859 1.983 6 3 6z" transform="translate(6 7)"/>
        </g>
    </g>
</svg>
