<svg xmlns="http://www.w3.org/2000/svg" width="30" height="30" viewBox="0 0 30 30">
    <g fill="none" fill-rule="evenodd">
        <circle cx="15" cy="15" r="14.5" stroke="#F4F5F7"/>
        <g opacity=".5">
            <path fill="#94CBA8" d="M13.058 1.33v.8c0 .146-.119.265-.266.265H2.146c-.147 0-.266-.119-.266-.266v-.798C1.88.743 1.404.266.816.266h11.178c.588 0 1.064.477 1.064 1.065z" transform="translate(8 7)"/>
            <path fill="#EDF6F0" d="M12.26 1.33v.8c0 .146-.12.265-.266.265H2.146c-.147 0-.266-.119-.266-.266v-.798C1.88.743 1.404.266.816.266h10.38c.587 0 1.064.477 1.064 1.065z" transform="translate(8 7)"/>
            <path fill="#B8DCC5" d="M11.248 2.395V15.17s-.01.114-.027.167c-.07.212-.27.365-.505.366h-9.9c-.294-.001-.532-.239-.533-.533V.798C.283.658.34.522.44.423c.016-.016.83-.032.85-.045.362.179.591.548.59.953v.798c0 .147.12.266.266.266h9.102z" opacity=".492" transform="translate(8 7)"/>
            <path fill="#FFF" fill-rule="nonzero" d="M0.017 15.17L0.017 0.798 0.549 0.798 0.549 15.17z" transform="translate(8 7)"/>
            <g fill="#3CA160">
                <path d="M.816 15.969h10.113c.441 0 .799-.358.799-.799V2.661h1.064c.294 0 .533-.238.533-.532v-.798C13.324.596 12.728 0 11.994 0H.816C.375 0 .017.357.017.798v11.179H.55V.798C.55.651.67.532.816.532c.44 0 .798.358.798.799v.798c0 .294.238.532.532.532h9.05v12.51c0 .146-.12.266-.267.266H.816c-.147 0-.267-.12-.267-.267v-3.193H.017v3.193c0 .441.358.799.799.799zM1.873.532h10.12c.442 0 .8.358.8.799v.798H2.145v-.798c0-.29-.097-.57-.273-.799z" transform="translate(8 7)"/>
                <path d="M2.945 3.992h-.799c-.294 0-.532.239-.532.533V6.12c0 .294.238.533.532.533h1.597c.294 0 .532-.239.532-.533v-.266c0-.147-.119-.266-.266-.266-.147 0-.266.12-.266.266v.266H2.146V4.525h.799c.147 0 .266-.12.266-.267 0-.147-.12-.266-.266-.266zM1.614 9.848c0 .294.238.532.532.532h1.597c.294 0 .532-.238.532-.532V8.25c0-.294-.238-.533-.532-.533H2.146c-.294 0-.532.239-.532.533v1.597zm.532-1.597h1.597v1.597H2.146V8.25zM1.614 13.574c0 .294.238.532.532.532h1.597c.294 0 .532-.238.532-.532v-1.597c0-.294-.238-.533-.532-.533H2.146c-.294 0-.532.239-.532.533v1.597zm.532-1.597h1.597v1.597H2.146v-1.597zM5.36 5.057h4.26c.158 0 .286-.12.286-.266 0-.147-.128-.266-.286-.266H5.36c-.158 0-.286.119-.286.266 0 .147.128.266.286.266zM5.34 8.783h4.197c.147 0 .266-.12.266-.266 0-.147-.119-.266-.266-.266H5.34c-.147 0-.266.119-.266.266 0 .147.12.266.266.266zM5.34 12.532h4.197c.147 0 .266-.119.266-.266 0-.147-.119-.266-.266-.266H5.34c-.147 0-.266.12-.266.266 0 .147.12.266.266.266z" transform="translate(8 7)"/>
                <path d="M2.49 4.869c-.103.104-.103.272 0 .376l.533.532c.05.05.117.078.188.078h.022c.078-.006.15-.047.195-.11l1.33-1.864c.056-.077.065-.178.026-.264-.04-.087-.122-.146-.217-.155-.094-.01-.187.033-.242.11L3.177 5.18l-.31-.31c-.104-.104-.272-.104-.376 0z" transform="translate(8 7)"/>
            </g>
        </g>
    </g>
</svg>
