<svg xmlns="http://www.w3.org/2000/svg" width="96" height="79" viewBox="0 0 96 79">
    <g fill="none" fill-rule="evenodd" opacity=".089">
        <path fill="#B8DCC5" d="M86 89H33.764c-1.88-.488-3.819-.016-5.764 0V38.037L57 17l29 21.037V89z"/>
        <path fill="#3CA160" d="M91.05 23.445V2.32C91.05 1.04 89.977 0 88.654 0h-9.586c-1.324 0-2.397 1.04-2.397 2.321v10.84L58.923.464c-.846-.605-2-.605-2.846 0L.959 39.925c-.823.598-1.16 1.638-.838 2.585.322.946 1.232 1.588 2.261 1.594h11.982V92h86.272V44.104h11.982c1.029-.006 1.939-.648 2.261-1.594.323-.947-.015-1.987-.838-2.585L91.05 23.445zM81.464 4.642h4.793v15.381l-4.793-3.43V4.642zm4.793 82.572H34.458c-1.864-.478-3.786-.016-5.715 0v-49.88L57.5 16.746l28.757 20.59v49.879zM98.24 39.46c-1.323 0-2.396 1.04-2.396 2.321v45.053l-4.793 2.679v-53.35c-.003-.732-.364-1.42-.973-1.856L58.923 12c-.846-.605-2-.605-2.846 0L24.923 34.308c-.609.435-.97 1.124-.973 1.857v51.59c-1.662.384-3.27.958-4.793 1.71V41.782c0-1.282-1.073-2.32-2.396-2.32H9.655L57.5 5.208l47.845 34.252h-7.106z"/>
    </g>
</svg>
